<svg width="51" height="13" viewBox="0 0 51 13" fill="none" xmlns="http://www.w3.org/2000/svg">
<path d="M21.4163 12.6232V4.14494H21.3558L18.0889 12.6232H16.8184L13.5515 4.14494H13.491V12.6232H11.9786V1.13045H13.9145L17.4234 10.2995H17.4839L20.9928 1.13045H22.9893V12.6232H21.4163ZM31.5195 12.6232H29.9466V11.1788H29.8861C29.4626 12.1836 28.6156 12.7488 27.4056 12.7488C25.6512 12.7488 24.6227 11.5556 24.6227 9.60871V4.20774H26.2562V9.2947C26.2562 10.5507 26.8611 11.2416 27.9501 11.2416C29.1601 11.2416 29.8256 10.3623 29.8256 9.04349V4.20774H31.459L31.5195 12.6232ZM35.9964 4.08214C37.8718 4.08214 39.0213 5.14977 39.0818 6.71982H37.5693C37.4483 5.90339 36.9039 5.40098 35.9964 5.40098C35.0889 5.40098 34.4839 5.84059 34.4839 6.53141C34.4839 7.03383 34.8469 7.41064 35.6939 7.59905L36.9643 7.91306C38.5978 8.28987 39.2028 8.98069 39.2028 10.1739C39.2028 11.6812 37.8718 12.7488 35.9964 12.7488C33.9999 12.7488 32.79 11.744 32.669 10.1111H34.3024C34.4234 10.9904 35.0284 11.43 35.9964 11.43C36.9643 11.43 37.5693 10.9904 37.5693 10.2995C37.5693 9.73431 37.2668 9.4203 36.4199 9.2319L35.1494 8.91789C33.6369 8.54108 32.911 7.78745 32.911 6.53141C32.911 5.08697 34.1209 4.08214 35.9964 4.08214ZM40.4127 2.00967C40.4127 1.44446 40.8362 1.00484 41.3807 1.00484C41.9252 1.00484 42.3487 1.44446 42.3487 2.00967C42.3487 2.57489 41.9252 3.01451 41.3807 3.01451C40.8362 3.01451 40.4127 2.57489 40.4127 2.00967ZM40.5337 4.20774H42.1672V12.6232H40.5337V4.20774ZM49.064 7.09663C48.8825 6.2174 48.2775 5.46378 47.1885 5.46378C45.9181 5.46378 45.0711 6.59422 45.0711 8.35267C45.0711 10.1739 45.9181 11.2416 47.1885 11.2416C48.217 11.2416 48.822 10.6763 49.064 9.67151H50.6369C50.4554 11.43 49.1245 12.686 47.1885 12.686C44.8896 12.686 43.4377 11.0532 43.4377 8.35267C43.4377 5.71499 44.8896 4.01934 47.1885 4.01934C49.2455 4.01934 50.4554 5.40098 50.6369 7.03383L49.064 7.09663ZM6.95723 2.26088C6.53374 2.7633 5.86826 3.20291 5.20278 3.14011C5.08179 2.38649 5.44478 1.63286 5.80777 1.19325C6.23125 0.628032 6.95723 0.251221 7.56221 0.251221C7.62271 0.942042 7.38072 1.69567 6.95723 2.26088ZM7.56221 3.26571C7.9252 3.26571 9.01417 3.39132 9.74015 4.52175C9.67965 4.58455 8.46969 5.33818 8.46969 6.90823C8.46969 8.79228 10.0426 9.4203 10.0426 9.4203C10.0426 9.4831 9.80065 10.2995 9.25616 11.1788C8.77218 11.9324 8.22769 12.686 7.44122 12.686C6.65474 12.686 6.41275 12.1836 5.50527 12.1836C4.5978 12.1836 4.29531 12.686 3.56933 12.686C2.78285 12.686 2.17787 11.8696 1.69389 11.116C0.665416 9.54591 -0.121061 6.71982 0.967907 4.83576C1.45189 3.89373 2.41986 3.26571 3.38784 3.26571C4.17431 3.26571 4.90029 3.83093 5.32378 3.83093C5.74727 3.83093 6.59424 3.20291 7.56221 3.26571Z" fill="white"/>
</svg>
