<svg width="20" height="20" viewBox="0 0 20 20" fill="none" xmlns="http://www.w3.org/2000/svg">
<path d="M8.32589 11.6518C8.32589 12.5134 7.70089 12.7857 6.93304 12.7857H4.91964V10.4241H6.97321C7.80357 10.4286 8.32589 10.7723 8.32589 11.6518ZM7.98214 7.97768C7.98214 7.1875 7.37054 7 6.69196 7H4.92411V9H6.83036C7.50446 9 7.98214 8.70536 7.98214 7.97768ZM13.8884 9.01339C13.0714 9.01339 12.5268 9.52232 12.4732 10.3393H15.25C15.1741 9.51339 14.7455 9.01339 13.8884 9.01339ZM20 2.14286V17.8571C20 19.0402 19.0402 20 17.8571 20H2.14286C0.959821 20 0 19.0402 0 17.8571V2.14286C0 0.959821 0.959821 0 2.14286 0H17.8571C19.0402 0 20 0.959821 20 2.14286ZM12.1295 6.83036H15.6027V5.98661H12.1295V6.83036ZM10.2098 11.7545C10.2098 10.6786 9.70089 9.75 8.64732 9.45089C9.41518 9.08482 9.81696 8.66071 9.81696 7.79911C9.81696 6.09375 8.54464 5.67857 7.07589 5.67857H3.03571V14.25H7.19196C8.75 14.2411 10.2098 13.4955 10.2098 11.7545ZM16.9643 11.0938C16.9643 9.25893 15.8884 7.72768 13.9464 7.72768C12.0536 7.72768 10.7723 9.14732 10.7723 11.0134C10.7723 12.9464 11.9911 14.2723 13.9464 14.2723C15.4286 14.2723 16.3884 13.6071 16.8527 12.183H15.3482C15.183 12.7143 14.5179 12.9911 14 12.9911C13 12.9911 12.4777 12.4063 12.4777 11.4152H16.9509C16.9554 11.3125 16.9643 11.2009 16.9643 11.0938Z" fill="#2E2B40"/>
<path d="M8.32589 11.6518C8.32589 12.5134 7.70089 12.7857 6.93304 12.7857H4.91964V10.4241H6.97321C7.80357 10.4286 8.32589 10.7723 8.32589 11.6518ZM7.98214 7.97768C7.98214 7.1875 7.37054 7 6.69196 7H4.92411V9H6.83036C7.50446 9 7.98214 8.70536 7.98214 7.97768ZM13.8884 9.01339C13.0714 9.01339 12.5268 9.52232 12.4732 10.3393H15.25C15.1741 9.51339 14.7455 9.01339 13.8884 9.01339ZM20 2.14286V17.8571C20 19.0402 19.0402 20 17.8571 20H2.14286C0.959821 20 0 19.0402 0 17.8571V2.14286C0 0.959821 0.959821 0 2.14286 0H17.8571C19.0402 0 20 0.959821 20 2.14286ZM12.1295 6.83036H15.6027V5.98661H12.1295V6.83036ZM10.2098 11.7545C10.2098 10.6786 9.70089 9.75 8.64732 9.45089C9.41518 9.08482 9.81696 8.66071 9.81696 7.79911C9.81696 6.09375 8.54464 5.67857 7.07589 5.67857H3.03571V14.25H7.19196C8.75 14.2411 10.2098 13.4955 10.2098 11.7545ZM16.9643 11.0938C16.9643 9.25893 15.8884 7.72768 13.9464 7.72768C12.0536 7.72768 10.7723 9.14732 10.7723 11.0134C10.7723 12.9464 11.9911 14.2723 13.9464 14.2723C15.4286 14.2723 16.3884 13.6071 16.8527 12.183H15.3482C15.183 12.7143 14.5179 12.9911 14 12.9911C13 12.9911 12.4777 12.4063 12.4777 11.4152H16.9509C16.9554 11.3125 16.9643 11.2009 16.9643 11.0938Z" fill="white"/>
</svg>
