<svg width="20" height="20" viewBox="0 0 20 20" fill="none" xmlns="http://www.w3.org/2000/svg">
<path d="M4.02679 8.75893C4.42411 6.86607 5.69643 5.29018 7.40625 4.48661C7.56696 4.70536 8.65625 6.21875 9.66964 8.01339C6.8125 8.77232 4.29911 8.76339 4.02679 8.75893ZM14.0446 5.44643C12.5446 4.11607 10.5045 3.61161 8.57143 4.08036C8.74107 4.30804 9.84821 5.81696 10.8482 7.65179C13.0179 6.83482 13.933 5.60268 14.0446 5.44643ZM6.25446 14.8214C8.0625 16.2321 10.4196 16.4598 12.3839 15.625C12.2946 15.0893 11.9375 13.2232 11.0804 11C8.62054 11.8393 6.89286 13.5179 6.25446 14.8214ZM10.6652 9.99107C10.5134 9.64286 10.3438 9.29911 10.1696 8.95536C7.125 9.86607 4.16964 9.83036 3.90179 9.82143C3.90179 9.88393 3.89732 9.94643 3.89732 10.0089C3.89732 11.5759 4.49107 13.0045 5.46429 14.0893C6.45536 12.3973 8.45982 10.6116 10.6652 9.99107ZM12.2232 10.7188C13.0223 12.9107 13.3438 14.6964 13.4062 15.067C14.7768 14.1429 15.75 12.6741 16.0223 10.9777C15.817 10.9107 14.1339 10.4107 12.2232 10.7188ZM11.317 8.55804C11.5312 8.99554 11.6875 9.35268 11.8527 9.75446C13.8839 9.5 15.9018 9.90625 16.1027 9.95089C16.0893 8.50893 15.5759 7.1875 14.7232 6.15179C14.5938 6.32589 13.5714 7.63393 11.317 8.55804ZM20 2.14286V17.8571C20 19.0402 19.0402 20 17.8571 20H2.14286C0.959821 20 0 19.0402 0 17.8571V2.14286C0 0.959821 0.959821 0 2.14286 0H17.8571C19.0402 0 20 0.959821 20 2.14286ZM17.1429 10C17.1429 6.0625 13.9375 2.85714 10 2.85714C6.0625 2.85714 2.85714 6.0625 2.85714 10C2.85714 13.9375 6.0625 17.1429 10 17.1429C13.9375 17.1429 17.1429 13.9375 17.1429 10Z" fill="#2E2B40"/>
<path d="M4.02679 8.75893C4.42411 6.86607 5.69643 5.29018 7.40625 4.48661C7.56696 4.70536 8.65625 6.21875 9.66964 8.01339C6.8125 8.77232 4.29911 8.76339 4.02679 8.75893ZM14.0446 5.44643C12.5446 4.11607 10.5045 3.61161 8.57143 4.08036C8.74107 4.30804 9.84821 5.81696 10.8482 7.65179C13.0179 6.83482 13.933 5.60268 14.0446 5.44643ZM6.25446 14.8214C8.0625 16.2321 10.4196 16.4598 12.3839 15.625C12.2946 15.0893 11.9375 13.2232 11.0804 11C8.62054 11.8393 6.89286 13.5179 6.25446 14.8214ZM10.6652 9.99107C10.5134 9.64286 10.3438 9.29911 10.1696 8.95536C7.125 9.86607 4.16964 9.83036 3.90179 9.82143C3.90179 9.88393 3.89732 9.94643 3.89732 10.0089C3.89732 11.5759 4.49107 13.0045 5.46429 14.0893C6.45536 12.3973 8.45982 10.6116 10.6652 9.99107ZM12.2232 10.7188C13.0223 12.9107 13.3438 14.6964 13.4062 15.067C14.7768 14.1429 15.75 12.6741 16.0223 10.9777C15.817 10.9107 14.1339 10.4107 12.2232 10.7188ZM11.317 8.55804C11.5312 8.99554 11.6875 9.35268 11.8527 9.75446C13.8839 9.5 15.9018 9.90625 16.1027 9.95089C16.0893 8.50893 15.5759 7.1875 14.7232 6.15179C14.5938 6.32589 13.5714 7.63393 11.317 8.55804ZM20 2.14286V17.8571C20 19.0402 19.0402 20 17.8571 20H2.14286C0.959821 20 0 19.0402 0 17.8571V2.14286C0 0.959821 0.959821 0 2.14286 0H17.8571C19.0402 0 20 0.959821 20 2.14286ZM17.1429 10C17.1429 6.0625 13.9375 2.85714 10 2.85714C6.0625 2.85714 2.85714 6.0625 2.85714 10C2.85714 13.9375 6.0625 17.1429 10 17.1429C13.9375 17.1429 17.1429 13.9375 17.1429 10Z" fill="white"/>
</svg>
