<svg width="105" height="105" viewBox="0 0 105 105" fill="none" xmlns="http://www.w3.org/2000/svg">
<path fill-rule="evenodd" clip-rule="evenodd" d="M10 0C4.47715 0 0 4.47715 0 10V95C0 100.523 4.47715 105 10 105H95C100.523 105 105 100.523 105 95V10C105 4.47715 100.523 0 95 0H10ZM52.8998 27.3638C36.0361 27.3638 21.6347 37.8528 15.7998 52.6592C18.8473 60.3922 24.2315 66.9477 31.0829 71.4462L27.3019 76.846C24.9261 80.239 25.7507 84.9156 29.1437 87.2914C32.5368 89.6673 37.2134 88.8427 39.5892 85.4496L45.3396 77.2373C47.7871 77.7081 50.3145 77.9546 52.8998 77.9546C69.7802 77.9546 84.1649 67.4654 89.9998 52.6592C87.052 45.179 81.922 38.8006 75.3905 34.32L78.5924 29.7473C80.9682 26.3542 80.1436 21.6777 76.7506 19.3018C73.3575 16.926 68.6809 17.7506 66.3051 21.1436L61.3249 28.2562C58.61 27.6716 55.7915 27.3638 52.8998 27.3638ZM55.8637 36.0555C54.9014 35.8847 53.9109 35.7955 52.8998 35.7955C43.5911 35.7955 36.0361 43.3503 36.0361 52.659C36.0361 55.7426 36.8651 58.6337 38.3123 61.1215L42.9493 54.4992C42.8393 53.9023 42.7819 53.2872 42.7819 52.6589C42.7819 47.6472 46.4387 43.4784 51.2259 42.679L55.8637 36.0555ZM55.7505 62.3688C59.9477 61.1359 63.0182 57.2513 63.0182 52.6589C63.0182 52.4437 63.0115 52.23 62.9982 52.0181L67.9201 44.9889C69.0985 47.2903 69.7635 49.8976 69.7635 52.6592C69.7635 61.9679 62.2085 69.5227 52.8998 69.5227C52.199 69.5227 51.5081 69.4799 50.8296 69.3967L55.7505 62.3688Z" fill="white"/>
</svg>
