<svg width="105" height="105" viewBox="0 0 105 105" fill="none" xmlns="http://www.w3.org/2000/svg">
<path fill-rule="evenodd" clip-rule="evenodd" d="M10 0C4.47715 0 0 4.47715 0 10V95C0 100.523 4.47715 105 10 105H95C100.523 105 105 100.523 105 95V10C105 4.47715 100.523 0 95 0H10ZM20.599 49.78H16.579L23.449 64.72L27.949 54.58L32.509 64.72L39.379 49.78H35.719L32.659 57.07L29.659 49.78H26.629L23.539 57.07L20.599 49.78ZM45.1263 49.78H41.1063L47.9763 64.72L52.4763 54.58L57.0363 64.72L63.9063 49.78H60.2463L57.1863 57.07L54.1863 49.78H51.1563L48.0663 57.07L45.1263 49.78ZM69.6537 49.78H65.6337L72.5037 64.72L77.0037 54.58L81.5637 64.72L88.4337 49.78H84.7737L81.7137 57.07L78.7137 49.78H75.6837L72.5937 57.07L69.6537 49.78Z" fill="white"/>
</svg>
