<svg width="105" height="105" viewBox="0 0 105 105" fill="none" xmlns="http://www.w3.org/2000/svg">
<path fill-rule="evenodd" clip-rule="evenodd" d="M10 0C4.47715 0 0 4.47715 0 10V95C0 100.523 4.47715 105 10 105H95C100.523 105 105 100.523 105 95V10C105 4.47715 100.523 0 95 0H10ZM74.3904 21.0633C74.3904 21.0633 75.1143 20.9813 76.9893 21.004C69.7446 15.7775 60.8111 12.8719 51.1714 13.3793C40.0093 14.1234 30.0849 19.2559 23.2359 27.1433C26.4739 25.9141 30.9985 25.2094 36.1512 27.5102C46.2945 31.9675 26.2785 37.1438 23.8442 36.2811C22.872 35.9366 22.1587 35.0647 21.5233 34.2881C20.6543 33.2259 19.9311 32.342 18.891 33.2291C18.0245 34.7275 17.2638 36.2674 16.586 37.8489L16.5855 37.8502C16.0388 39.2168 15.4922 40.5833 15.0822 42.0866C14.9476 42.5175 14.8209 42.9498 14.7021 43.3835C14.8835 44.8211 15.3443 45.7059 16.2834 44.7648C16.9707 44.0583 17.1383 43.0385 17.3006 42.0508C17.5346 40.627 17.7575 39.2702 19.5104 39.0156C22.6082 38.7281 26.0933 42.4651 24.6735 46.0584C23.4429 49.3469 16.9332 57.0768 13.868 59.659C14.2728 61.5479 14.6793 63.4369 15.219 65.3258C15.219 65.3941 15.2532 65.4967 15.2873 65.5992C15.3215 65.7017 15.3557 65.8043 15.3557 65.8726C15.4828 66.2539 15.6151 66.6331 15.7526 67.01C16.4577 67.3118 17.2046 67.5032 17.9516 67.5032C22.3265 67.6398 25.5724 69.4161 29.2418 71.4658C30.2086 72.0059 31.1068 72.4036 31.8926 72.7516L31.8928 72.7517C34.0891 73.7243 35.4066 74.3077 34.8869 76.5217C34.639 77.6257 33.7294 78.9321 32.7819 80.2927C31.3718 82.3178 29.8781 84.4631 30.3578 86.2403C30.9026 86.62 31.4605 86.9848 32.0332 87.3347C38.7316 91.7092 46.9337 94.0331 55.5459 93.4863C69.0793 92.6661 80.6989 85.2842 87.3973 74.4848C87.6465 74.1247 87.8846 73.7591 88.1125 73.3878C87.7595 73.1267 87.4341 72.8922 87.1086 72.6577L87.1075 72.6569C86.325 72.1556 84.5082 72.3267 82.7924 72.4882H82.7923C80.8301 72.6729 79 72.8452 79 71.9853C79 70.3736 82.914 64.1953 83.8925 63.3894C84.652 62.6596 86.1696 63.0628 88.6413 63.7196L88.6414 63.7196C89.354 63.9089 90.1457 64.1193 91.0215 64.3296C91.0215 64.3296 91.2046 64.9014 91.4398 65.8185C92.1216 63.6643 92.6502 61.4281 92.9485 59.1871C91.8457 59.4936 90.5908 59.705 89.3359 59.8214C87.2424 60.0502 86.5097 58.1968 85.8523 56.534C85.2816 55.0904 84.7676 53.7906 83.4694 54.1217C81.7495 54.5394 80.5099 56.9168 79.5815 58.6972C78.9266 59.9532 78.4265 60.9122 78.0221 60.6764C77.6754 60.4237 77.0477 59.4186 76.3071 58.2327C74.9592 56.0743 73.2374 53.3172 72.1556 53.4092C71.3578 53.4092 69.8003 52.7957 68.4023 52.245C66.8633 51.6389 65.5176 51.1088 65.5908 51.5568C65.6533 51.939 66.3857 52.3212 67.2889 52.7925C68.406 53.3755 69.7844 54.0948 70.4795 55.1191C71.2505 56.2552 70.0776 56.8017 68.8296 57.3832C68.0428 57.7499 67.226 58.1304 66.8479 58.6814C66.5293 59.2232 66.4328 60.0122 66.328 60.8682C66.1573 62.2636 65.9648 63.8372 64.7528 64.8086C62.6576 66.3761 62.0989 67.9435 62.2386 70.9359C62.3783 73.9283 56.6515 79.7704 52.8803 78.9155C50.8023 78.5078 50.0048 74.5079 49.2841 70.8932C48.7452 68.1906 48.2493 65.7032 47.2932 65.0936C46.6969 64.7134 45.4442 64.7086 43.9571 64.7028C39.8709 64.687 34.0148 64.6644 35.1413 56.8291C36.6031 46.6609 52.7326 50.424 55.9795 51.1816L55.9795 51.1816C56.1452 51.2202 56.2773 51.251 56.3722 51.2718C58.4673 51.6993 62.0989 48.422 59.026 48.5645C55.9531 48.707 54.4167 46.5696 54.4167 45.9996C54.4167 45.4296 53.5787 45.2871 53.1596 45.8571C52.932 46.1666 53.2401 46.6023 53.5243 47.0043C53.7634 47.3424 53.9856 47.6567 53.858 47.852C53.5787 48.422 51.9025 47.9945 51.7629 46.5695C51.4835 45.1446 48.5502 42.5798 48.1312 42.8647C47.5725 43.1497 49.2486 45.0022 49.947 45.2872C50.6454 45.5721 50.7851 46.142 50.3661 46.2845C50.135 46.3631 50.1163 46.7452 50.0991 47.0959C50.0852 47.3811 50.0723 47.6456 49.947 47.7095C49.6676 47.9944 48.5503 47.567 49.109 47.4245C49.5762 47.3054 49.555 46.8872 49.5355 46.5034C49.5317 46.4283 49.528 46.3545 49.528 46.2845C49.528 45.8571 47.7122 44.0047 45.4774 44.4321C43.9316 44.7278 43.1209 46.1142 42.4444 47.2711C42.1428 47.7868 41.8678 48.2569 41.5664 48.5645C40.5886 49.5619 38.4935 50.2744 38.2142 46.8545C37.9595 43.8671 40.9545 44.1949 41.698 44.2762L41.698 44.2762C41.7701 44.2841 41.821 44.2897 41.8457 44.2897C41.8386 44.2824 41.8308 44.2748 41.8222 44.2666L41.807 44.2521C41.6405 44.094 41.2758 43.7477 41.1474 42.4373C41.1474 42.4373 40.5887 42.0098 40.3093 41.8673C40.03 41.7248 40.1697 41.4398 40.3093 41.4398C40.3443 41.4398 40.4141 41.4576 40.5014 41.4799C40.7633 41.5467 41.1823 41.6536 41.2871 41.4398C41.6194 40.5077 42.5938 39.8779 43.5642 39.2508C44.2254 38.8234 44.8848 38.3973 45.3377 37.8775C46.2991 36.6788 45.4632 34.8966 44.8918 33.6784L44.8918 33.6783L44.8917 33.6782C44.716 33.3036 44.5653 32.9823 44.4996 32.7477C44.2443 31.7057 44.8059 31.14 45.6511 30.2886C45.7305 30.2086 45.8124 30.1261 45.8964 30.0404C46.2602 29.6693 46.5079 29.1601 46.7907 28.579C47.268 27.598 47.8452 26.4119 49.2486 25.3381C51.175 23.8642 52.79 24.5077 54.4516 25.1698L54.4518 25.1698C54.7178 25.2758 54.9849 25.3823 55.2548 25.4806C56.3194 25.915 56.1939 27.0852 56.0877 28.0752C55.9849 29.0336 55.9003 29.8232 56.9308 29.6129C60.3079 25.4141 66.9541 23.4116 71.2065 22.1304C72.5823 21.7159 73.7076 21.3768 74.3904 21.0633ZM17.0885 70.25C16.6426 69.2842 16.2323 68.299 15.8586 67.2973C16.8709 67.8538 17.5279 68.5518 17.2459 69.5528C17.1709 69.7812 17.1195 70.0142 17.0885 70.25ZM23.9161 80.5484C23.0588 79.6191 22.2467 78.6433 21.4821 77.6264C22.6566 78.1908 23.7948 78.797 23.8789 79.9379C23.8789 80.1418 23.8918 80.3458 23.9161 80.5484ZM43.1743 38.9566C44.0551 38.8048 44.2312 38.1978 43.7028 37.2871C43.4629 36.8738 43.4408 36.3354 43.4223 35.8848C43.4 35.3427 43.3829 34.9277 42.9981 35.0106C42.4914 35.1197 42.3491 36.014 42.2436 36.6769L42.2436 36.677L42.2436 36.6771C42.2024 36.9358 42.1669 37.1593 42.1174 37.2871C41.9413 37.8942 41.7652 39.2601 43.1743 38.9566ZM41.754 37C42 37 42 38.0213 42 38.3617V38.7022C42 39.0426 41.1391 39.2127 41.0161 38.5319C40.8931 38.0212 41.5081 37 41.754 37Z" fill="#6D6B79"/>
</svg>
