<svg width="169" height="144" viewBox="0 0 169 144" fill="none" xmlns="http://www.w3.org/2000/svg">
<path opacity="0.8" d="M140.108 93.97H127.097L119.928 66.7982H119.308L110.723 93.97H98.7746L90.1009 66.7982H89.4813L82.4007 93.97H69.5672L83.4628 50.6013H95.9424L104.616 77.9501H105.236L113.909 50.6013H126.212L140.108 93.97Z" fill="#26FFFF"/>
<path d="M83.5031 50.2327H70.4925L63.3234 77.4045H62.7038L54.1186 50.2327H42.1701L33.4964 77.4045H32.8768L25.7962 50.2327H12.9627L26.8583 93.6013H39.3379L48.0116 66.2525H48.6312L57.3049 93.6013H69.6074L83.5031 50.2327Z" fill="#4A44DD"/>
<path d="M2.19099 50.6809H15.2016L22.3707 77.8527H22.9902L31.5755 50.6809H43.524L52.1977 77.8527H52.8173L59.8979 50.6809H72.7314L58.8358 94.0496H46.3562L37.6825 66.7008H37.0629L28.3892 94.0496H16.0867L2.19099 50.6809Z" fill="#7E79FF"/>
<path d="M2.19099 50.2327H15.2016L22.3707 77.4045H22.9902L31.5755 50.2327H43.524L52.1977 77.4045H52.8173L59.8979 50.2327H72.7314L58.8358 93.6013H46.3562L37.6825 66.2525H37.0629L28.3892 93.6013H16.0867L2.19099 50.2327Z" fill="#7E79FF"/>
<path d="M17.7724 100.246H20.0524L21.3087 105.008H21.4172L22.9217 100.246H25.0156L26.5356 105.008H26.6441L27.8849 100.246H30.1339L27.6988 107.846H25.5119L23.9919 103.054H23.8833L22.3634 107.846H20.2075L17.7724 100.246ZM34.5065 99.9983C35.0959 99.9983 35.6336 100.102 36.1196 100.309C36.6159 100.505 37.0399 100.784 37.3914 101.146C37.7533 101.498 38.0325 101.922 38.229 102.418C38.4358 102.914 38.5392 103.457 38.5392 104.046C38.5392 104.636 38.4358 105.179 38.229 105.675C38.0325 106.171 37.7533 106.6 37.3914 106.962C37.0399 107.314 36.6159 107.593 36.1196 107.8C35.6336 107.996 35.0959 108.095 34.5065 108.095C33.9172 108.095 33.3743 107.996 32.878 107.8C32.392 107.593 31.9681 107.314 31.6062 106.962C31.2546 106.6 30.9754 106.171 30.7686 105.675C30.5721 105.179 30.4739 104.636 30.4739 104.046C30.4739 103.457 30.5721 102.914 30.7686 102.418C30.9754 101.922 31.2546 101.498 31.6062 101.146C31.9681 100.784 32.392 100.505 32.878 100.309C33.3743 100.102 33.9172 99.9983 34.5065 99.9983ZM34.5065 106.218C34.765 106.218 35.0132 106.171 35.251 106.078C35.4992 105.975 35.7163 105.83 35.9024 105.644C36.0886 105.458 36.2333 105.23 36.3367 104.962C36.4505 104.693 36.5073 104.388 36.5073 104.046C36.5073 103.705 36.4505 103.4 36.3367 103.131C36.2333 102.863 36.0886 102.635 35.9024 102.449C35.7163 102.263 35.4992 102.123 35.251 102.03C35.0132 101.927 34.765 101.875 34.5065 101.875C34.2377 101.875 33.9844 101.927 33.7465 102.03C33.5087 102.123 33.2968 102.263 33.1106 102.449C32.9245 102.635 32.7746 102.863 32.6608 103.131C32.5574 103.4 32.5057 103.705 32.5057 104.046C32.5057 104.388 32.5574 104.693 32.6608 104.962C32.7746 105.23 32.9245 105.458 33.1106 105.644C33.2968 105.83 33.5087 105.975 33.7465 106.078C33.9844 106.171 34.2377 106.218 34.5065 106.218ZM39.6932 100.246H41.601V101.301H41.725C41.8181 101.115 41.9422 100.944 42.0973 100.789C42.2524 100.634 42.423 100.5 42.6091 100.386C42.8056 100.272 43.0124 100.184 43.2295 100.122C43.457 100.06 43.6793 100.029 43.8964 100.029C44.1653 100.029 44.3928 100.055 44.5789 100.107C44.7754 100.159 44.9408 100.226 45.0752 100.309L44.5324 102.154C44.4083 102.092 44.2687 102.046 44.1136 102.015C43.9688 101.973 43.7879 101.953 43.5707 101.953C43.2916 101.953 43.0382 102.009 42.8107 102.123C42.5833 102.227 42.3868 102.377 42.2214 102.573C42.0663 102.769 41.9422 103.002 41.8491 103.271C41.7664 103.529 41.725 103.814 41.725 104.124V107.846H39.6932V100.246ZM46.0851 107.846V96.7412H48.1169V107.846H46.0851ZM55.442 106.931H55.3179C55.1318 107.252 54.8423 107.526 54.4494 107.753C54.0564 107.981 53.5705 108.095 52.9914 108.095C52.5054 108.095 52.0401 107.996 51.5955 107.8C51.1612 107.593 50.7735 107.314 50.4323 106.962C50.1014 106.6 49.8377 106.171 49.6412 105.675C49.4448 105.179 49.3465 104.636 49.3465 104.046C49.3465 103.457 49.4448 102.914 49.6412 102.418C49.8377 101.922 50.1014 101.498 50.4323 101.146C50.7735 100.784 51.1612 100.505 51.5955 100.309C52.0401 100.102 52.5054 99.9983 52.9914 99.9983C53.5705 99.9983 54.0564 100.112 54.4494 100.34C54.8423 100.567 55.1318 100.841 55.3179 101.162H55.442L55.3179 100.076V96.7412H57.3498V107.846H55.442V106.931ZM53.4102 106.218C53.679 106.218 53.9324 106.171 54.1702 106.078C54.4183 105.975 54.6355 105.83 54.8216 105.644C55.0077 105.458 55.1577 105.23 55.2714 104.962C55.3851 104.693 55.442 104.388 55.442 104.046C55.442 103.705 55.3851 103.4 55.2714 103.131C55.1577 102.863 55.0077 102.635 54.8216 102.449C54.6355 102.263 54.4183 102.123 54.1702 102.03C53.9324 101.927 53.679 101.875 53.4102 101.875C53.1413 101.875 52.8828 101.927 52.6347 102.03C52.3969 102.134 52.1849 102.278 51.9988 102.464C51.8127 102.651 51.6627 102.878 51.549 103.147C51.4352 103.416 51.3784 103.716 51.3784 104.046C51.3784 104.377 51.4352 104.677 51.549 104.946C51.6627 105.215 51.8127 105.442 51.9988 105.628C52.1849 105.815 52.3969 105.959 52.6347 106.063C52.8828 106.166 53.1413 106.218 53.4102 106.218ZM61.6823 100.246H63.9623L65.2186 105.008H65.3271L66.8316 100.246H68.9255L70.4455 105.008H70.554L71.7949 100.246H74.0438L71.6087 107.846H69.4218L67.9018 103.054H67.7933L66.2733 107.846H64.1174L61.6823 100.246ZM76.1018 99.1453C75.926 99.1453 75.7554 99.1143 75.59 99.0522C75.4349 98.9798 75.2953 98.8868 75.1712 98.773C75.0575 98.649 74.9644 98.5094 74.892 98.3543C74.83 98.1992 74.799 98.0285 74.799 97.8424C74.799 97.6563 74.83 97.4857 74.892 97.3306C74.9644 97.1755 75.0575 97.0411 75.1712 96.9273C75.2953 96.8033 75.4349 96.7102 75.59 96.6482C75.7554 96.5758 75.926 96.5396 76.1018 96.5396C76.4637 96.5396 76.7739 96.6688 77.0324 96.9273C77.2909 97.1755 77.4202 97.4805 77.4202 97.8424C77.4202 98.2043 77.2909 98.5145 77.0324 98.773C76.7739 99.0212 76.4637 99.1453 76.1018 99.1453ZM75.0937 107.846V100.246H77.1255V107.846H75.0937ZM84.5689 106.931H84.4448C84.2587 107.252 83.9691 107.526 83.5762 107.753C83.1833 107.981 82.6973 108.095 82.1183 108.095C81.6323 108.095 81.167 107.996 80.7224 107.8C80.2881 107.593 79.9003 107.314 79.5591 106.962C79.2282 106.6 78.9646 106.171 78.7681 105.675C78.5716 105.179 78.4734 104.636 78.4734 104.046C78.4734 103.457 78.5716 102.914 78.7681 102.418C78.9646 101.922 79.2282 101.498 79.5591 101.146C79.9003 100.784 80.2881 100.505 80.7224 100.309C81.167 100.102 81.6323 99.9983 82.1183 99.9983C82.6973 99.9983 83.1833 100.112 83.5762 100.34C83.9691 100.567 84.2587 100.841 84.4448 101.162H84.5689L84.4448 100.076V96.7412H86.4766V107.846H84.5689V106.931ZM82.537 106.218C82.8059 106.218 83.0592 106.171 83.297 106.078C83.5452 105.975 83.7623 105.83 83.9485 105.644C84.1346 105.458 84.2845 105.23 84.3983 104.962C84.512 104.693 84.5689 104.388 84.5689 104.046C84.5689 103.705 84.512 103.4 84.3983 103.131C84.2845 102.863 84.1346 102.635 83.9485 102.449C83.7623 102.263 83.5452 102.123 83.297 102.03C83.0592 101.927 82.8059 101.875 82.537 101.875C82.2682 101.875 82.0097 101.927 81.7615 102.03C81.5237 102.134 81.3117 102.278 81.1256 102.464C80.9395 102.651 80.7896 102.878 80.6758 103.147C80.5621 103.416 80.5052 103.716 80.5052 104.046C80.5052 104.377 80.5621 104.677 80.6758 104.946C80.7896 105.215 80.9395 105.442 81.1256 105.628C81.3117 105.815 81.5237 105.959 81.7615 106.063C82.0097 106.166 82.2682 106.218 82.537 106.218ZM95.3286 106.016C94.9771 106.637 94.5014 107.138 93.9017 107.521C93.3123 107.903 92.5885 108.095 91.7303 108.095C91.1512 108.095 90.6136 107.996 90.1172 107.8C89.6313 107.593 89.2073 107.309 88.8454 106.947C88.4835 106.585 88.1992 106.161 87.9924 105.675C87.7959 105.179 87.6977 104.636 87.6977 104.046C87.6977 103.498 87.7959 102.981 87.9924 102.495C88.1888 101.999 88.4628 101.57 88.8144 101.208C89.166 100.836 89.5796 100.541 90.0552 100.324C90.5412 100.107 91.0737 99.9983 91.6527 99.9983C92.2628 99.9983 92.8057 100.102 93.2813 100.309C93.7569 100.505 94.155 100.784 94.4756 101.146C94.7961 101.498 95.0391 101.916 95.2045 102.402C95.37 102.888 95.4527 103.416 95.4527 103.984C95.4527 104.057 95.4527 104.119 95.4527 104.171C95.4424 104.233 95.4372 104.289 95.4372 104.341C95.4269 104.393 95.4217 104.45 95.4217 104.512H89.6985C89.7398 104.822 89.8225 105.091 89.9466 105.318C90.081 105.535 90.2413 105.722 90.4274 105.877C90.6239 106.021 90.8359 106.13 91.0634 106.202C91.2908 106.264 91.5235 106.295 91.7613 106.295C92.2266 106.295 92.6092 106.192 92.9091 105.985C93.2193 105.768 93.4622 105.499 93.638 105.179L95.3286 106.016ZM93.4829 103.069C93.4726 102.935 93.4261 102.785 93.3433 102.62C93.271 102.454 93.1572 102.299 93.0021 102.154C92.8574 102.009 92.6712 101.891 92.4438 101.798C92.2266 101.704 91.9629 101.658 91.6527 101.658C91.2185 101.658 90.8359 101.782 90.505 102.03C90.1741 102.278 89.9415 102.625 89.807 103.069H93.4829ZM100.158 100.246H102.066V101.239H102.19C102.428 100.867 102.749 100.567 103.152 100.34C103.565 100.112 104.02 99.9983 104.517 99.9983C105.096 99.9983 105.582 100.133 105.975 100.402C106.368 100.67 106.647 101.001 106.812 101.394C107.05 101.012 107.386 100.686 107.82 100.417C108.255 100.138 108.782 99.9983 109.402 99.9983C109.868 99.9983 110.271 100.076 110.612 100.231C110.953 100.376 111.233 100.583 111.45 100.851C111.677 101.12 111.848 101.446 111.961 101.829C112.075 102.201 112.132 102.609 112.132 103.054V107.846H110.1V103.426C110.1 102.392 109.676 101.875 108.828 101.875C108.56 101.875 108.322 101.937 108.115 102.061C107.908 102.175 107.732 102.335 107.588 102.542C107.453 102.738 107.345 102.976 107.262 103.255C107.19 103.535 107.153 103.834 107.153 104.155V107.846H105.122V103.426C105.122 102.392 104.677 101.875 103.788 101.875C103.529 101.875 103.302 101.937 103.105 102.061C102.909 102.175 102.743 102.335 102.609 102.542C102.474 102.738 102.371 102.976 102.299 103.255C102.226 103.535 102.19 103.834 102.19 104.155V107.846H100.158V100.246ZM119.063 106.854H118.939C118.701 107.236 118.381 107.541 117.978 107.769C117.574 107.986 117.114 108.095 116.597 108.095C115.636 108.095 114.917 107.8 114.441 107.211C113.976 106.621 113.743 105.835 113.743 104.853V100.246H115.775V104.605C115.775 105.153 115.894 105.561 116.132 105.83C116.38 106.089 116.737 106.218 117.202 106.218C117.481 106.218 117.724 106.161 117.931 106.047C118.148 105.923 118.329 105.763 118.474 105.566C118.629 105.36 118.743 105.122 118.815 104.853C118.898 104.574 118.939 104.279 118.939 103.969V100.246H120.971V107.846H119.063V106.854ZM125.645 108.095C125.148 108.095 124.704 108.033 124.311 107.908C123.928 107.784 123.592 107.624 123.303 107.428C123.024 107.221 122.786 106.988 122.589 106.73C122.393 106.461 122.243 106.192 122.14 105.923L123.954 105.148C124.13 105.541 124.363 105.835 124.652 106.032C124.952 106.218 125.283 106.311 125.645 106.311C126.017 106.311 126.312 106.244 126.529 106.109C126.746 105.975 126.855 105.815 126.855 105.628C126.855 105.422 126.762 105.256 126.575 105.132C126.4 104.998 126.089 104.879 125.645 104.775L124.575 104.543C124.337 104.491 124.089 104.408 123.83 104.295C123.582 104.181 123.354 104.036 123.148 103.86C122.941 103.685 122.77 103.473 122.636 103.224C122.501 102.976 122.434 102.687 122.434 102.356C122.434 101.984 122.512 101.653 122.667 101.363C122.832 101.074 123.055 100.831 123.334 100.634C123.613 100.427 123.939 100.272 124.311 100.169C124.694 100.055 125.102 99.9983 125.536 99.9983C126.26 99.9983 126.906 100.143 127.475 100.433C128.044 100.712 128.462 101.162 128.731 101.782L126.979 102.495C126.834 102.196 126.622 101.978 126.343 101.844C126.064 101.71 125.784 101.642 125.505 101.642C125.216 101.642 124.962 101.704 124.745 101.829C124.528 101.942 124.419 102.092 124.419 102.278C124.419 102.454 124.507 102.594 124.683 102.697C124.869 102.8 125.117 102.894 125.428 102.976L126.591 103.255C127.366 103.442 127.94 103.741 128.313 104.155C128.695 104.558 128.886 105.039 128.886 105.597C128.886 105.928 128.809 106.244 128.654 106.544C128.499 106.843 128.276 107.112 127.987 107.35C127.708 107.578 127.366 107.759 126.963 107.893C126.57 108.027 126.131 108.095 125.645 108.095ZM131.19 99.1453C131.014 99.1453 130.843 99.1143 130.678 99.0522C130.523 98.9798 130.383 98.8868 130.259 98.773C130.146 98.649 130.052 98.5094 129.98 98.3543C129.918 98.1992 129.887 98.0285 129.887 97.8424C129.887 97.6563 129.918 97.4857 129.98 97.3306C130.052 97.1755 130.146 97.0411 130.259 96.9273C130.383 96.8033 130.523 96.7102 130.678 96.6482C130.843 96.5758 131.014 96.5396 131.19 96.5396C131.552 96.5396 131.862 96.6688 132.12 96.9273C132.379 97.1755 132.508 97.4805 132.508 97.8424C132.508 98.2043 132.379 98.5145 132.12 98.773C131.862 99.0212 131.552 99.1453 131.19 99.1453ZM130.182 107.846V100.246H132.214V107.846H130.182ZM141.208 105.908C140.877 106.549 140.412 107.076 139.812 107.49C139.223 107.893 138.483 108.095 137.594 108.095C137.005 108.095 136.462 107.996 135.966 107.8C135.48 107.593 135.056 107.309 134.694 106.947C134.342 106.585 134.063 106.161 133.856 105.675C133.66 105.179 133.561 104.636 133.561 104.046C133.561 103.457 133.66 102.914 133.856 102.418C134.063 101.922 134.342 101.498 134.694 101.146C135.056 100.784 135.48 100.505 135.966 100.309C136.462 100.102 137.005 99.9983 137.594 99.9983C138.473 99.9983 139.212 100.2 139.812 100.603C140.412 101.006 140.851 101.529 141.13 102.17L139.269 102.945C139.093 102.594 138.866 102.33 138.587 102.154C138.318 101.968 137.977 101.875 137.563 101.875C137.294 101.875 137.041 101.927 136.803 102.03C136.565 102.134 136.353 102.278 136.167 102.464C135.991 102.651 135.852 102.878 135.748 103.147C135.645 103.416 135.593 103.716 135.593 104.046C135.593 104.377 135.645 104.677 135.748 104.946C135.852 105.215 135.991 105.442 136.167 105.628C136.353 105.815 136.565 105.959 136.803 106.063C137.041 106.166 137.294 106.218 137.563 106.218C137.987 106.218 138.344 106.125 138.633 105.939C138.933 105.742 139.171 105.463 139.347 105.101L141.208 105.908Z" fill="white"/>
<path d="M17.7724 99.7982H20.0524L21.3087 104.56H21.4172L22.9217 99.7982H25.0156L26.5356 104.56H26.6441L27.8849 99.7982H30.1339L27.6988 107.398H25.5119L23.9919 102.606H23.8833L22.3634 107.398H20.2075L17.7724 99.7982ZM34.5065 99.5501C35.0959 99.5501 35.6336 99.6535 36.1196 99.8603C36.6159 100.057 37.0399 100.336 37.3914 100.698C37.7533 101.049 38.0325 101.473 38.229 101.97C38.4358 102.466 38.5392 103.009 38.5392 103.598C38.5392 104.188 38.4358 104.73 38.229 105.227C38.0325 105.723 37.7533 106.152 37.3914 106.514C37.0399 106.866 36.6159 107.145 36.1196 107.352C35.6336 107.548 35.0959 107.646 34.5065 107.646C33.9172 107.646 33.3743 107.548 32.878 107.352C32.392 107.145 31.9681 106.866 31.6062 106.514C31.2546 106.152 30.9754 105.723 30.7686 105.227C30.5721 104.73 30.4739 104.188 30.4739 103.598C30.4739 103.009 30.5721 102.466 30.7686 101.97C30.9754 101.473 31.2546 101.049 31.6062 100.698C31.9681 100.336 32.392 100.057 32.878 99.8603C33.3743 99.6535 33.9172 99.5501 34.5065 99.5501ZM34.5065 105.77C34.765 105.77 35.0132 105.723 35.251 105.63C35.4992 105.527 35.7163 105.382 35.9024 105.196C36.0886 105.01 36.2333 104.782 36.3367 104.513C36.4505 104.244 36.5073 103.939 36.5073 103.598C36.5073 103.257 36.4505 102.952 36.3367 102.683C36.2333 102.414 36.0886 102.187 35.9024 102.001C35.7163 101.815 35.4992 101.675 35.251 101.582C35.0132 101.479 34.765 101.427 34.5065 101.427C34.2377 101.427 33.9844 101.479 33.7465 101.582C33.5087 101.675 33.2968 101.815 33.1106 102.001C32.9245 102.187 32.7746 102.414 32.6608 102.683C32.5574 102.952 32.5057 103.257 32.5057 103.598C32.5057 103.939 32.5574 104.244 32.6608 104.513C32.7746 104.782 32.9245 105.01 33.1106 105.196C33.2968 105.382 33.5087 105.527 33.7465 105.63C33.9844 105.723 34.2377 105.77 34.5065 105.77ZM39.6932 99.7982H41.601V100.853H41.725C41.8181 100.667 41.9422 100.496 42.0973 100.341C42.2524 100.186 42.423 100.052 42.6091 99.9378C42.8056 99.8241 43.0124 99.7362 43.2295 99.6742C43.457 99.6121 43.6793 99.5811 43.8964 99.5811C44.1653 99.5811 44.3928 99.607 44.5789 99.6587C44.7754 99.7104 44.9408 99.7776 45.0752 99.8603L44.5324 101.706C44.4083 101.644 44.2687 101.597 44.1136 101.566C43.9688 101.525 43.7879 101.504 43.5707 101.504C43.2916 101.504 43.0382 101.561 42.8107 101.675C42.5833 101.778 42.3868 101.928 42.2214 102.125C42.0663 102.321 41.9422 102.554 41.8491 102.823C41.7664 103.081 41.725 103.366 41.725 103.676V107.398H39.6932V99.7982ZM46.0851 107.398V96.293H48.1169V107.398H46.0851ZM55.442 106.483H55.3179C55.1318 106.804 54.8423 107.078 54.4494 107.305C54.0564 107.533 53.5705 107.646 52.9914 107.646C52.5054 107.646 52.0401 107.548 51.5955 107.352C51.1612 107.145 50.7735 106.866 50.4323 106.514C50.1014 106.152 49.8377 105.723 49.6412 105.227C49.4448 104.73 49.3465 104.188 49.3465 103.598C49.3465 103.009 49.4448 102.466 49.6412 101.97C49.8377 101.473 50.1014 101.049 50.4323 100.698C50.7735 100.336 51.1612 100.057 51.5955 99.8603C52.0401 99.6535 52.5054 99.5501 52.9914 99.5501C53.5705 99.5501 54.0564 99.6638 54.4494 99.8913C54.8423 100.119 55.1318 100.393 55.3179 100.713H55.442L55.3179 99.6276V96.293H57.3498V107.398H55.442V106.483ZM53.4102 105.77C53.679 105.77 53.9324 105.723 54.1702 105.63C54.4183 105.527 54.6355 105.382 54.8216 105.196C55.0077 105.01 55.1577 104.782 55.2714 104.513C55.3851 104.244 55.442 103.939 55.442 103.598C55.442 103.257 55.3851 102.952 55.2714 102.683C55.1577 102.414 55.0077 102.187 54.8216 102.001C54.6355 101.815 54.4183 101.675 54.1702 101.582C53.9324 101.479 53.679 101.427 53.4102 101.427C53.1413 101.427 52.8828 101.479 52.6347 101.582C52.3969 101.685 52.1849 101.83 51.9988 102.016C51.8127 102.202 51.6627 102.43 51.549 102.699C51.4352 102.967 51.3784 103.267 51.3784 103.598C51.3784 103.929 51.4352 104.229 51.549 104.498C51.6627 104.767 51.8127 104.994 51.9988 105.18C52.1849 105.366 52.3969 105.511 52.6347 105.615C52.8828 105.718 53.1413 105.77 53.4102 105.77ZM61.6823 99.7982H63.9623L65.2186 104.56H65.3271L66.8316 99.7982H68.9255L70.4455 104.56H70.554L71.7949 99.7982H74.0438L71.6087 107.398H69.4218L67.9018 102.606H67.7933L66.2733 107.398H64.1174L61.6823 99.7982ZM76.1018 98.697C75.926 98.697 75.7554 98.666 75.59 98.604C75.4349 98.5316 75.2953 98.4385 75.1712 98.3248C75.0575 98.2007 74.9644 98.0611 74.892 97.906C74.83 97.7509 74.799 97.5803 74.799 97.3942C74.799 97.2081 74.83 97.0375 74.892 96.8824C74.9644 96.7273 75.0575 96.5928 75.1712 96.4791C75.2953 96.355 75.4349 96.2619 75.59 96.1999C75.7554 96.1275 75.926 96.0913 76.1018 96.0913C76.4637 96.0913 76.7739 96.2206 77.0324 96.4791C77.2909 96.7273 77.4202 97.0323 77.4202 97.3942C77.4202 97.7561 77.2909 98.0663 77.0324 98.3248C76.7739 98.573 76.4637 98.697 76.1018 98.697ZM75.0937 107.398V99.7982H77.1255V107.398H75.0937ZM84.5689 106.483H84.4448C84.2587 106.804 83.9691 107.078 83.5762 107.305C83.1833 107.533 82.6973 107.646 82.1183 107.646C81.6323 107.646 81.167 107.548 80.7224 107.352C80.2881 107.145 79.9003 106.866 79.5591 106.514C79.2282 106.152 78.9646 105.723 78.7681 105.227C78.5716 104.73 78.4734 104.188 78.4734 103.598C78.4734 103.009 78.5716 102.466 78.7681 101.97C78.9646 101.473 79.2282 101.049 79.5591 100.698C79.9003 100.336 80.2881 100.057 80.7224 99.8603C81.167 99.6535 81.6323 99.5501 82.1183 99.5501C82.6973 99.5501 83.1833 99.6638 83.5762 99.8913C83.9691 100.119 84.2587 100.393 84.4448 100.713H84.5689L84.4448 99.6276V96.293H86.4766V107.398H84.5689V106.483ZM82.537 105.77C82.8059 105.77 83.0592 105.723 83.297 105.63C83.5452 105.527 83.7623 105.382 83.9485 105.196C84.1346 105.01 84.2845 104.782 84.3983 104.513C84.512 104.244 84.5689 103.939 84.5689 103.598C84.5689 103.257 84.512 102.952 84.3983 102.683C84.2845 102.414 84.1346 102.187 83.9485 102.001C83.7623 101.815 83.5452 101.675 83.297 101.582C83.0592 101.479 82.8059 101.427 82.537 101.427C82.2682 101.427 82.0097 101.479 81.7615 101.582C81.5237 101.685 81.3117 101.83 81.1256 102.016C80.9395 102.202 80.7896 102.43 80.6758 102.699C80.5621 102.967 80.5052 103.267 80.5052 103.598C80.5052 103.929 80.5621 104.229 80.6758 104.498C80.7896 104.767 80.9395 104.994 81.1256 105.18C81.3117 105.366 81.5237 105.511 81.7615 105.615C82.0097 105.718 82.2682 105.77 82.537 105.77ZM95.3286 105.568C94.9771 106.188 94.5014 106.69 93.9017 107.072C93.3123 107.455 92.5885 107.646 91.7303 107.646C91.1512 107.646 90.6136 107.548 90.1172 107.352C89.6313 107.145 89.2073 106.861 88.8454 106.499C88.4835 106.137 88.1992 105.713 87.9924 105.227C87.7959 104.73 87.6977 104.188 87.6977 103.598C87.6977 103.05 87.7959 102.533 87.9924 102.047C88.1888 101.551 88.4628 101.122 88.8144 100.76C89.166 100.388 89.5796 100.093 90.0552 99.8758C90.5412 99.6587 91.0737 99.5501 91.6527 99.5501C92.2628 99.5501 92.8057 99.6535 93.2813 99.8603C93.7569 100.057 94.155 100.336 94.4756 100.698C94.7961 101.049 95.0391 101.468 95.2045 101.954C95.37 102.44 95.4527 102.967 95.4527 103.536C95.4527 103.609 95.4527 103.671 95.4527 103.722C95.4424 103.784 95.4372 103.841 95.4372 103.893C95.4269 103.945 95.4217 104.001 95.4217 104.064H89.6985C89.7398 104.374 89.8225 104.643 89.9466 104.87C90.081 105.087 90.2413 105.273 90.4274 105.428C90.6239 105.573 90.8359 105.682 91.0634 105.754C91.2908 105.816 91.5235 105.847 91.7613 105.847C92.2266 105.847 92.6092 105.744 92.9091 105.537C93.2193 105.32 93.4622 105.051 93.638 104.73L95.3286 105.568ZM93.4829 102.621C93.4726 102.487 93.4261 102.337 93.3433 102.171C93.271 102.006 93.1572 101.851 93.0021 101.706C92.8574 101.561 92.6712 101.442 92.4438 101.349C92.2266 101.256 91.9629 101.21 91.6527 101.21C91.2185 101.21 90.8359 101.334 90.505 101.582C90.1741 101.83 89.9415 102.176 89.807 102.621H93.4829ZM100.158 99.7982H102.066V100.791H102.19C102.428 100.419 102.749 100.119 103.152 99.8913C103.565 99.6638 104.02 99.5501 104.517 99.5501C105.096 99.5501 105.582 99.6845 105.975 99.9534C106.368 100.222 106.647 100.553 106.812 100.946C107.05 100.563 107.386 100.238 107.82 99.9689C108.255 99.6897 108.782 99.5501 109.402 99.5501C109.868 99.5501 110.271 99.6276 110.612 99.7827C110.953 99.9275 111.233 100.134 111.45 100.403C111.677 100.672 111.848 100.998 111.961 101.38C112.075 101.753 112.132 102.161 112.132 102.606V107.398H110.1V102.978C110.1 101.944 109.676 101.427 108.828 101.427C108.56 101.427 108.322 101.489 108.115 101.613C107.908 101.727 107.732 101.887 107.588 102.094C107.453 102.29 107.345 102.528 107.262 102.807C107.19 103.086 107.153 103.386 107.153 103.707V107.398H105.122V102.978C105.122 101.944 104.677 101.427 103.788 101.427C103.529 101.427 103.302 101.489 103.105 101.613C102.909 101.727 102.743 101.887 102.609 102.094C102.474 102.29 102.371 102.528 102.299 102.807C102.226 103.086 102.19 103.386 102.19 103.707V107.398H100.158V99.7982ZM119.063 106.406H118.939C118.701 106.788 118.381 107.093 117.978 107.321C117.574 107.538 117.114 107.646 116.597 107.646C115.636 107.646 114.917 107.352 114.441 106.762C113.976 106.173 113.743 105.387 113.743 104.405V99.7982H115.775V104.157C115.775 104.705 115.894 105.113 116.132 105.382C116.38 105.64 116.737 105.77 117.202 105.77C117.481 105.77 117.724 105.713 117.931 105.599C118.148 105.475 118.329 105.315 118.474 105.118C118.629 104.911 118.743 104.674 118.815 104.405C118.898 104.126 118.939 103.831 118.939 103.521V99.7982H120.971V107.398H119.063V106.406ZM125.645 107.646C125.148 107.646 124.704 107.584 124.311 107.46C123.928 107.336 123.592 107.176 123.303 106.979C123.024 106.773 122.786 106.54 122.589 106.281C122.393 106.013 122.243 105.744 122.14 105.475L123.954 104.699C124.13 105.092 124.363 105.387 124.652 105.584C124.952 105.77 125.283 105.863 125.645 105.863C126.017 105.863 126.312 105.795 126.529 105.661C126.746 105.527 126.855 105.366 126.855 105.18C126.855 104.973 126.762 104.808 126.575 104.684C126.4 104.55 126.089 104.431 125.645 104.327L124.575 104.095C124.337 104.043 124.089 103.96 123.83 103.846C123.582 103.733 123.354 103.588 123.148 103.412C122.941 103.236 122.77 103.024 122.636 102.776C122.501 102.528 122.434 102.239 122.434 101.908C122.434 101.535 122.512 101.204 122.667 100.915C122.832 100.625 123.055 100.382 123.334 100.186C123.613 99.9792 123.939 99.8241 124.311 99.7207C124.694 99.607 125.102 99.5501 125.536 99.5501C126.26 99.5501 126.906 99.6948 127.475 99.9844C128.044 100.264 128.462 100.713 128.731 101.334L126.979 102.047C126.834 101.747 126.622 101.53 126.343 101.396C126.064 101.261 125.784 101.194 125.505 101.194C125.216 101.194 124.962 101.256 124.745 101.38C124.528 101.494 124.419 101.644 124.419 101.83C124.419 102.006 124.507 102.145 124.683 102.249C124.869 102.352 125.117 102.445 125.428 102.528L126.591 102.807C127.366 102.993 127.94 103.293 128.313 103.707C128.695 104.11 128.886 104.591 128.886 105.149C128.886 105.48 128.809 105.795 128.654 106.095C128.499 106.395 128.276 106.664 127.987 106.902C127.708 107.129 127.366 107.31 126.963 107.445C126.57 107.579 126.131 107.646 125.645 107.646ZM131.19 98.697C131.014 98.697 130.843 98.666 130.678 98.604C130.523 98.5316 130.383 98.4385 130.259 98.3248C130.146 98.2007 130.052 98.0611 129.98 97.906C129.918 97.7509 129.887 97.5803 129.887 97.3942C129.887 97.2081 129.918 97.0375 129.98 96.8824C130.052 96.7273 130.146 96.5928 130.259 96.4791C130.383 96.355 130.523 96.2619 130.678 96.1999C130.843 96.1275 131.014 96.0913 131.19 96.0913C131.552 96.0913 131.862 96.2206 132.12 96.4791C132.379 96.7273 132.508 97.0323 132.508 97.3942C132.508 97.7561 132.379 98.0663 132.12 98.3248C131.862 98.573 131.552 98.697 131.19 98.697ZM130.182 107.398V99.7982H132.214V107.398H130.182ZM141.208 105.459C140.877 106.101 140.412 106.628 139.812 107.041C139.223 107.445 138.483 107.646 137.594 107.646C137.005 107.646 136.462 107.548 135.966 107.352C135.48 107.145 135.056 106.861 134.694 106.499C134.342 106.137 134.063 105.713 133.856 105.227C133.66 104.73 133.561 104.188 133.561 103.598C133.561 103.009 133.66 102.466 133.856 101.97C134.063 101.473 134.342 101.049 134.694 100.698C135.056 100.336 135.48 100.057 135.966 99.8603C136.462 99.6535 137.005 99.5501 137.594 99.5501C138.473 99.5501 139.212 99.7517 139.812 100.155C140.412 100.558 140.851 101.08 141.13 101.722L139.269 102.497C139.093 102.145 138.866 101.882 138.587 101.706C138.318 101.52 137.977 101.427 137.563 101.427C137.294 101.427 137.041 101.479 136.803 101.582C136.565 101.685 136.353 101.83 136.167 102.016C135.991 102.202 135.852 102.43 135.748 102.699C135.645 102.967 135.593 103.267 135.593 103.598C135.593 103.929 135.645 104.229 135.748 104.498C135.852 104.767 135.991 104.994 136.167 105.18C136.353 105.366 136.565 105.511 136.803 105.615C137.041 105.718 137.294 105.77 137.563 105.77C137.987 105.77 138.344 105.677 138.633 105.49C138.933 105.294 139.171 105.015 139.347 104.653L141.208 105.459Z" fill="white"/>
</svg>
