<svg width="119" height="119" viewBox="0 0 119 119" fill="none" xmlns="http://www.w3.org/2000/svg">
<path opacity="0.8" d="M108.155 74.9671H97.9653L92.3503 53.6857H91.8651L85.141 74.9671H75.7827L68.9893 53.6857H68.504L62.9584 74.9671H52.9069L63.7903 41H73.5644L80.3579 62.42H80.8431L87.6365 41H97.2721L108.155 74.9671Z" fill="#26FFFF"/>
<path d="M63.8214 41.0329H53.6313L48.0163 62.3143H47.5311L40.807 41.0329H31.4487L24.6553 62.3143H24.1701L18.6244 41.0329H8.57294L19.4563 75H29.2305L36.0239 53.58H36.5091L43.3025 75H52.9381L63.8214 41.0329Z" fill="#4A44DD"/>
<path d="M0.386606 41.0329H10.5767L16.1917 62.3143H16.6769L23.401 41.0329H32.7593L39.5527 62.3143H40.0379L45.5836 41.0329H55.6351L44.7517 75H34.9775L28.1841 53.58H27.6989L20.9055 75H11.2699L0.386606 41.0329Z" fill="#7E79FF"/>
<path d="M11.4646 83.4143H13.2503L14.2343 87.1437H14.3193L15.4977 83.4143H17.1376L18.3281 87.1437H18.4131L19.3849 83.4143H21.1464L19.2392 89.3667H17.5263L16.3359 85.613H16.2508L15.0603 89.3667H13.3718L11.4646 83.4143ZM24.5711 83.2199C25.0327 83.2199 25.4538 83.3009 25.8345 83.4629C26.2232 83.6168 26.5552 83.8354 26.8306 84.1189C27.114 84.3942 27.3327 84.7263 27.4866 85.115C27.6485 85.5037 27.7295 85.9289 27.7295 86.3905C27.7295 86.8521 27.6485 87.2773 27.4866 87.666C27.3327 88.0547 27.114 88.3908 26.8306 88.6743C26.5552 88.9496 26.2232 89.1683 25.8345 89.3303C25.4538 89.4841 25.0327 89.5611 24.5711 89.5611C24.1095 89.5611 23.6843 89.4841 23.2956 89.3303C22.9149 89.1683 22.5829 88.9496 22.2995 88.6743C22.0241 88.3908 21.8055 88.0547 21.6435 87.666C21.4896 87.2773 21.4127 86.8521 21.4127 86.3905C21.4127 85.9289 21.4896 85.5037 21.6435 85.115C21.8055 84.7263 22.0241 84.3942 22.2995 84.1189C22.5829 83.8354 22.9149 83.6168 23.2956 83.4629C23.6843 83.3009 24.1095 83.2199 24.5711 83.2199ZM24.5711 88.0912C24.7736 88.0912 24.9679 88.0547 25.1542 87.9819C25.3485 87.9009 25.5186 87.7875 25.6644 87.6417C25.8102 87.4959 25.9235 87.3178 26.0045 87.1072C26.0936 86.8967 26.1382 86.6577 26.1382 86.3905C26.1382 86.1232 26.0936 85.8843 26.0045 85.6738C25.9235 85.4632 25.8102 85.2851 25.6644 85.1393C25.5186 84.9935 25.3485 84.8842 25.1542 84.8113C24.9679 84.7303 24.7736 84.6898 24.5711 84.6898C24.3605 84.6898 24.1621 84.7303 23.9759 84.8113C23.7896 84.8842 23.6236 84.9935 23.4778 85.1393C23.332 85.2851 23.2146 85.4632 23.1255 85.6738C23.0445 85.8843 23.004 86.1232 23.004 86.3905C23.004 86.6577 23.0445 86.8967 23.1255 87.1072C23.2146 87.3178 23.332 87.4959 23.4778 87.6417C23.6236 87.7875 23.7896 87.9009 23.9759 87.9819C24.1621 88.0547 24.3605 88.0912 24.5711 88.0912ZM28.6334 83.4143H30.1276V84.2403H30.2247C30.2976 84.0946 30.3948 83.9609 30.5163 83.8395C30.6378 83.718 30.7714 83.6127 30.9172 83.5236C31.071 83.4345 31.233 83.3657 31.4031 83.3171C31.5812 83.2685 31.7554 83.2442 31.9254 83.2442C32.136 83.2442 32.3142 83.2645 32.4599 83.305C32.6138 83.3455 32.7434 83.3981 32.8487 83.4629L32.4235 84.9085C32.3263 84.8599 32.217 84.8234 32.0955 84.7991C31.9821 84.7667 31.8404 84.7505 31.6703 84.7505C31.4517 84.7505 31.2532 84.7951 31.0751 84.8842C30.8969 84.9652 30.743 85.0826 30.6135 85.2365C30.492 85.3903 30.3948 85.5725 30.3219 85.7831C30.2571 85.9856 30.2247 86.2083 30.2247 86.4512V89.3667H28.6334V83.4143ZM33.6396 89.3667V80.6689H35.2309V89.3667H33.6396ZM40.9681 88.65H40.8709C40.7251 88.901 40.4984 89.1156 40.1906 89.2938C39.8829 89.472 39.5023 89.5611 39.0488 89.5611C38.6681 89.5611 38.3037 89.4841 37.9555 89.3303C37.6153 89.1683 37.3116 88.9496 37.0444 88.6743C36.7852 88.3908 36.5787 88.0547 36.4248 87.666C36.271 87.2773 36.194 86.8521 36.194 86.3905C36.194 85.9289 36.271 85.5037 36.4248 85.115C36.5787 84.7263 36.7852 84.3942 37.0444 84.1189C37.3116 83.8354 37.6153 83.6168 37.9555 83.4629C38.3037 83.3009 38.6681 83.2199 39.0488 83.2199C39.5023 83.2199 39.8829 83.309 40.1906 83.4872C40.4984 83.6653 40.7251 83.88 40.8709 84.131H40.9681L40.8709 83.2807V80.6689H42.4623V89.3667H40.9681V88.65ZM39.3767 88.0912C39.5873 88.0912 39.7857 88.0547 39.972 87.9819C40.1664 87.9009 40.3364 87.7875 40.4822 87.6417C40.628 87.4959 40.7454 87.3178 40.8345 87.1072C40.9236 86.8967 40.9681 86.6577 40.9681 86.3905C40.9681 86.1232 40.9236 85.8843 40.8345 85.6738C40.7454 85.4632 40.628 85.2851 40.4822 85.1393C40.3364 84.9935 40.1664 84.8842 39.972 84.8113C39.7857 84.7303 39.5873 84.6898 39.3767 84.6898C39.1662 84.6898 38.9637 84.7303 38.7694 84.8113C38.5831 84.8923 38.4171 85.0057 38.2713 85.1514C38.1255 85.2972 38.0081 85.4754 37.919 85.6859C37.8299 85.8965 37.7854 86.1313 37.7854 86.3905C37.7854 86.6496 37.8299 86.8845 37.919 87.0951C38.0081 87.3056 38.1255 87.4838 38.2713 87.6296C38.4171 87.7753 38.5831 87.8887 38.7694 87.9697C38.9637 88.0507 39.1662 88.0912 39.3767 88.0912ZM43.1864 83.4143H44.9721L45.9561 87.1437H46.0411L47.2195 83.4143H48.8594L50.0499 87.1437H50.1349L51.1067 83.4143H52.8682L50.961 89.3667H49.2481L48.0577 85.613H47.9726L46.7821 89.3667H45.0936L43.1864 83.4143ZM54.48 82.5518C54.3423 82.5518 54.2087 82.5275 54.0791 82.4789C53.9577 82.4222 53.8483 82.3493 53.7512 82.2603C53.6621 82.1631 53.5892 82.0537 53.5325 81.9323C53.4839 81.8108 53.4596 81.6772 53.4596 81.5314C53.4596 81.3856 53.4839 81.252 53.5325 81.1305C53.5892 81.009 53.6621 80.9038 53.7512 80.8147C53.8483 80.7175 53.9577 80.6446 54.0791 80.596C54.2087 80.5393 54.3423 80.511 54.48 80.511C54.7635 80.511 55.0064 80.6122 55.2089 80.8147C55.4114 81.009 55.5126 81.2479 55.5126 81.5314C55.5126 81.8148 55.4114 82.0578 55.2089 82.2603C55.0064 82.4546 54.7635 82.5518 54.48 82.5518ZM53.6904 89.3667V83.4143H55.2818V89.3667H53.6904ZM61.1116 88.65H61.0144C60.8686 88.901 60.6418 89.1156 60.3341 89.2938C60.0264 89.472 59.6457 89.5611 59.1922 89.5611C58.8116 89.5611 58.4472 89.4841 58.0989 89.3303C57.7588 89.1683 57.4551 88.9496 57.1878 88.6743C56.9287 88.3908 56.7222 88.0547 56.5683 87.666C56.4144 87.2773 56.3375 86.8521 56.3375 86.3905C56.3375 85.9289 56.4144 85.5037 56.5683 85.115C56.7222 84.7263 56.9287 84.3942 57.1878 84.1189C57.4551 83.8354 57.7588 83.6168 58.0989 83.4629C58.4472 83.3009 58.8116 83.2199 59.1922 83.2199C59.6457 83.2199 60.0264 83.309 60.3341 83.4872C60.6418 83.6653 60.8686 83.88 61.0144 84.131H61.1116L61.0144 83.2807V80.6689H62.6057V89.3667H61.1116V88.65ZM59.5202 88.0912C59.7308 88.0912 59.9292 88.0547 60.1154 87.9819C60.3098 87.9009 60.4799 87.7875 60.6257 87.6417C60.7714 87.4959 60.8889 87.3178 60.9779 87.1072C61.067 86.8967 61.1116 86.6577 61.1116 86.3905C61.1116 86.1232 61.067 85.8843 60.9779 85.6738C60.8889 85.4632 60.7714 85.2851 60.6257 85.1393C60.4799 84.9935 60.3098 84.8842 60.1154 84.8113C59.9292 84.7303 59.7308 84.6898 59.5202 84.6898C59.3096 84.6898 59.1072 84.7303 58.9128 84.8113C58.7265 84.8923 58.5605 85.0057 58.4148 85.1514C58.269 85.2972 58.1516 85.4754 58.0625 85.6859C57.9734 85.8965 57.9288 86.1313 57.9288 86.3905C57.9288 86.6496 57.9734 86.8845 58.0625 87.0951C58.1516 87.3056 58.269 87.4838 58.4148 87.6296C58.5605 87.7753 58.7265 87.8887 58.9128 87.9697C59.1072 88.0507 59.3096 88.0912 59.5202 88.0912ZM69.5388 87.9333C69.2634 88.4192 68.8909 88.812 68.4212 89.1116C67.9596 89.4112 67.3927 89.5611 66.7205 89.5611C66.267 89.5611 65.8459 89.4841 65.4571 89.3303C65.0765 89.1683 64.7445 88.9456 64.461 88.6621C64.1776 88.3787 63.9549 88.0466 63.7929 87.666C63.639 87.2773 63.5621 86.8521 63.5621 86.3905C63.5621 85.9613 63.639 85.5564 63.7929 85.1757C63.9468 84.787 64.1614 84.4509 64.4367 84.1675C64.7121 83.8759 65.036 83.6451 65.4085 83.475C65.7892 83.305 66.2063 83.2199 66.6598 83.2199C67.1376 83.2199 67.5628 83.3009 67.9353 83.4629C68.3078 83.6168 68.6196 83.8354 68.8707 84.1189C69.1217 84.3942 69.312 84.7222 69.4416 85.1028C69.5712 85.4835 69.636 85.8965 69.636 86.3419C69.636 86.3986 69.636 86.4472 69.636 86.4877C69.6279 86.5363 69.6238 86.5808 69.6238 86.6213C69.6157 86.6618 69.6117 86.7063 69.6117 86.7549H65.1291C65.1615 86.9979 65.2263 87.2084 65.3235 87.3866C65.4288 87.5567 65.5543 87.7025 65.7001 87.8239C65.854 87.9373 66.02 88.0223 66.1982 88.079C66.3763 88.1276 66.5585 88.1519 66.7448 88.1519C67.1092 88.1519 67.4089 88.0709 67.6437 87.909C67.8867 87.7389 68.077 87.5283 68.2147 87.2773L69.5388 87.9333ZM68.0932 85.6252C68.0851 85.5199 68.0487 85.4025 67.9839 85.2729C67.9272 85.1433 67.8381 85.0218 67.7166 84.9085C67.6032 84.7951 67.4575 84.702 67.2793 84.6291C67.1092 84.5562 66.9027 84.5197 66.6598 84.5197C66.3196 84.5197 66.02 84.6169 65.7608 84.8113C65.5017 85.0057 65.3195 85.277 65.2142 85.6252H68.0932ZM73.3215 83.4143H74.8157V84.1918H74.9128C75.0991 83.9002 75.3502 83.6653 75.666 83.4872C75.9899 83.309 76.3463 83.2199 76.735 83.2199C77.1885 83.2199 77.5692 83.3252 77.8769 83.5358C78.1846 83.7463 78.4033 84.0055 78.5329 84.3132C78.7191 84.0136 78.9823 83.7585 79.3225 83.5479C79.6626 83.3293 80.0756 83.2199 80.5616 83.2199C80.926 83.2199 81.2418 83.2807 81.5091 83.4021C81.7763 83.5155 81.995 83.6775 82.1651 83.8881C82.3432 84.0986 82.4769 84.3537 82.5659 84.6534C82.655 84.9449 82.6996 85.2648 82.6996 85.613V89.3667H81.1082V85.9046C81.1082 85.0947 80.7762 84.6898 80.1121 84.6898C79.9015 84.6898 79.7153 84.7384 79.5533 84.8356C79.3913 84.9247 79.2536 85.0502 79.1403 85.2122C79.035 85.366 78.95 85.5523 78.8852 85.771C78.8285 85.9896 78.8001 86.2245 78.8001 86.4755V89.3667H77.2088V85.9046C77.2088 85.0947 76.8605 84.6898 76.1641 84.6898C75.9616 84.6898 75.7834 84.7384 75.6296 84.8356C75.4757 84.9247 75.3461 85.0502 75.2408 85.2122C75.1356 85.366 75.0546 85.5523 74.9979 85.771C74.9412 85.9896 74.9128 86.2245 74.9128 86.4755V89.3667H73.3215V83.4143ZM88.1282 88.5892H88.031C87.8447 88.8889 87.5937 89.1278 87.2778 89.306C86.962 89.476 86.6016 89.5611 86.1967 89.5611C85.4435 89.5611 84.8807 89.3303 84.5082 88.8686C84.1437 88.407 83.9615 87.7915 83.9615 87.0222V83.4143H85.5529V86.8278C85.5529 87.257 85.646 87.5769 85.8323 87.7875C86.0266 87.99 86.306 88.0912 86.6705 88.0912C86.8891 88.0912 87.0794 88.0466 87.2414 87.9576C87.4115 87.8604 87.5532 87.7348 87.6666 87.581C87.788 87.419 87.8771 87.2327 87.9338 87.0222C87.9986 86.8035 88.031 86.5727 88.031 86.3298V83.4143H89.6224V89.3667H88.1282V88.5892ZM93.2829 89.5611C92.8942 89.5611 92.546 89.5125 92.2382 89.4153C91.9386 89.3181 91.6754 89.1926 91.4486 89.0387C91.2299 88.8767 91.0437 88.6945 90.8898 88.4921C90.7359 88.2815 90.6185 88.0709 90.5375 87.8604L91.9588 87.253C92.0965 87.5607 92.2787 87.7915 92.5055 87.9454C92.7403 88.0912 92.9995 88.1641 93.2829 88.1641C93.5745 88.1641 93.8053 88.1114 93.9753 88.0061C94.1454 87.9009 94.2304 87.7753 94.2304 87.6296C94.2304 87.4676 94.1576 87.338 94.0118 87.2408C93.8741 87.1356 93.6312 87.0424 93.2829 86.9614L92.4447 86.7792C92.2585 86.7387 92.0641 86.6739 91.8616 86.5849C91.6673 86.4958 91.4891 86.3824 91.3271 86.2447C91.1652 86.107 91.0315 85.941 90.9263 85.7467C90.821 85.5523 90.7683 85.3255 90.7683 85.0664C90.7683 84.7748 90.8291 84.5157 90.9505 84.2889C91.0801 84.0622 91.2542 83.8719 91.4729 83.718C91.6916 83.556 91.9467 83.4345 92.2382 83.3536C92.5379 83.2645 92.8577 83.2199 93.1979 83.2199C93.7648 83.2199 94.2709 83.3333 94.7164 83.5601C95.1618 83.7787 95.4898 84.131 95.7003 84.6169L94.3276 85.1757C94.2142 84.9409 94.0482 84.7708 93.8296 84.6655C93.6109 84.5602 93.3922 84.5076 93.1736 84.5076C92.9468 84.5076 92.7484 84.5562 92.5783 84.6534C92.4083 84.7425 92.3232 84.8599 92.3232 85.0057C92.3232 85.1433 92.3921 85.2527 92.5298 85.3336C92.6755 85.4146 92.8699 85.4875 93.1129 85.5523L94.0239 85.771C94.6313 85.9167 95.0808 86.1516 95.3723 86.4755C95.672 86.7914 95.8218 87.168 95.8218 87.6053C95.8218 87.8644 95.7611 88.1114 95.6396 88.3463C95.5181 88.5811 95.344 88.7917 95.1172 88.978C94.8986 89.1561 94.6313 89.2979 94.3155 89.4031C94.0077 89.5084 93.6635 89.5611 93.2829 89.5611ZM97.6259 82.5518C97.4883 82.5518 97.3546 82.5275 97.2251 82.4789C97.1036 82.4222 96.9942 82.3493 96.8971 82.2603C96.808 82.1631 96.7351 82.0537 96.6784 81.9323C96.6298 81.8108 96.6055 81.6772 96.6055 81.5314C96.6055 81.3856 96.6298 81.252 96.6784 81.1305C96.7351 81.009 96.808 80.9038 96.8971 80.8147C96.9942 80.7175 97.1036 80.6446 97.2251 80.596C97.3546 80.5393 97.4883 80.511 97.6259 80.511C97.9094 80.511 98.1523 80.6122 98.3548 80.8147C98.5573 81.009 98.6585 81.2479 98.6585 81.5314C98.6585 81.8148 98.5573 82.0578 98.3548 82.2603C98.1523 82.4546 97.9094 82.5518 97.6259 82.5518ZM96.8363 89.3667V83.4143H98.4277V89.3667H96.8363ZM105.472 87.8482C105.213 88.3503 104.849 88.7634 104.379 89.0873C103.917 89.4031 103.338 89.5611 102.642 89.5611C102.18 89.5611 101.755 89.4841 101.366 89.3303C100.986 89.1683 100.654 88.9456 100.37 88.6621C100.095 88.3787 99.8762 88.0466 99.7142 87.666C99.5603 87.2773 99.4834 86.8521 99.4834 86.3905C99.4834 85.9289 99.5603 85.5037 99.7142 85.115C99.8762 84.7263 100.095 84.3942 100.37 84.1189C100.654 83.8354 100.986 83.6168 101.366 83.4629C101.755 83.3009 102.18 83.2199 102.642 83.2199C103.33 83.2199 103.909 83.3779 104.379 83.6937C104.849 84.0095 105.193 84.4185 105.412 84.9206L103.954 85.528C103.816 85.2527 103.638 85.0461 103.419 84.9085C103.209 84.7627 102.941 84.6898 102.618 84.6898C102.407 84.6898 102.209 84.7303 102.022 84.8113C101.836 84.8923 101.67 85.0057 101.524 85.1514C101.387 85.2972 101.277 85.4754 101.196 85.6859C101.115 85.8965 101.075 86.1313 101.075 86.3905C101.075 86.6496 101.115 86.8845 101.196 87.0951C101.277 87.3056 101.387 87.4838 101.524 87.6296C101.67 87.7753 101.836 87.8887 102.022 87.9697C102.209 88.0507 102.407 88.0912 102.618 88.0912C102.95 88.0912 103.229 88.0183 103.456 87.8725C103.691 87.7187 103.877 87.5 104.015 87.2165L105.472 87.8482Z" fill="white"/>
</svg>
