<svg width="105" height="105" viewBox="0 0 105 105" fill="none" xmlns="http://www.w3.org/2000/svg">
<path fill-rule="evenodd" clip-rule="evenodd" d="M10 0C4.47715 0 0 4.47715 0 10V95C0 100.523 4.47715 105 10 105H95C100.523 105 105 100.523 105 95V10C105 4.47715 100.523 0 95 0H10ZM32 39.3093L11 16V64.6906L32 88L53 64.6906L74 88L95 64.6906V16L74 39.3093L53 16L32 39.3093ZM68.5884 45.5654C69.064 46.7806 71.87 49.8262 73 50.0078V50C75.48 50.3737 78.2637 44.7243 80.2603 40.6725C81.3565 38.4477 82.2155 36.7046 82.6565 36.7046C84.2722 36.7046 85.1978 49.7731 81.9966 44.5306C81.098 43.0596 78.7413 51.201 78.7413 55.3051C78.7413 58.3876 74.8285 62.1079 73 63C72.8148 62.9765 71.7619 61.3174 70.6614 59.5836C69.4235 57.6331 68.1255 55.5879 67.935 55.6697C67.2819 55.9498 66.6655 55.8399 66.1139 55.7415C65.5033 55.6327 64.9722 55.538 64.5587 56.0023C63.9857 56.6457 62.7802 52.7483 61.8632 49.7839L61.8632 49.7838C61.5208 48.6769 61.2186 47.7 61.0046 47.1382C60.2176 45.072 56.6435 42.5915 56.8287 44.66C57.5029 52.2006 56.0236 50.3396 54.7545 48.743C54.3501 48.2342 53.967 47.7523 53.6818 47.61C53.4082 47.473 53.1578 47.7948 53 48.3806V49.8174C52.8592 50.7643 52.7403 51.9037 52.6312 52.9501L52.6311 52.9502C52.4812 54.3876 52.3496 55.6494 52.2045 55.9956C48.7696 64.1888 42.6039 73.3884 39.6859 73.98C38.1349 74.2945 39.5177 70.8437 40.8409 67.5415C42.0071 64.6313 43.127 61.8365 42.1516 61.8365C40.0708 61.8365 39.9446 59.4191 39.731 55.3272L39.7305 55.3177C39.6163 53.1293 42.7651 50.4302 45.7242 47.8938L45.7242 47.8938C48.3057 45.681 50.7427 43.5921 50.7427 42.0739C50.7427 39.9514 47.9532 42.8876 45.6081 45.3559C44.3533 46.6767 43.2257 47.8636 42.7209 48.0698C41.2725 48.6614 42.5359 44.9131 43.1599 44.3214C43.3744 44.118 43.3017 43.7162 43.2156 43.2403C43.0514 42.3327 42.8383 41.1556 44.4779 40.572C46.9769 39.6823 48.5824 33.8513 48.1668 32.0742C47.7513 30.2972 44.9592 35.7855 44.1258 38.4478C43.2924 41.1101 42.9849 37.0735 42.9849 37.0735C42.9849 37.0735 45.0539 28.4175 47.5529 27.8259C48.4337 27.6163 49.5197 26.6979 50.6015 25.783L50.6015 25.783C51.4356 25.0777 52.2671 24.3745 53 24C53.868 23.4924 54.6413 22.3853 55.0496 21.3559C56.23 18.407 64.2841 34.4275 68.5884 45.5654ZM32.1964 54.4367C31.8119 53.4031 31.9383 48.2804 32.1964 47.6648C32.3633 47.2667 32.7074 47.4472 33.1002 47.6534C33.3148 47.766 33.544 47.8863 33.7668 47.924C36.5522 48.3928 34.1351 59.6447 32.1964 54.4367ZM18.585 38.7952C18.9181 38.2156 19.1956 37.7327 19.1956 37.4145C17.6296 36.4403 16.0073 31.3317 16.0073 29.7818C16.0073 29.1639 17.1073 30.8637 18.5833 33.1446L18.5833 33.1446C20.8093 36.5845 23.8905 41.3458 25.3432 41.4712C25.6524 41.4978 25.8647 41.5109 25.9974 41.5191L25.9976 41.5191L25.9978 41.5191L25.9979 41.5191C26.1204 41.5267 26.175 41.5301 26.1753 41.5361C26.1756 41.541 26.1408 41.5476 26.078 41.5594C25.6434 41.6416 23.8683 41.9773 23.1151 43.749C21.9713 46.4394 26.3855 45.9339 26.4535 43.8667C26.5216 41.7995 29.3092 48.6837 29.4377 49.9149C29.6555 52.0106 28.9002 51.269 28.0364 50.4207C27.1266 49.5272 26.0963 48.5155 25.9556 50.5759C25.945 50.7316 25.6128 50.7774 25.2305 50.83C24.602 50.9167 23.8383 51.0219 24.1465 51.6646C24.3047 51.9944 23.5396 51.6443 22.5624 51.1973C20.4765 50.243 17.4243 48.8466 20.3221 52.6755C20.6209 53.0701 21.8679 53.7374 23.2817 54.4939C24.9908 55.4085 26.9436 56.4534 27.7593 57.3046C28.3812 57.9536 27.8604 58.6132 27.0827 59.5982C25.9967 60.9737 24.4098 62.9837 24.7352 66.485C24.8432 67.7227 28.3134 72.3702 28.3134 72.3702C28.3134 72.3702 24.5202 68.6613 23.6692 67.1352C23.3922 66.6372 22.5531 65.4227 21.5296 63.9413L21.5294 63.9411C19.3078 60.7256 16.2172 56.2525 16.1196 55.1175C16.0261 54.0298 19.2504 55.2807 21.4992 56.1531L21.4992 56.1532L21.4994 56.1532L21.4994 56.1532C22.678 56.6105 23.5885 56.9637 23.613 56.8218C23.6386 56.6738 22.9778 56.1173 22.1012 55.379C20.5353 54.0603 18.2809 52.1617 18.0205 50.9756C17.1361 46.9473 19.6959 48.7869 21.2048 49.8712C21.7947 50.2952 22.2241 50.6038 22.2241 50.401C22.2241 50.1133 21.4914 49.0222 20.6009 47.6961C19.2581 45.6964 17.5565 43.1625 17.4675 42.0436C17.3765 40.8983 18.052 39.7228 18.585 38.7952ZM71.1438 69.817C71.2507 71.5267 72.4971 73.2343 73.022 73.2732C73.1905 73.285 73.2845 73.1263 73.238 72.7439C73.1985 72.3987 73.1262 72.058 73.022 71.7265C72.8814 71.27 72.6967 70.814 72.5178 70.3725L72.5177 70.3722L72.5177 70.372C72.1995 69.5865 71.8999 68.8468 71.8999 68.2315C71.8999 67.0089 70.9764 67.1342 71.1438 69.817ZM73.5433 74.8555V85.2703C71.4469 83.93 69.7631 78.7339 70.8259 75.8145C71.1903 74.8081 71.6725 74.9302 72.2068 75.0655C72.6306 75.1727 73.087 75.2883 73.5433 74.8555ZM81.9352 52.3022C81.9352 52.3022 80.5311 58.3958 81.6555 57.9897C81.6555 57.9897 81.946 55.3371 82.4029 54.1566C82.5262 53.8378 82.709 53.4707 82.897 53.093C83.4054 52.0717 83.9525 50.9727 83.4699 50.5406C82.809 49.9487 81.6198 51.0331 81.9352 52.3022ZM77.7507 77.8339C78.5914 76.1008 79.2405 74.7626 79.4819 74.7626C80.5944 74.7626 86.4979 69.5763 84.4944 65.3749C83.0265 62.2967 80.671 64.695 78.9231 66.4746C78.2853 67.124 77.7284 67.691 77.3251 67.8795C76.6239 68.2073 76.3008 69.1734 75.9057 70.3549C75.4505 71.716 74.8998 73.3629 73.5654 74.6492V84.968C74.9266 83.6559 76.538 80.334 77.7507 77.8339Z" fill="#6D6B79"/>
</svg>
