<svg width="1441" height="900" viewBox="0 0 1441 900" fill="none" xmlns="http://www.w3.org/2000/svg">
<rect width="1440" height="900" transform="translate(0.810547)" fill="#2C293E"/>
<g clip-path="url(#clip0)">
<path d="M862.452 512.834H549.256C549.176 512.834 549.095 512.753 549.095 512.672V310.979C549.095 310.898 549.176 310.818 549.256 310.818H862.452C862.532 310.818 862.613 310.898 862.613 310.979V512.672C862.613 512.753 862.532 512.834 862.452 512.834Z" fill="#AC92C3"/>
<path d="M549.095 512.834L533.46 495.825V293.809L549.095 310.818V512.834Z" fill="#877499"/>
<path d="M862.613 310.818L846.01 293.163L533.46 293.808L550.062 311.543L862.613 310.818Z" fill="#927CA5"/>
<path d="M720.523 273.413C720.523 273.413 737.448 280.668 740.753 278.653C744.057 276.637 722.135 266.319 720.523 273.413Z" fill="#46235E"/>
<path d="M758.322 227.947C758.322 227.947 736.481 233.187 734.788 236.976C733.177 240.765 719.959 271.64 720.523 273.332C721.732 271.559 739.141 273.332 741.8 274.139C741.881 277.847 741.559 290.18 741.559 290.18L796.847 290.987L806.035 251.083C806.035 251.083 805.31 242.296 815.868 242.619C816.835 242.538 815.948 241.248 811.113 236.25C806.358 231.333 802.731 227.141 800.232 227.141C797.734 227.141 782.582 224.723 780.325 225.771C778.068 226.819 762.916 232.462 758.322 227.947Z" fill="#6A3189"/>
<path d="M777.182 225.851C777.182 225.851 782.743 227.786 784.758 225.368C785.967 223.917 788.788 218.677 789.594 211.502C790.48 203.602 791.689 193.364 787.095 191.994C780.083 189.979 760.982 192.075 756.146 201.506C755.099 203.602 758 206.907 758.242 209.568C759.37 224.642 754.373 232.139 754.373 232.139C754.373 232.139 752.197 251.244 768.961 250.761C785.725 250.277 789.352 237.943 784.597 236.25C779.922 234.558 777.182 234.074 777.182 225.851Z" fill="#FAD2C6"/>
<path d="M782.421 273.252C782.34 275.348 779.6 280.265 779.358 281.797C779.116 283.328 777.101 283.167 777.101 283.167L777.907 271.478C777.907 271.478 776.94 275.106 777.101 279.62C777.101 280.265 777.021 280.749 776.859 281.071C775.892 283.49 771.943 281.797 770.331 282.361C768.477 283.006 765.495 269.624 764.77 269.302C764.045 268.979 750.988 286.15 749.134 291.47C747.281 296.791 728.663 300.66 725.681 297.033C722.699 293.324 726.729 272.607 726.729 272.607C726.729 272.607 730.678 272.607 735.111 273.171C738.576 273.574 741.72 274.138 741.72 274.138V275.106C741.72 275.106 758 263.739 760.095 261.724C762.191 259.709 768.719 260.434 770.815 260.757C772.91 261.079 778.794 263.175 780.244 264.465C781.212 265.271 781.695 267.045 781.937 269.302L782.421 273.252Z" fill="#FAD2C6"/>
<path d="M818.608 297.839H749.215C749.135 297.839 749.054 297.758 749.054 297.678V281.877C749.054 281.797 749.135 281.716 749.215 281.716H818.608C818.689 281.716 818.769 281.797 818.769 281.877V297.678C818.769 297.758 818.689 297.839 818.608 297.839Z" fill="#C2C1C1"/>
<path d="M749.135 297.839L745.669 296.468V280.426L749.135 281.797V297.839Z" fill="#999999"/>
<path d="M818.769 281.797L815.062 280.346L745.669 280.426L749.296 281.877L818.769 281.797Z" fill="#A5A4A4"/>
<path d="M756.791 281.313C756.791 281.313 756.872 277.444 757.355 277.444C757.839 277.444 760.821 277.041 760.821 277.766C760.821 278.492 760.821 281.313 760.821 281.313H756.791Z" fill="#331219"/>
<path d="M770.895 281.394C770.895 281.394 770.976 277.524 771.459 277.524C771.943 277.524 774.925 277.121 774.925 277.847C774.925 278.572 774.925 281.394 774.925 281.394H770.895Z" fill="#331219"/>
<path d="M780.728 281.394C780.728 281.394 780.809 277.524 781.292 277.524C781.776 277.524 784.758 277.121 784.758 277.847C784.758 278.572 784.758 281.394 784.758 281.394H780.728Z" fill="#331219"/>
<path d="M790.641 281.313C790.641 281.313 790.722 277.444 791.205 277.444C791.689 277.444 794.671 277.041 794.671 277.766C794.671 278.492 794.671 281.313 794.671 281.313H790.641Z" fill="#331219"/>
<path d="M800.071 281.313C800.071 281.313 800.152 277.444 800.635 277.444C801.119 277.444 804.101 277.041 804.101 277.766C804.101 278.492 804.101 281.313 804.101 281.313H800.071Z" fill="#331219"/>
<path d="M810.226 281.313C810.226 281.313 810.307 277.444 810.79 277.444C811.274 277.444 814.256 277.041 814.256 277.766C814.256 278.492 814.256 281.313 814.256 281.313H810.226Z" fill="#331219"/>
<path d="M764.609 281.071C764.609 281.071 764.69 278.008 765.012 278.008C765.334 278.008 767.672 277.686 767.672 278.25C767.672 278.814 767.672 281.071 767.672 281.071H764.609Z" fill="#2C0D13"/>
<path d="M749.134 281.071C749.134 281.071 749.215 278.008 749.537 278.008C749.86 278.008 752.197 277.686 752.197 278.25C752.197 278.814 752.197 281.071 752.197 281.071H749.134Z" fill="#2C0D13"/>
<path d="M776.295 280.991C776.295 280.991 776.376 277.927 776.698 277.927C777.021 277.927 779.358 277.605 779.358 278.169C779.358 278.733 779.358 280.991 779.358 280.991H776.295Z" fill="#2C0D13"/>
<path d="M786.934 280.91C786.934 280.91 787.015 277.847 787.337 277.847C787.659 277.847 789.997 277.524 789.997 278.089C789.997 278.653 789.997 280.91 789.997 280.91H786.934Z" fill="#2C0D13"/>
<path d="M797.572 280.91C797.572 280.91 797.653 277.847 797.975 277.847C798.298 277.847 800.635 277.524 800.635 278.089C800.635 278.653 800.635 280.91 800.635 280.91H797.572Z" fill="#2C0D13"/>
<path d="M808.292 280.829C808.292 280.829 808.373 277.766 808.695 277.766C809.017 277.766 811.355 277.444 811.355 278.008C811.355 278.572 811.355 280.829 811.355 280.829H808.292Z" fill="#2C0D13"/>
<path d="M815.868 242.699C815.868 242.699 824.33 249.793 825.056 250.277C825.781 250.761 830.375 259.225 828.924 260.434C823.041 264.787 809.662 263.498 805.068 261.724C803.859 261.24 802.892 270.35 802.892 270.833C802.892 271.317 798.862 275.751 797.653 276.073C796.444 276.396 797.17 281.716 795.477 281.797C793.785 281.877 791.205 281.474 790.48 279.459C789.755 277.444 784.838 269.947 785.403 268.496C785.967 267.045 786.45 264.787 786.611 263.336C786.692 261.885 791.125 252.776 793.946 252.776C796.767 252.776 805.793 250.761 805.793 250.761C805.793 250.761 806.196 241.974 815.868 242.699Z" fill="#FAD2C6"/>
<path d="M754.857 205.698C754.857 205.698 743.896 206.182 742.123 204.57L755.421 200.62L754.857 205.698Z" fill="#AA8BC0"/>
<path d="M760.982 211.663C760.982 211.663 764.528 216.339 761.949 217.387C759.37 218.435 756.63 217.387 756.63 217.387C756.952 218.032 757.758 218.516 757.758 218.516C757.758 218.516 756.227 219.483 755.501 218.112C754.776 216.742 753.084 205.94 753.487 201.667C753.889 197.395 768.074 193.042 768.074 193.042C768.074 193.042 776.134 199.733 765.737 205.94C765.173 206.262 766.865 204.408 766.704 203.118C766.624 201.829 764.931 204.328 764.045 204.408C763.964 203.925 764.689 203.28 764.609 202.474C764.448 201.748 763.561 203.441 762.997 203.441C762.433 203.441 760.337 199.652 759.048 199.894C757.758 200.136 753.487 201.587 760.982 211.663Z" fill="#0E0B13"/>
<path d="M790.803 197.314C790.803 197.314 761.063 198.685 753.97 202.393C746.878 206.101 741.317 204.973 741.317 204.489C741.317 204.086 752.923 200.781 752.923 200.781C753.326 200.055 752.52 192.558 753.487 189.817C754.454 187.076 756.227 178.37 766.06 178.37C767.994 178.37 767.672 177 768.316 177C768.961 177 768.881 177.806 770.17 177.806C771.379 177.806 791.77 175.468 790.803 197.314Z" fill="#6A3189"/>
<path d="M773.797 245.924C773.797 245.924 774.764 248.181 776.859 247.536C778.955 246.891 778.794 244.07 778.229 241.41C777.665 238.669 776.295 232.058 774.522 231.575C772.749 231.091 771.218 231.575 770.815 232.381C770.331 233.187 773.797 245.924 773.797 245.924Z" fill="#3F235B"/>
<path d="M757.597 220.37L757.033 224.239C757.033 224.239 755.743 230.769 757.355 232.462C761.224 236.573 766.543 236.492 766.543 236.492C766.543 236.492 767.833 231.333 771.782 231.575C772.507 231.655 779.439 244.473 775.006 247.214C770.573 249.874 767.349 239.152 767.349 239.152C767.349 239.152 760.418 237.218 759.531 236.734C758.645 236.25 756.791 234.396 756.791 234.396C756.791 234.396 754.857 232.22 754.696 229.882C754.454 227.383 756.146 221.015 757.597 220.37Z" fill="#221332"/>
<path d="M785.967 241.651C785.967 241.651 786.047 243.989 784.032 244.392C781.937 244.795 780.809 242.538 780.083 239.959C779.439 237.46 777.665 231.414 779.036 230.124C780.406 228.915 781.937 228.512 782.662 228.995C783.388 229.479 785.967 241.651 785.967 241.651Z" fill="#3F235B"/>
<path d="M784.355 244.473C784.274 244.473 784.194 244.473 784.113 244.392C779.6 243.344 780.164 230.849 780.809 229.076C780.809 228.995 780.889 228.915 780.889 228.834C784.436 226.98 785.967 230.446 785.967 230.446V225.529L784.919 224.965L786.289 222.707C787.256 224.158 787.337 225.609 787.982 226.98C788.385 227.947 788.062 233.993 788.062 233.993C788.062 233.993 789.513 245.118 784.355 244.473Z" fill="#221332"/>
</g>
<path d="M497.776 204.717C497.776 204.717 481.314 214.028 485.199 244.827C487.04 259.254 502.888 247.897 502.888 247.897C502.888 247.897 506.774 252.501 502.888 261.301C499.003 270.1 527.836 243.804 527.836 243.804C527.836 243.804 528.143 238.176 529.166 230.195C530.188 222.214 520.168 185.686 497.776 204.717Z" fill="#927255"/>
<path d="M500.741 204.922C502.684 206.457 500.946 216.791 509.534 216.177C518.123 215.666 519.759 214.029 519.35 220.27C518.941 226.512 528.655 240.53 533.46 229.991C538.266 219.452 538.266 202.057 525.792 197.76C513.318 193.462 491.744 200.215 490.926 209.322C490.517 213.108 497.878 202.773 500.741 204.922Z" fill="#141A17"/>
<path d="M503.706 215.563C503.706 215.563 505.546 217.2 506.875 216.893C504.933 222.112 503.604 228.046 507.693 233.879C510.556 238.074 505.035 250.864 493.174 252.092C487.142 252.706 482.643 250.045 485.813 243.804C487.858 239.711 489.187 239.302 489.085 238.381C488.982 237.46 484.688 235.004 484.688 235.004C484.688 235.004 483.768 231.014 490.516 235.925C497.264 240.836 503.706 215.563 503.706 215.563Z" fill="#141A17"/>
<path d="M496.548 394.317C496.548 394.317 507.182 467.681 513.726 478.527C520.27 489.373 551.046 567.239 555.136 568.672C559.226 570.002 581.924 577.778 583.765 571.946C585.503 566.114 550.432 470.444 544.707 462.36C538.981 454.379 549.819 389.918 549.819 389.918C549.819 389.918 551.353 372.216 543.071 367.612C534.789 363.007 493.992 363.417 496.548 394.317Z" fill="#162F34"/>
<path d="M480.496 374.263C480.496 374.263 492.357 459.393 496.549 476.788C500.23 492.136 519.043 539.203 514.135 557.416C512.806 562.123 526.405 568.262 531.006 563.351C535.505 558.44 522.519 473.513 522.519 473.513L516.691 355.333C516.487 355.436 484.586 354.617 480.496 374.263Z" fill="#162F34"/>
<path d="M587.957 300.489C587.957 300.489 592.865 296.806 590.718 292.304C588.571 287.802 563.418 257.31 562.191 254.547C560.964 251.785 529.165 242.474 529.165 242.474C529.165 242.474 501.661 266.212 502.581 262.733C502.888 261.3 503.501 258.129 503.501 258.129C503.501 258.129 483.768 268.156 481.314 271.533C478.758 274.909 453.503 291.383 453.503 291.383C453.503 291.383 464.443 304.582 464.443 307.754C464.443 310.824 460.967 311.642 460.967 311.642C460.967 311.642 463.932 312.665 465.466 311.642C466.999 310.619 478.451 304.684 478.451 304.684C478.451 304.684 479.269 360.347 479.064 365.565C478.86 370.783 475.486 384.494 477.531 382.653C479.576 380.811 495.935 375.388 519.963 377.741C543.991 380.095 548.695 387.462 550.228 381.834C551.762 376.206 552.375 368.43 551.046 365.36C549.717 362.291 551.251 360.551 552.069 356.663C552.887 352.775 551.864 351.445 551.864 346.533C551.864 341.622 550.126 335.278 550.126 333.027C550.126 330.776 551.353 326.069 551.353 322.079C551.353 318.088 555.136 306.322 555.136 306.322L556.67 308.982C556.568 308.777 578.346 291.28 587.957 300.489Z" fill="#FFEB84"/>
<path d="M558.306 307.549C558.306 307.549 569.246 317.884 568.837 320.135C567.712 327.195 578.448 368.021 576.097 374.16C573.643 380.402 561.169 391.248 560.862 406.289C560.657 415.702 566.077 402.912 566.077 402.912C566.077 402.912 561.987 416.828 563.827 418.976C565.668 421.125 585.094 413.042 587.037 406.903C588.98 400.661 591.025 377.537 591.332 370.988C591.638 364.44 595.012 331.799 591.332 318.088C587.651 304.377 588.06 300.592 588.06 300.592C588.06 300.592 581.925 291.28 558.306 307.549Z" fill="#927255"/>
<path d="M459.535 311.847C459.535 311.847 438.881 319.419 438.268 311.335C437.654 303.252 436.223 272.351 437.041 263.04C437.245 261.096 434.076 256.901 434.076 254.752C434.076 252.501 433.053 244.008 434.485 243.701C435.916 243.395 435.916 244.622 438.268 243.701C440.619 242.781 447.265 241.655 447.777 241.86C448.288 242.064 447.777 236.334 447.777 235.311C447.879 233.162 450.537 228.763 452.889 240.325C455.241 251.887 456.059 250.966 456.365 252.501C456.57 254.036 448.595 261.301 447.981 261.608C447.368 261.915 446.55 293.122 457.388 293.327C468.022 293.736 472.009 311.847 459.535 311.847Z" fill="#927255"/>
<path d="M463.523 246.771C461.171 249.636 446.55 252.194 446.55 252.194C446.55 252.194 422.931 259.561 422.317 259.356C421.806 259.152 414.342 262.221 414.342 262.221C412.502 262.938 411.172 259.97 412.604 259.254C413.32 258.947 420.681 256.594 421.193 254.752C421.397 253.831 427.532 251.375 433.564 249.124C433.667 250.045 433.871 250.864 434.587 250.761C436.223 250.352 449.004 251.375 448.799 249.943C448.697 249.124 449.106 245.85 448.799 243.292C452.378 241.655 458.41 239.199 460.558 239.199C464.239 239.302 465.874 243.804 463.523 246.771Z" fill="#162F34"/>
<path d="M555.136 568.569C555.136 568.569 591.843 582.587 582.743 565.602C580.902 562.225 593.478 585.452 593.478 590.159C593.478 594.865 590.207 598.037 584.992 602.539C579.675 606.939 573.54 617.274 563.52 617.478C553.5 617.785 536.527 619.525 535.096 612.771C533.664 606.018 532.13 602.232 536.527 597.526C541.026 592.819 555.136 573.276 555.136 568.569Z" fill="#EAEAEA"/>
<path d="M593.581 590.159C593.581 594.865 590.309 598.14 585.094 602.539C579.778 606.939 573.643 617.274 563.623 617.478C553.602 617.785 536.629 619.525 535.198 612.771C534.38 609.19 533.664 606.428 533.766 603.87C539.288 605.916 547.263 607.758 555.341 606.121C567.099 603.767 583.97 589.545 589.9 579.722C591.843 584.326 593.581 588.521 593.581 590.159Z" fill="#FAFAFA"/>
<path d="M514.135 559.258C514.135 559.258 508.716 568.467 504.83 568.467C500.945 568.467 488.266 565.704 486.733 572.866C485.199 580.131 491.129 585.963 501.865 586.168C512.601 586.373 534.686 586.475 536.425 584.633C538.163 582.792 532.744 563.146 531.721 560.076C531.619 559.769 532.641 566.932 523.439 564.374C516.589 562.43 514.135 559.258 514.135 559.258Z" fill="#EAEAEA"/>
<path d="M486.835 572.866C486.835 572.866 485.813 582.894 486.835 583.917C487.858 584.94 523.235 592.409 536.834 586.168C538.879 585.247 536.834 576.038 536.834 576.038C536.834 576.038 539.595 584.735 507.694 581.87C493.584 580.643 486.835 572.866 486.835 572.866Z" fill="#FAFAFA"/>
<g clip-path="url(#clip1)">
<path d="M627.621 225.841L623.815 305.064L698.094 300.39L661.015 221.904L627.621 225.841Z" fill="#D4817A"/>
<path d="M643.09 222.273C643.827 221.781 622.096 230.146 628.971 255.611C635.847 280.83 651.316 278.246 654.754 277.262C658.192 276.278 670.715 267.175 667.277 247.738C663.839 228.178 660.402 220.059 643.09 222.273Z" fill="#FAD2CC"/>
<path d="M643.213 276.278L642.354 284.643C642.354 284.643 657.087 299.529 668.996 281.568C668.996 281.568 665.558 279.231 664.699 267.421C656.718 281.199 643.213 276.278 643.213 276.278Z" fill="#F2C6C4"/>
<path d="M694.042 486.393C664.822 480.857 622.71 486.393 622.71 486.393V470.524H694.042C694.042 470.524 723.263 491.806 694.042 486.393Z" fill="#64B9CC"/>
<path d="M591.156 362.637C590.788 360.3 572.863 352.55 571.512 350.581C570.162 348.613 578.019 347.26 581.334 338.156C584.649 329.053 603.188 287.719 616.325 287.719C629.462 287.719 642.476 284.767 642.476 284.767C642.476 284.767 660.033 295.961 668.014 282.183C670.469 277.878 702.022 285.751 702.022 285.751C702.022 285.751 718.352 290.425 723.263 330.652C726.209 354.518 731.489 361.161 731.489 361.161C731.489 361.161 704.724 367.927 701.409 367.927C698.094 367.927 706.688 399.05 709.266 412.09C711.967 425.13 716.755 488.362 716.755 493.897C716.755 499.433 687.903 475.322 661.875 476.675C635.847 478.028 608.345 479.381 608.345 483.564C608.345 487.747 609.695 494.636 609.695 494.636C609.695 494.636 605.644 493.405 601.838 489.961C598.032 486.516 603.311 373.463 603.311 373.463L591.156 362.637Z" fill="#76C9DE"/>
<path d="M640.021 207.388C640.021 207.388 627.129 205.789 624.306 213.416C621.482 221.043 614.852 223.749 613.992 234.452C613.133 245.155 607.363 247.738 606.994 253.643C606.626 259.548 606.626 267.544 605.398 272.465C604.17 277.385 605.767 278.739 603.557 287.842C601.347 296.945 610.186 297.929 609.204 305.803C608.222 313.676 603.188 316.751 607.363 325.609C607.363 325.609 606.994 315.644 609.327 314.906C611.783 314.045 614.361 324.378 611.169 332.99C607.976 341.601 613.624 351.688 615.343 353.165C613.992 347.383 619.149 343.938 618.535 349.597C617.921 355.256 614.115 361.038 614.115 361.038C614.115 361.038 628.112 348.121 627.375 336.065C626.638 324.009 631.181 331.636 630.444 336.311C633.268 328.315 632.286 324.993 632.286 318.966C632.286 312.938 640.144 312.692 639.161 306.664C638.179 300.636 646.896 294.239 640.635 287.227C634.373 280.092 642.722 269.881 642.354 266.806C641.985 263.73 635.233 254.012 634.128 250.69C630.322 239.373 632.532 226.333 645.546 223.503C645.546 223.503 666.663 224.857 665.435 240.603C663.839 260.286 666.54 255.242 664.699 264.222C663.103 272.588 673.661 274.187 673.047 279.477C671.329 294.731 684.711 294.977 689.99 290.917C694.533 287.473 703.005 286.489 707.67 289.564C712.335 292.64 704.723 281.322 693.796 277.754C689.131 276.278 690.973 270.619 687.78 265.33C684.588 260.04 681.519 261.147 681.396 252.782C681.273 244.417 681.151 243.063 676.608 236.42C671.942 229.777 674.152 214.523 661.506 209.479C648.861 204.436 646.16 204.682 640.021 207.388Z" fill="#F39990"/>
<path d="M703.864 389.086C703.864 389.086 714.3 387.733 723.999 386.503C731.611 385.519 739.346 385.149 739.837 378.26C740.942 363.498 740.083 358.947 739.101 357.593C738.118 356.24 735.786 357.962 735.786 357.962C735.786 357.962 733.576 360.3 734.19 365.344C734.435 367.312 730.383 363.375 727.928 363.621C725.472 363.867 718.843 363.744 720.07 370.756C721.298 377.768 711.967 365.713 711.967 365.713C711.967 365.713 705.46 367.435 701.163 367.804C699.199 368.05 703.864 389.086 703.864 389.086Z" fill="#FAD2CC"/>
<path d="M698.462 411.967C695.147 399.789 674.644 410.737 674.03 399.789C673.293 388.963 685.202 354.641 677.099 350.827C668.996 347.014 657.946 344.061 642.845 362.514C627.744 380.967 600.733 363.744 593.489 372.971C586.246 382.197 565.988 392.777 588.701 434.972C611.414 477.167 628.971 466.095 646.405 446.289C663.84 426.484 666.295 426.114 686.676 424.761C702.759 423.9 698.462 411.967 698.462 411.967Z" fill="#EDF2D3"/>
<path d="M672.802 374.324C672.802 374.324 641.126 366.697 630.076 384.288C619.027 401.88 640.635 403.971 638.548 412.582C633.514 433.495 643.95 439.769 651.316 433.249C658.683 426.729 663.103 417.257 686.062 420.702C695.638 422.178 697.725 411.721 686.062 409.753C674.275 407.785 656.473 407.416 672.802 374.324Z" fill="#263F6B"/>
<path d="M824.798 321.918C822.342 324.132 817.431 321.918 812.643 328.192C807.855 334.466 790.543 330.16 783.177 334.097C780.599 335.45 762.06 345.415 739.223 357.593C739.223 357.593 739.223 357.593 739.223 357.47C738.241 356.117 735.908 357.839 735.908 357.839C735.908 357.839 735.295 358.455 734.803 359.931C732.593 361.161 730.384 362.268 728.051 363.498C725.964 363.744 721.053 363.621 720.193 367.681C718.72 368.419 717.247 369.28 715.896 370.018C711.108 372.602 706.442 375.062 701.777 377.645C670.224 394.622 641.494 409.876 641.494 409.876L635.11 392.531C635.11 392.531 780.108 321.426 781.458 320.811C782.809 320.196 782.809 317.12 783.668 315.767C784.527 314.414 822.097 306.664 826.639 310.354C831.059 314.168 827.13 319.827 824.798 321.918Z" fill="#DDDDDD"/>
<path d="M612.397 404.463L618.658 420.948C619.395 422.793 621.359 423.531 623.078 422.67L643.09 412.582C644.564 411.844 645.3 409.999 644.564 408.4L637.566 392.653C636.829 390.931 634.865 390.316 633.268 391.054L613.87 400.404C612.519 401.142 611.783 402.987 612.397 404.463Z" fill="#2B1D1E"/>
<path d="M791.403 314.537C791.403 314.537 791.157 309.247 791.894 309.493C792.631 309.739 793.859 309.616 793.736 311.708C793.613 313.799 793.122 315.398 791.403 314.537Z" fill="#EDF2D3"/>
<path d="M798.647 313.553C798.647 313.553 798.401 308.263 799.138 308.509C799.875 308.755 801.102 308.632 800.98 310.723C800.734 312.692 800.366 314.291 798.647 313.553Z" fill="#EDF2D3"/>
<path d="M804.908 312.569C804.908 312.569 804.663 307.279 805.399 307.525C806.136 307.771 807.364 307.648 807.241 309.739C806.996 311.831 806.627 313.43 804.908 312.569Z" fill="#EDF2D3"/>
<path d="M811.17 311.708C811.17 311.708 810.924 306.418 811.661 306.664C812.398 306.91 813.625 306.787 813.503 308.878C813.38 310.846 812.889 312.446 811.17 311.708Z" fill="#EDF2D3"/>
<path d="M575.564 353.903C575.564 353.903 563.778 376.169 569.671 380.598C575.564 385.026 630.813 394.007 630.813 394.007C630.813 394.007 647.633 407.416 651.194 406.555C654.754 405.693 664.085 396.344 661.875 392.654C659.665 388.963 656.105 386.38 656.105 386.38C656.105 386.38 663.594 389.086 664.822 382.32C662.243 382.689 662.243 384.903 656.105 382.443C649.966 380.106 649.352 380.229 642.845 381.951C636.583 383.55 575.564 353.903 575.564 353.903Z" fill="#FAD2CC"/>
<path d="M608.222 483.441C607.363 490.084 615.711 549.871 615.711 557.006C615.711 564.141 618.535 638.444 619.026 659.48C619.517 680.516 606.381 719.759 613.624 720.251C620.868 720.743 635.233 725.541 636.706 720.251C638.179 714.961 632.9 665.631 632.9 665.631C632.9 665.631 644.809 574.597 642.968 558.851C641.003 543.105 654.877 476.798 654.877 476.798C654.877 476.798 609.204 476.921 608.222 483.441Z" fill="#FAD2CC"/>
<path d="M666.295 477.044C666.295 477.044 684.097 518.87 685.079 526.62C686.062 534.37 712.09 633.523 719.088 653.452C726.086 673.381 725.595 707.949 727.805 711.271C730.015 714.469 756.412 714.592 756.412 707.949C756.412 701.306 737.75 658.127 737.75 658.127C737.75 658.127 733.453 599.693 721.175 553.438C717.492 539.291 715.282 522.315 715.159 494.759C715.159 494.759 696.62 485.286 689.377 482.58C676.976 477.782 666.295 477.044 666.295 477.044Z" fill="#FAD2CC"/>
<path d="M617.308 670.305C616.449 678.671 606.504 715.945 612.151 720.374C613.748 721.604 635.479 724.187 636.829 721.973C640.144 716.806 635.233 672.889 634.497 669.198C634.251 667.968 633.146 669.444 633.023 669.198C631.795 667.23 633.883 663.293 632.164 662.186C630.077 660.956 620.991 659.111 619.764 663.416C619.395 664.523 619.272 666.738 619.272 668.214C619.395 668.706 617.799 665.631 617.308 670.305Z" fill="#263F6B"/>
<path d="M617.553 697.985C616.448 698.108 615.711 699.092 615.834 700.322C615.957 701.552 616.939 702.413 617.921 702.29C619.026 702.167 619.763 701.183 619.64 699.953C619.517 698.723 618.535 697.862 617.553 697.985ZM617.799 701.183C617.307 701.183 616.816 700.814 616.694 700.199C616.694 699.584 617.062 699.092 617.553 698.969C618.044 698.969 618.535 699.338 618.658 699.953C618.781 700.568 618.29 701.183 617.799 701.183Z" fill="#EDF2D3"/>
<path d="M620.868 676.087C619.886 676.21 619.272 677.071 619.395 678.179C619.518 679.286 620.377 680.024 621.236 679.901C622.096 679.778 622.833 678.917 622.71 677.809C622.587 676.825 621.728 675.964 620.868 676.087ZM621.114 678.917C620.623 678.917 620.254 678.548 620.131 678.056C620.009 677.563 620.377 677.071 620.868 677.071C621.359 677.071 621.728 677.44 621.85 677.933C621.973 678.425 621.605 678.917 621.114 678.917Z" fill="#EDF2D3"/>
<path d="M631.549 688.881C630.567 689.004 629.953 689.865 630.076 690.972C630.199 692.08 631.058 692.818 631.918 692.695C632.9 692.572 633.514 691.71 633.391 690.603C633.391 689.496 632.532 688.758 631.549 688.881ZM631.918 691.711C631.427 691.711 631.058 691.341 630.935 690.849C630.813 690.357 631.181 689.865 631.672 689.865C632.163 689.865 632.532 690.234 632.654 690.726C632.777 691.218 632.286 691.711 631.918 691.711Z" fill="#EDF2D3"/>
<path d="M632.532 698.23C631.55 698.353 630.936 699.215 631.058 700.322C631.181 701.429 632.041 702.167 632.9 702.044C633.759 701.921 634.496 701.06 634.373 699.953C634.373 698.846 633.514 698.107 632.532 698.23ZM632.777 701.06C632.286 701.06 631.918 700.691 631.795 700.199C631.672 699.707 632.041 699.215 632.532 699.215C633.023 699.215 633.391 699.584 633.514 700.076C633.637 700.568 633.268 701.06 632.777 701.06Z" fill="#EDF2D3"/>
<path d="M618.904 688.635C617.799 688.758 617.062 689.619 617.185 690.726C617.308 691.833 618.167 692.572 619.272 692.449C620.377 692.326 621.114 691.464 620.991 690.357C620.868 689.373 620.009 688.635 618.904 688.635ZM619.149 691.587C618.658 691.587 618.167 691.341 618.167 690.849C618.167 690.357 618.535 689.988 619.026 689.988C619.517 689.988 620.009 690.234 620.009 690.726C620.131 691.095 619.763 691.464 619.149 691.587Z" fill="#EDF2D3"/>
<path d="M632.286 677.194C631.672 676.579 630.69 676.579 629.954 677.194C629.34 677.81 629.34 678.794 629.954 679.532C630.567 680.147 631.55 680.147 632.286 679.532C632.9 678.794 632.9 677.81 632.286 677.194ZM630.567 678.917C630.199 678.548 630.199 678.179 630.445 677.81C630.69 677.564 631.181 677.564 631.55 677.933C631.918 678.302 631.918 678.671 631.672 679.04C631.304 679.286 630.813 679.163 630.567 678.917Z" fill="#EDF2D3"/>
<path d="M610.432 710.655C609.327 710.04 610.064 719.513 611.537 720.251C613.379 721.235 625.411 723.941 636.829 722.588C637.688 722.465 638.671 712.132 638.057 712.378C632.9 714.592 615.22 713.485 610.432 710.655Z" fill="#EDF2D3"/>
<path d="M739.714 660.956C742.293 669.075 760.218 704.259 754.939 709.548C753.342 711.025 730.261 717.052 728.542 714.961C724.859 710.655 721.053 666.369 720.807 662.555C720.684 661.325 722.28 662.555 722.403 662.432C723.263 660.341 720.316 656.773 722.035 655.42C723.999 653.821 733.576 650.623 735.786 654.559C736.399 655.666 736.891 657.758 737.136 659.111C737.136 659.726 738.364 656.404 739.714 660.956Z" fill="#263F6B"/>
<path d="M744.871 688.266C745.976 688.143 747.081 689.127 747.204 690.358C747.327 691.588 746.467 692.572 745.362 692.695C744.257 692.818 743.152 691.834 743.029 690.604C742.907 689.373 743.766 688.266 744.871 688.266ZM745.239 691.465C745.853 691.465 746.222 690.973 746.222 690.358C746.222 689.743 745.608 689.25 745.117 689.373C744.503 689.373 744.134 689.866 744.134 690.481C744.134 691.096 744.626 691.465 745.239 691.465Z" fill="#EDF2D3"/>
<path d="M737.013 667.23C737.996 667.107 738.978 667.968 739.101 669.076C739.223 670.183 738.487 671.044 737.382 671.167C736.277 671.29 735.417 670.429 735.294 669.322C735.294 668.214 736.031 667.23 737.013 667.23ZM737.382 670.06C737.873 670.06 738.241 669.568 738.241 669.076C738.241 668.583 737.75 668.091 737.259 668.214C736.768 668.337 736.399 668.706 736.399 669.199C736.399 669.691 736.768 670.06 737.382 670.06Z" fill="#EDF2D3"/>
<path d="M727.805 681.5C728.787 681.377 729.77 682.238 729.892 683.345C730.015 684.452 729.279 685.314 728.174 685.437C727.069 685.56 726.209 684.698 726.086 683.591C726.086 682.484 726.823 681.5 727.805 681.5ZM728.174 684.329C728.665 684.329 729.033 683.837 729.033 683.345C729.033 682.853 728.542 682.361 728.051 682.484C727.56 682.607 727.191 682.976 727.191 683.468C727.191 683.96 727.56 684.452 728.174 684.329Z" fill="#EDF2D3"/>
<path d="M728.665 690.849C729.647 690.726 730.629 691.587 730.752 692.695C730.875 693.802 730.138 694.663 729.033 694.786C727.928 694.909 727.069 694.048 726.946 692.941C726.823 691.834 727.56 690.972 728.665 690.849ZM728.91 693.802C729.401 693.802 729.77 693.31 729.77 692.818C729.77 692.326 729.279 691.834 728.787 691.957C728.296 692.08 727.928 692.449 727.928 692.941C727.928 693.433 728.419 693.802 728.91 693.802Z" fill="#EDF2D3"/>
<path d="M741.556 679.286C742.661 679.163 743.766 680.024 743.889 681.008C744.012 682.115 743.152 682.976 741.925 683.099C740.697 683.222 739.715 682.361 739.592 681.377C739.592 680.27 740.451 679.409 741.556 679.286ZM741.802 682.238C742.416 682.238 742.784 681.869 742.784 681.377C742.784 680.885 742.293 680.639 741.679 680.639C741.065 680.639 740.697 681.008 740.697 681.5C740.697 681.869 741.188 682.238 741.802 682.238Z" fill="#EDF2D3"/>
<path d="M724.859 670.06C725.35 669.321 726.578 669.198 727.314 669.69C728.051 670.183 728.296 671.167 727.805 671.905C727.314 672.643 726.086 672.766 725.35 672.274C724.49 671.782 724.245 670.798 724.859 670.06ZM727.069 671.536C727.314 671.167 727.314 670.675 726.946 670.429C726.578 670.183 726.086 670.306 725.841 670.675C725.595 671.044 725.595 671.536 725.964 671.782C726.332 672.028 726.823 671.905 727.069 671.536Z" fill="#EDF2D3"/>
<path d="M755.061 700.322C755.921 699.461 757.517 711.64 755.921 712.624C753.956 713.731 740.574 716.56 727.928 715.699C727.069 715.699 724.981 705.366 725.841 705.612C731.611 707.457 750.028 705.366 755.061 700.322Z" fill="#EDF2D3"/>
</g>
<path d="M906.663 335.797C906.663 335.797 907.777 344.831 905.302 352.256C902.95 359.682 902.703 368.716 902.95 371.191C903.198 373.666 922.503 396.065 941.314 471.925C960.124 547.785 976.954 590.603 984.627 592.212C992.3 593.821 1006.41 603.474 996.26 612.508C991.062 617.086 987.844 609.29 986.236 614.488C984.627 619.685 989.825 619.933 974.974 620.923C960.124 621.913 960.743 618.695 960.743 618.695C960.743 618.695 966.188 627.358 951.214 627.11C936.24 626.739 898.619 638.619 874.982 625.873C860.751 618.2 862.112 624.264 855.058 624.264C848.004 624.264 852.212 620.428 841.198 620.428C830.184 620.428 794.172 622.655 785.138 620.057C776.104 617.458 775.857 615.601 768.679 613.993C761.625 612.384 766.451 601.37 766.451 601.37C766.451 601.37 774.867 604.959 777.094 603.35C779.322 601.741 777.713 597.286 782.292 595.925C786.871 594.564 826.1 451.506 830.555 439.502C835.01 427.498 854.563 381.586 854.563 375.398C854.563 369.211 846.767 295.702 846.767 295.702C846.767 295.702 851.841 292.237 855.182 291.37C861.122 289.638 907.282 322.061 906.663 335.797Z" fill="#C62F25"/>
<path d="M910.128 251.646C915.202 255.853 915.202 278.5 901.837 291.123C895.897 296.692 889.709 290.257 887.234 294.093C884.883 297.929 885.996 303.622 895.773 304.117C905.549 304.612 922.751 302.879 922.998 311.79C923.246 320.7 936.364 354.237 936.364 354.237C936.364 354.237 950.595 348.049 956.535 345.698C963.589 343.099 979.801 336.293 978.316 331.714C976.831 327.135 980.296 322.308 977.944 319.71C975.593 317.111 976.212 314.141 976.212 314.141C976.212 314.141 981.781 316.368 981.781 318.596C981.781 320.947 984.998 326.516 985.37 325.897C985.741 325.155 987.597 321.195 985.37 319.957C983.142 318.72 980.172 316.74 983.142 316.74C986.112 316.74 989.453 318.843 989.453 318.843C989.453 318.843 995.394 317.235 997.621 319.833C998.735 321.071 1002.94 326.392 1000.47 328.372C997.992 330.352 941.809 371.191 937.354 373.047C932.28 375.151 932.404 376.636 927.577 370.696C922.875 364.756 903.817 329.61 903.817 329.61C903.817 329.61 894.164 331.219 886.739 331.095C879.314 330.971 862.731 319.957 862.731 319.957C862.731 319.957 859.637 298.424 850.851 292.979C850.232 292.608 857.533 289.762 860.875 289.267C864.216 288.772 870.404 282.584 870.404 279.243C870.404 275.901 892.555 236.796 910.128 251.646Z" fill="#DB8D6D"/>
<path d="M1028.31 341.49C1027.2 343.965 1019.15 343.222 1018.04 341.49C1016.93 339.757 1006.65 332.085 1006.65 332.085L986.483 326.516L975.098 323.422L974.603 323.298C974.603 323.546 974.479 323.67 974.355 323.917C970.89 334.56 961.856 338.025 958.391 338.52C954.184 339.015 933.765 334.683 935.373 327.011C936.116 323.175 929.062 320.947 925.349 321.813C924.359 322.061 923.617 322.432 923.246 323.175C921.761 326.145 916.934 331.961 905.673 331.713C904.188 331.713 902.703 331.59 900.97 331.342C899.485 331.095 898.124 330.847 896.886 330.476C887.605 328.001 885.996 322.432 886.244 309.686C886.244 306.592 886.367 303.127 886.615 299.043C886.615 297.434 886.862 295.949 887.11 294.588C887.234 294.34 887.357 294.093 887.481 293.969C889.833 290.133 896.144 296.568 902.084 290.999C905.054 288.153 907.282 284.935 909.014 281.47C912.603 281.965 915.821 282.955 918.172 283.821C927.082 287.286 930.176 287.658 930.176 289.638C930.176 299.043 941.19 299.043 944.655 298.548C948.12 298.053 944.779 296.444 959.876 296.939C972.87 297.434 975.345 308.695 975.717 313.646C977.573 314.141 980.048 314.883 982.771 315.626C983.513 315.873 984.256 315.997 984.998 316.244C995.022 319.214 1007.77 323.051 1010.37 324.66C1014.7 327.382 1022.25 335.797 1022.62 333.817C1022.99 331.837 1024.23 332.085 1028.19 332.085C1032.27 332.332 1029.43 339.015 1028.31 341.49Z" fill="#7F3C26"/>
<path d="M1005.79 327.135L913.964 302.879L1005.79 327.135Z" fill="#AF7366"/>
<path d="M1005.67 326.392L914.212 300.899L1005.67 326.392Z" fill="#AF7366"/>
<path d="M1005.66 326.144L914.583 299.043L1005.66 326.144Z" fill="#AF7366"/>
<path d="M974.355 323.917C970.89 334.56 961.856 338.025 958.391 338.52C954.184 339.015 933.765 334.684 935.373 327.011C936.116 323.175 929.062 320.947 925.349 321.813C924.359 322.061 923.617 322.432 923.246 323.175C921.761 326.145 916.934 331.961 905.673 331.713C904.188 331.713 902.703 331.59 900.97 331.342C899.485 331.095 898.124 330.847 896.886 330.476C887.605 328.001 885.996 322.432 886.244 309.686C890.08 316.492 896.391 321.813 905.92 321.69C914.954 321.442 916.811 316.863 919.781 315.873C927.825 313.274 936.487 316.121 939.086 321.071C942.18 327.382 960.99 331.961 974.355 323.917Z" fill="#632D1E"/>
<path d="M943.665 306.097L940.694 312.408L1006.16 327.135L1006.53 325.65L943.665 306.097Z" fill="#26201E"/>
<path d="M913.964 304.859L917.8 298.671H896.762L888.842 296.939L894.04 302.013L898.743 300.899L913.964 304.859Z" fill="#26201E"/>
<path d="M958.515 216.871C958.02 217.49 930.052 312.532 929.928 313.15C929.928 313.769 931.909 313.769 932.032 313.15C932.156 312.532 960.124 218.232 960.124 217.366C960.248 216.5 959.134 216.252 958.515 216.871Z" fill="white"/>
<path d="M957.772 216.005C957.03 216.871 917.924 351.143 917.924 352.009C917.924 352.875 920.647 352.751 920.894 352.009C921.142 351.143 960 217.861 960.124 216.747C960.124 215.51 958.515 215.139 957.772 216.005Z" fill="#662D1E"/>
<path d="M1012.47 335.921C1012.47 335.921 1008.63 342.109 1010.24 342.109C1013.71 342.109 1014.08 336.911 1013.83 335.921C1013.58 334.931 1012.47 335.921 1012.47 335.921Z" fill="#7F3C26"/>
<path d="M1018.78 340.128C1018.78 340.128 1015.94 346.811 1017.42 346.564C1020.89 346.069 1020.51 340.871 1020.02 339.881C1019.77 339.015 1018.78 340.128 1018.78 340.128Z" fill="#7F3C26"/>
<path d="M1019.15 334.931C1019.15 334.931 1019.28 328.743 1020.39 329.61C1022.99 331.466 1020.76 335.055 1020.14 335.55C1019.53 336.045 1019.15 334.931 1019.15 334.931Z" fill="#7F3C26"/>
<path d="M1014.7 331.095C1014.7 331.095 1015.94 326.516 1016.68 327.382C1018.29 329.239 1015.94 331.59 1015.32 331.837C1014.7 332.085 1014.7 331.095 1014.7 331.095Z" fill="#7F3C26"/>
<path d="M1010.61 329.239C1010.61 329.239 1011.85 324.66 1012.59 325.526C1014.2 327.382 1011.85 329.734 1011.23 329.981C1010.61 330.229 1010.61 329.239 1010.61 329.239Z" fill="#7F3C26"/>
<path d="M1007.89 331.466C1007.89 331.466 1003.68 335.921 1005.17 336.168C1008.26 336.663 1009.25 332.456 1009.13 331.59C1009.01 330.847 1007.89 331.466 1007.89 331.466Z" fill="#7F3C26"/>
<path d="M851.469 294.588C851.469 294.588 850.232 293.845 848.994 294.093C847.757 294.34 839.341 294.588 839.341 306.963C839.341 319.338 838.475 339.757 842.188 347.554C845.9 355.35 849.365 366.983 853.078 366.735C856.79 366.364 897.629 344.212 900.97 339.634C904.435 335.055 922.998 338.52 923.122 340.376C923.245 342.232 923.864 346.564 922.132 348.668C920.399 350.771 921.884 354.236 924.112 351.514C926.216 348.791 934.507 336.54 932.651 331.095C930.671 325.65 929.557 324.041 915.82 325.031C902.084 326.145 870.898 342.975 866.691 343.099C862.483 343.222 859.637 344.831 859.266 339.386C858.894 333.941 863.473 319.833 859.266 307.334C855.8 297.558 851.469 294.588 851.469 294.588Z" fill="#E69372"/>
<path d="M884.511 267.734C884.511 267.734 889.957 269.59 890.699 267.734C891.565 265.877 903.817 248.676 911.242 252.265C911.242 252.265 914.954 248.923 909.881 245.087C904.807 241.251 899.733 235.806 893.545 236.177C887.358 236.548 875.477 235.311 868.919 250.285C867.557 253.378 863.35 249.418 863.721 254.863C863.721 254.863 851.593 251.522 851.593 261.794C851.593 268.476 855.925 268.971 855.925 268.971C855.925 268.971 856.667 272.313 858.276 272.065C859.885 271.818 860.503 279.985 863.845 278.376C867.186 276.768 868.919 272.065 870.032 272.808C871.146 273.674 870.651 274.416 871.394 275.159C872.136 275.778 869.785 280.356 869.785 282.213C869.909 284.069 879.314 282.46 877.953 277.263C876.467 271.075 878.2 259.442 884.511 267.734Z" fill="#683118"/>
<path d="M998.116 319.71C995.765 317.111 989.948 318.72 989.948 318.72C989.948 318.72 986.731 316.616 983.637 316.616C980.543 316.616 983.637 318.72 985.864 319.833C988.092 321.071 986.236 325.031 985.864 325.774C985.493 326.516 982.276 320.823 982.276 318.472C982.276 316.121 976.707 314.017 976.707 314.017C976.707 314.017 976.088 316.987 978.439 319.586C980.791 322.185 977.325 326.887 978.81 331.59C980.295 336.293 963.96 342.975 957.03 345.574C952.575 347.306 943.541 351.143 939.21 352.999V372.181C948.12 366.859 998.858 330.105 1001.21 328.125C1003.44 326.269 999.23 321.071 998.116 319.71Z" fill="#DB8D6D"/>
<defs>
<clipPath id="clip0">
<rect width="329.153" height="335.834" fill="white" transform="translate(533.46 177)"/>
</clipPath>
<clipPath id="clip1">
<rect width="260.529" height="517.414" fill="white" transform="translate(568.075 205.543)"/>
</clipPath>
</defs>
</svg>
