<svg width="51" height="51" viewBox="0 0 51 51" fill="none" xmlns="http://www.w3.org/2000/svg">
<path d="M25.0812 0C11.2254 0 0 11.2254 0 25.0812C0 38.937 11.2254 50.1624 25.0812 50.1624C38.937 50.1624 50.1624 38.937 50.1624 25.0812C50.1624 11.2254 38.937 0 25.0812 0ZM25.0812 27.6004C23.7104 27.6004 22.562 26.489 22.562 25.0812C22.562 23.6734 23.6734 22.562 25.0812 22.562C26.489 22.562 27.6004 23.6734 27.6004 25.0812C27.6004 26.489 26.489 27.6004 25.0812 27.6004Z" fill="#A29BBD"/>
<path d="M25.081 15.7083C19.8943 15.7083 15.6709 19.9317 15.6709 25.1183C15.6709 30.305 19.8943 34.5284 25.081 34.5284C30.2676 34.5284 34.491 30.305 34.491 25.1183C34.491 19.9317 30.3047 15.7083 25.081 15.7083ZM25.081 28.5637C23.1545 28.5637 21.5985 27.0077 21.5985 25.0813C21.5985 23.1548 23.1545 21.5988 25.081 21.5988C27.0074 21.5988 28.5634 23.1548 28.5634 25.0813C28.5634 27.0077 27.0074 28.5637 25.081 28.5637Z" fill="#8B85AA"/>
<path d="M25.0814 20.7468C22.7103 20.7468 20.7468 22.7103 20.7468 25.0814C20.7468 27.4524 22.6733 29.416 25.0814 29.416C27.4895 29.416 29.416 27.4895 29.416 25.0814C29.416 22.6733 27.4895 20.7468 25.0814 20.7468ZM25.0814 27.6006C23.7106 27.6006 22.5622 26.4892 22.5622 25.0814C22.5622 23.6736 23.6736 22.5622 25.0814 22.5622C26.4892 22.5622 27.6006 23.6736 27.6006 25.0814C27.6006 26.4892 26.4892 27.6006 25.0814 27.6006Z" fill="white"/>
<path opacity="0.2" d="M49.125 25.0071H34.4912C34.4542 21.3394 32.3425 18.1533 29.2305 16.6344L35.6767 3.51953C36.4547 3.92705 37.2327 4.33458 37.9737 4.8162C38.1589 4.92734 38.3442 5.03848 38.5294 5.18667C38.5294 5.18667 38.5294 5.18667 38.5664 5.18667C38.6776 5.26077 38.7887 5.33486 38.9369 5.446C39.011 5.5201 39.1222 5.55715 39.1963 5.63124C39.3074 5.70534 39.3815 5.77943 39.4926 5.85353C39.6779 5.96467 39.8261 6.11286 40.0113 6.224C40.1595 6.33514 40.2706 6.44629 40.4188 6.55743C40.7152 6.81676 41.0116 7.03905 41.308 7.29838C41.4562 7.40952 41.6043 7.55771 41.7155 7.7059C41.9378 7.89114 42.123 8.11343 42.3082 8.29866C42.9381 8.92847 43.4938 9.55828 44.0124 10.2251C44.1236 10.3733 44.2347 10.5215 44.3829 10.6697C44.5681 10.929 44.7904 11.1884 44.9386 11.4848C45.0498 11.6329 45.1609 11.7811 45.272 11.9664C45.3832 12.1516 45.4943 12.2998 45.6055 12.485C45.6425 12.5221 45.6425 12.5591 45.6796 12.5962C45.8278 12.8185 45.9389 13.0407 46.05 13.263C46.1612 13.4483 46.2353 13.6335 46.3464 13.8187C47.4208 15.8193 48.1988 17.9681 48.6434 20.1909C48.7175 20.5984 48.7916 20.9689 48.8657 21.3764C48.9398 21.784 48.9768 22.2285 49.0139 22.6361C49.0509 22.8954 49.0509 23.1918 49.0879 23.4511C49.0879 23.6363 49.125 23.8216 49.125 24.0439C49.125 24.1921 49.125 24.3402 49.125 24.4884C49.125 24.6366 49.125 24.7848 49.125 24.933C49.125 24.933 49.125 24.9701 49.125 25.0071Z" fill="#E0E5FF"/>
<path opacity="0.2" d="M20.9691 33.5281L14.5228 46.68C14.3376 46.6059 14.1524 46.4947 14.0042 46.4206C13.9671 46.4206 13.9671 46.3836 13.9301 46.3836C13.7448 46.2724 13.5596 46.1983 13.3744 46.0872C13.1891 45.9761 13.0039 45.8649 12.8187 45.7538C12.6334 45.6426 12.4482 45.5315 12.2629 45.4203C12.2259 45.4203 12.2259 45.3833 12.1888 45.3833C12.0036 45.2351 11.7813 45.124 11.5961 45.0128C11.559 44.9758 11.4849 44.9387 11.4109 44.9017C11.2627 44.7905 11.1145 44.7164 10.9663 44.6053C10.744 44.4201 10.4847 44.2719 10.2624 44.0866C10.1142 43.9755 9.966 43.8643 9.81781 43.7162C9.66962 43.605 9.52143 43.4568 9.37324 43.3457C9.03981 43.0493 8.70638 42.79 8.41 42.4565C8.29886 42.3454 8.22476 42.2713 8.11362 42.1602C7.96543 42.012 7.85429 41.9008 7.7061 41.7526C7.59495 41.6415 7.48381 41.5303 7.37267 41.4192C7.33562 41.3822 7.29857 41.3451 7.26153 41.271C7.15038 41.1599 7.03924 41.0117 6.9281 40.9005C6.66877 40.6042 6.44648 40.3078 6.18715 40.0114C6.076 39.8632 5.96486 39.715 5.81667 39.5668C5.66848 39.3816 5.52029 39.1964 5.40915 39.0111C5.29801 38.8259 5.14982 38.6406 5.03867 38.4554C4.89048 38.2702 4.77934 38.0479 4.6682 37.8626C4.63115 37.7885 4.5941 37.7515 4.55706 37.6774C4.44591 37.4551 4.29772 37.2699 4.18658 37.0476C2.92696 34.6766 2.00078 32.2314 1.51916 29.7122C1.48211 29.5269 1.44506 29.3788 1.44506 29.1935C1.40801 28.9342 1.37097 28.6378 1.33392 28.3785C1.25982 27.8598 1.22278 27.3041 1.18573 26.7854C1.18573 26.7484 1.18573 26.7113 1.18573 26.6743C1.18573 26.489 1.14868 26.3038 1.14868 26.1186C1.14868 26.0074 1.14868 25.8963 1.14868 25.7481C1.14868 25.711 1.14868 25.711 1.14868 25.674C1.14868 25.4888 1.14868 25.3035 1.14868 25.1183V25.0442H15.7825V25.1183C15.7084 28.786 17.8571 32.0091 20.9691 33.5281Z" fill="#E0E5FF"/>
</svg>
