<svg width="56" height="17" viewBox="0 0 56 17" fill="none" xmlns="http://www.w3.org/2000/svg">
<path d="M8.41516 0.0280762C3.78199 0.0280762 0.0258789 3.82201 0.0258789 8.50197C0.0258789 13.1821 3.78199 16.9758 8.41516 16.9758C13.0488 16.9758 16.8045 13.1821 16.8045 8.50197C16.8045 3.82231 13.0488 0.0284809 8.41506 0.0284809L8.41516 0.0280762ZM12.2624 12.2499C12.1122 12.4988 11.7896 12.5777 11.5431 12.4249C9.57343 11.2096 7.0938 10.9344 4.17358 11.6083C3.89218 11.6731 3.61168 11.495 3.54757 11.2106C3.48315 10.9263 3.65877 10.643 3.94087 10.5782C7.13658 9.84072 9.87777 10.1583 12.0891 11.5233C12.3356 11.6761 12.4137 12.0009 12.2624 12.2499ZM13.2893 9.94252C13.0999 10.2534 12.6972 10.3515 12.3897 10.1603C10.1346 8.76021 6.69719 8.35474 4.02993 9.17256C3.68401 9.2781 3.31866 9.08118 3.21367 8.73238C3.10949 8.38297 3.30453 8.01464 3.64985 7.90839C6.69659 6.9746 10.4843 7.42692 13.0739 9.03433C13.3814 9.22558 13.4786 9.63237 13.2893 9.94262V9.94252ZM13.3774 7.53985C10.6736 5.91767 6.21263 5.76851 3.63112 6.55992C3.21658 6.68692 2.77819 6.45054 2.65257 6.03181C2.52694 5.61288 2.76076 5.17037 3.1756 5.04308C6.13899 4.13439 11.0653 4.30995 14.1782 6.17661C14.5519 6.40014 14.6741 6.88657 14.4527 7.26269C14.2323 7.63932 13.7495 7.76348 13.3778 7.53985H13.3774ZM22.8503 7.85071C21.4017 7.5018 21.1443 7.25692 21.1443 6.74237C21.1443 6.25625 21.5971 5.9291 22.2713 5.9291C22.9245 5.9291 23.5716 6.17752 24.2508 6.68894C24.2709 6.70442 24.2969 6.7106 24.322 6.70655C24.348 6.7027 24.37 6.68864 24.3851 6.66749L25.0923 5.66044C25.1214 5.61895 25.1134 5.56178 25.0743 5.53011C24.2659 4.8751 23.3562 4.55665 22.2923 4.55665C20.7285 4.55665 19.6356 5.50471 19.6356 6.86117C19.6356 8.31578 20.5783 8.83084 22.2072 9.22842C23.5927 9.55091 23.8271 9.82109 23.8271 10.304C23.8271 10.8393 23.3542 11.1722 22.5929 11.1722C21.7474 11.1722 21.0571 10.8838 20.2858 10.2099C20.2667 10.1927 20.2407 10.1856 20.2166 10.1866C20.1906 10.1886 20.1675 10.2008 20.1515 10.22L19.3581 11.1732C19.325 11.2137 19.329 11.2724 19.3671 11.3068C20.2647 12.1163 21.3687 12.5433 22.5608 12.5433C24.2458 12.5433 25.3348 11.6134 25.3348 10.1734C25.3378 8.95844 24.6175 8.28552 22.8533 7.85202L22.8503 7.85071ZM29.1476 6.40773C28.4173 6.40773 27.8182 6.69835 27.3233 7.29386V6.62357C27.3233 6.57065 27.2812 6.52754 27.2292 6.52754H25.9318C25.8797 6.52754 25.8377 6.57065 25.8377 6.62357V14.0713C25.8377 14.1239 25.8797 14.1674 25.9318 14.1674H27.2292C27.2812 14.1674 27.3233 14.1239 27.3233 14.0713V11.7206C27.8182 12.2802 28.4173 12.5544 29.1476 12.5544C30.505 12.5544 31.8795 11.499 31.8795 9.48139C31.8815 7.46335 30.507 6.40763 29.1486 6.40763L29.1476 6.40773ZM30.3708 9.48139C30.3708 10.5084 29.7446 11.2258 28.847 11.2258C27.9605 11.2258 27.2913 10.476 27.2913 9.48139C27.2913 8.48669 27.9605 7.73707 28.847 7.73707C29.7296 7.73697 30.3708 8.4704 30.3708 9.48129V9.48139ZM35.4007 6.40773C33.6526 6.40773 32.2832 7.76733 32.2832 9.50335C32.2832 11.2208 33.6436 12.5656 35.3797 12.5656C37.1338 12.5656 38.5073 11.2106 38.5073 9.48139C38.5073 7.75802 37.1429 6.40793 35.4007 6.40793V6.40773ZM35.4007 11.2359C34.4711 11.2359 33.7698 10.4811 33.7698 9.48089C33.7698 8.47617 34.447 7.74709 35.3797 7.74709C36.3154 7.74709 37.0206 8.50167 37.0206 9.50285C37.0206 10.5074 36.3394 11.2359 35.4007 11.2359ZM42.24 6.52754H40.8124V5.0536C40.8124 5.00078 40.7703 4.95767 40.7182 4.95767H39.4209C39.3688 4.95767 39.3258 5.00078 39.3258 5.0536V6.52754H38.7026C38.6505 6.52754 38.6085 6.57065 38.6085 6.62357V7.74952C38.6085 7.80234 38.6505 7.84555 38.7026 7.84555H39.3258V10.7593C39.3258 11.9362 39.9058 12.5332 41.0508 12.5332C41.5157 12.5332 41.9014 12.4361 42.265 12.2276C42.2951 12.2114 42.3131 12.179 42.3131 12.1446V11.072C42.3131 11.0396 42.2961 11.0083 42.268 10.9911C42.24 10.9728 42.2049 10.9718 42.1758 10.987C41.9264 11.1135 41.685 11.1722 41.4145 11.1722C40.9987 11.1722 40.8124 10.9809 40.8124 10.5539V7.84605H42.24C42.2921 7.84605 42.3341 7.80295 42.3341 7.75002V6.62418C42.3361 6.57126 42.2941 6.52815 42.241 6.52815L42.24 6.52754ZM47.2128 6.53331V6.35228C47.2128 5.81971 47.4152 5.58222 47.868 5.58222C48.1385 5.58222 48.3559 5.63646 48.5993 5.71842C48.6294 5.72793 48.6604 5.72318 48.6845 5.70507C48.7095 5.68695 48.7235 5.65791 48.7235 5.62715V4.52316C48.7235 4.48096 48.6975 4.44362 48.6564 4.43118C48.4 4.35397 48.0714 4.27474 47.5785 4.27474C46.3814 4.27474 45.7472 4.95615 45.7472 6.24461V6.52187H45.1241C45.072 6.52187 45.0289 6.56498 45.0289 6.6178V7.74952C45.0289 7.80234 45.072 7.84555 45.1241 7.84555H45.7472V12.3389C45.7472 12.3925 45.7903 12.435 45.8424 12.435H47.1387C47.1918 12.435 47.2339 12.3925 47.2339 12.3389V7.84585H48.445L50.3004 12.3389C50.09 12.8105 49.8826 12.9046 49.6001 12.9046C49.3717 12.9046 49.1303 12.8358 48.8848 12.6992C48.8618 12.687 48.8337 12.685 48.8097 12.6921C48.7846 12.7012 48.7636 12.7194 48.7536 12.7437L48.3138 13.7181C48.2928 13.7647 48.3108 13.8183 48.3549 13.8426C48.8137 14.0936 49.2274 14.2008 49.7393 14.2008C50.6971 14.2008 51.227 13.7495 51.6928 12.5372L53.9429 6.66445C53.9549 6.6349 53.9509 6.60151 53.9328 6.5753C53.9158 6.5493 53.8868 6.53361 53.8557 6.53361H52.5053C52.4642 6.53361 52.4282 6.55962 52.4151 6.59797L51.0317 10.5883L49.517 6.59534C49.5029 6.5582 49.4679 6.53361 49.4288 6.53361H47.2128V6.53331ZM44.3297 6.52754H43.0324C42.9803 6.52754 42.9372 6.57065 42.9372 6.62357V12.3389C42.9372 12.3925 42.9803 12.435 43.0324 12.435H44.3297C44.3818 12.435 44.4249 12.3925 44.4249 12.3389V6.62398C44.4249 6.57105 44.3828 6.52795 44.3297 6.52795V6.52754ZM43.6885 3.92502C43.1746 3.92502 42.7579 4.34517 42.7579 4.86417C42.7579 5.38348 43.1746 5.80413 43.6885 5.80413C44.2025 5.80413 44.6182 5.38348 44.6182 4.86417C44.6182 4.34527 44.2015 3.92502 43.6885 3.92502ZM55.0508 8.36526C54.5379 8.36526 54.1382 7.94886 54.1382 7.44321C54.1382 6.93757 54.5429 6.51641 55.0558 6.51641C55.5688 6.51641 55.9685 6.93271 55.9685 7.43795C55.9685 7.9436 55.5638 8.36526 55.0508 8.36526ZM55.0558 6.60809C54.588 6.60809 54.2344 6.98351 54.2344 7.44321C54.2344 7.90272 54.586 8.27308 55.0508 8.27308C55.5187 8.27308 55.8723 7.89796 55.8723 7.43795C55.8723 6.97845 55.5207 6.60809 55.0558 6.60809ZM55.2582 7.53277L55.5167 7.89786H55.2983L55.0659 7.56292H54.8665V7.89786H54.6842V6.93008H55.1109C55.3343 6.93008 55.4806 7.04513 55.4806 7.23881C55.4816 7.39748 55.3904 7.49442 55.2592 7.53277H55.2582ZM55.1039 7.09613H54.8665V7.40223H55.1039C55.2221 7.40223 55.2933 7.34364 55.2933 7.24903C55.2933 7.14946 55.2221 7.09613 55.1039 7.09613Z" fill="white"/>
</svg>
