<svg width="109" height="34" viewBox="0 0 109 34" fill="none" xmlns="http://www.w3.org/2000/svg">
<path opacity="0.8" d="M108.155 33.9671H97.9653L92.3503 12.6857H91.8651L85.141 33.9671H75.7827L68.9893 12.6857H68.504L62.9584 33.9671H52.9069L63.7903 0H73.5644L80.3579 21.42H80.8431L87.6365 0H97.2721L108.155 33.9671Z" fill="#26FFFF"/>
<path d="M63.8214 0.0329453H53.6313L48.0163 21.3143H47.5311L40.807 0.0329453H31.4487L24.6553 21.3143H24.1701L18.6244 0.0329453H8.57294L19.4563 34H29.2305L36.0239 12.58H36.5091L43.3025 34H52.9381L63.8214 0.0329453Z" fill="#4A44DD"/>
<path d="M0.386606 0.0329453H10.5767L16.1917 21.3143H16.6769L23.401 0.0329453H32.7593L39.5527 21.3143H40.0379L45.5836 0.0329453H55.6351L44.7517 34H34.9775L28.1841 12.58H27.6989L20.9055 34H11.2699L0.386606 0.0329453Z" fill="#7E79FF"/>
</svg>
