<svg width="105" height="105" viewBox="0 0 105 105" fill="none" xmlns="http://www.w3.org/2000/svg">
<path fill-rule="evenodd" clip-rule="evenodd" d="M10 0C4.47715 0 0 4.47715 0 10V95C0 100.523 4.47715 105 10 105H95C100.523 105 105 100.523 105 95V10C105 4.47715 100.523 0 95 0H10ZM72.2362 57.809C72.2362 62.0014 69.1627 65.4378 65.2695 65.4378C61.4447 65.4378 58.3029 62.0014 58.3029 57.809C58.3029 53.6167 61.3764 50.1803 65.2695 50.1803C69.1627 50.1803 72.2362 53.6167 72.2362 57.809ZM92.9995 71.8294C92.9995 49.6992 83.1642 31.7614 83.1642 31.7614C73.329 24.3388 63.9718 24.545 63.9718 24.545L63.0156 25.6446C74.6267 29.2185 80.0224 34.373 80.0224 34.373C63.7981 25.4253 44.7399 25.4237 29.002 32.3799C26.4749 33.5483 24.9723 34.373 24.9723 34.373C24.9723 34.373 30.6412 28.9436 42.9353 25.3697L42.2523 24.545C42.2523 24.545 32.8951 24.3388 23.0599 31.7614C23.0599 31.7614 13.2246 49.6992 13.2246 71.8294C13.2246 71.8294 18.9618 81.7949 34.0562 82.2759C34.0562 82.2759 36.5834 79.1832 38.6324 76.5716C29.9582 73.9599 26.6798 68.4618 26.6798 68.4618C27.4412 68.998 28.5771 69.6547 29.143 69.9819C29.3239 70.0865 29.4465 70.1574 29.4801 70.1799C41.0085 76.6763 57.384 78.8047 72.0996 72.5854C74.4901 71.6919 77.1538 70.3861 79.9541 68.5305C79.9541 68.5305 76.5391 74.1661 67.5918 76.709C69.6408 79.3207 72.0996 82.2759 72.0996 82.2759C87.194 81.7949 92.9995 71.8294 92.9995 71.8294ZM33.3729 57.8089C33.3729 53.6165 36.4464 50.1802 40.3395 50.1802C44.2326 50.1802 47.3745 53.6165 47.3062 57.8089C47.3062 62.0013 44.2326 65.4376 40.3395 65.4376C36.5147 65.4376 33.3729 62.0013 33.3729 57.8089Z" fill="white"/>
</svg>
