<svg width="105" height="105" viewBox="0 0 105 105" fill="none" xmlns="http://www.w3.org/2000/svg">
<path fill-rule="evenodd" clip-rule="evenodd" d="M36.0361 52.659C36.0361 61.9677 43.5911 69.5227 52.8998 69.5227C62.2085 69.5227 69.7635 61.9679 69.7635 52.6592C69.7635 43.3505 62.2085 35.7955 52.8998 35.7955C43.5911 35.7955 36.0361 43.3503 36.0361 52.659ZM52.9 42.5407C47.3181 42.5407 42.7819 47.077 42.7819 52.6589C42.7819 58.2408 47.3181 62.777 52.9 62.777C58.4819 62.777 63.0182 58.2408 63.0182 52.6589C63.0182 47.077 58.4818 42.5407 52.9 42.5407Z" fill="white"/>
<path fill-rule="evenodd" clip-rule="evenodd" d="M0 10C0 4.47715 4.47715 0 10 0H95C100.523 0 105 4.47715 105 10V95C105 100.523 100.523 105 95 105H10C4.47715 105 0 100.523 0 95V10ZM15.7998 52.6592C21.6347 37.8528 36.0361 27.3638 52.8998 27.3638C69.7802 27.3638 84.1649 37.8528 89.9998 52.6592C84.1649 67.4654 69.7802 77.9546 52.8998 77.9546C36.0361 77.9546 21.6347 67.4654 15.7998 52.6592Z" fill="white"/>
</svg>
