<svg width="105" height="105" viewBox="0 0 105 105" fill="none" xmlns="http://www.w3.org/2000/svg">
<path fill-rule="evenodd" clip-rule="evenodd" d="M10 0C4.47715 0 0 4.47715 0 10V95C0 100.523 4.47715 105 10 105H95C100.523 105 105 100.523 105 95V10C105 4.47715 100.523 0 95 0H10ZM85.9434 66.2829C86.227 66.4956 86.5106 66.7083 86.8133 66.9401C86.771 67.0508 86.7284 67.1613 86.6853 67.2715C85.9457 69.1182 85.122 70.7439 84.1085 72.2079L84.0511 72.2908L83.998 72.3764C77.9603 82.1107 67.4973 88.7546 55.3039 89.4936L55.2924 89.4943C47.5618 89.9852 40.2128 87.8991 34.2204 83.9857L34.1702 83.9529L34.119 83.9216C33.3109 83.4278 32.5329 82.8983 31.7782 82.3315C32.2411 81.4336 32.8588 80.5173 33.4609 79.6244L33.4609 79.6243C34.3786 78.2631 35.2597 76.9562 35.4998 75.8517C36.0032 73.6368 34.727 73.0531 32.5996 72.0802C31.8385 71.7321 30.9683 71.3341 30.0318 70.7938C26.7318 68.89 23.7853 67.2218 19.9889 66.8835C19.7193 66.217 19.4675 65.5409 19.2342 64.8564C19.2291 64.8346 19.2239 64.8138 19.219 64.794V64.7656L19.0651 64.2269C18.5784 62.5236 18.204 60.8022 17.8056 58.9439C17.746 58.4014 17.6861 57.8322 17.625 57.2518L17.6243 57.2455C17.596 56.9769 17.5675 56.7058 17.5388 56.4357C20.8668 53.1947 24.8377 48.621 25.7946 46.3245C27.2983 42.907 23.6074 39.3527 20.3265 39.6261C20.2745 39.6329 20.2238 39.6405 20.1742 39.6489L20.2814 39.3806C20.8933 37.9573 21.5733 36.5831 22.3407 35.254L22.3552 35.2706C22.9974 36.009 23.7185 36.8379 24.7011 37.1654C27.1617 37.9857 47.3935 33.0644 37.1409 28.8266C33.9442 27.484 30.9868 27.2179 28.4224 27.4827C34.4192 21.6952 42.461 17.9755 51.4096 17.3723C59.2373 16.9662 66.5457 19.0537 72.7026 22.9341C72.2178 23.0863 71.6682 23.2486 71.0701 23.4253C66.9083 24.6544 60.4037 26.5756 57.0986 30.6037C56.09 30.8054 56.1728 30.0479 56.2734 29.1285C56.3773 28.1787 56.5001 27.056 55.4582 26.6393C55.1941 26.545 54.9326 26.4428 54.6722 26.3411L54.6721 26.3411C53.046 25.706 51.4653 25.0886 49.58 26.5026C48.2065 27.5327 47.6416 28.6707 47.1745 29.6117C46.8977 30.1693 46.6552 30.6577 46.2992 31.0137C46.217 31.0959 46.1368 31.1751 46.0591 31.2519C45.2319 32.0686 44.6823 32.6114 44.9322 33.611C44.9965 33.8361 45.144 34.1444 45.316 34.5039C45.8752 35.6726 46.6933 37.3823 45.7524 38.5323C45.3092 39.0309 44.6639 39.4397 44.0167 39.8497L44.0167 39.8498C43.067 40.4514 42.1133 41.0556 41.7881 41.9498C41.6856 42.1549 41.2755 42.0524 41.0191 41.9883L41.0191 41.9883L41.019 41.9883C40.9336 41.9669 40.8653 41.9498 40.8312 41.9498C40.6945 41.9498 40.5578 42.2232 40.8312 42.3599C41.1046 42.4966 41.6513 42.9068 41.6513 42.9068C41.7771 44.1639 42.134 44.4962 42.2969 44.6478C42.3054 44.6557 42.3135 44.6632 42.3209 44.6703C42.3258 44.675 42.3305 44.6795 42.3349 44.6839C42.3107 44.6839 42.2608 44.6785 42.1902 44.671C41.4626 44.5929 38.5314 44.2785 38.7807 47.1445C39.0541 50.4253 41.1045 49.7418 42.0614 48.7849C42.3565 48.4899 42.6255 48.0389 42.9207 47.5441C43.5828 46.4342 44.3763 45.1042 45.8891 44.8205C48.0764 44.4104 49.8534 46.1875 49.8534 46.5976C49.8534 46.6648 49.8571 46.7356 49.8608 46.8076C49.8799 47.1758 49.9006 47.577 49.4433 47.6913C48.8965 47.828 49.9901 48.2381 50.2635 47.9647C50.3861 47.9034 50.3988 47.6496 50.4124 47.376C50.4292 47.0396 50.4475 46.673 50.6737 46.5976C51.0838 46.4609 50.947 45.9142 50.2635 45.6408C49.58 45.3674 47.9396 43.5903 48.4864 43.3169C48.8965 43.0435 51.7673 45.5041 52.0407 46.8711C52.1774 48.2381 53.8178 48.6482 54.0912 48.1014C54.2161 47.9141 53.9986 47.6126 53.7647 47.2882C53.4865 46.9025 53.185 46.4846 53.4077 46.1876C53.8178 45.6408 54.638 45.7775 54.638 46.3243C54.638 46.8711 56.1417 48.9216 59.1491 48.7849C62.1565 48.6482 58.6023 51.7923 56.5518 51.3822C56.4589 51.3623 56.3296 51.3327 56.1675 51.2956C52.9898 50.5689 37.2039 46.9587 35.7732 56.7136C34.6707 64.2305 40.4021 64.2522 44.4012 64.2673H44.4013C45.8567 64.2728 47.0826 64.2775 47.6662 64.6422C48.602 65.2271 49.0873 67.6133 49.6147 70.2061C50.3201 73.6739 51.1006 77.5112 53.1343 77.9023C56.8252 78.7225 62.43 73.1178 62.2933 70.247C62.1566 67.3763 62.7034 65.8725 64.7539 64.3688C65.9401 63.4368 66.1285 61.9272 66.2956 60.5885C66.3981 59.7673 66.4926 59.0104 66.8044 58.4907C67.1745 57.962 67.9738 57.597 68.7439 57.2452C69.9653 56.6873 71.1132 56.163 70.3586 55.0731C69.6783 54.0905 68.3293 53.4004 67.236 52.8412C66.352 52.389 65.6352 52.0223 65.5741 51.6556C65.5024 51.2258 66.8195 51.7344 68.3256 52.3159C69.6939 52.8442 71.2182 53.4327 71.9991 53.4327C73.0578 53.3445 74.7429 55.9895 76.0621 58.0602C76.7869 59.1979 77.4012 60.1622 77.7405 60.4045C78.1364 60.6307 78.6257 59.7107 79.2667 58.5058C80.1753 56.7977 81.3886 54.517 83.0718 54.1162C84.3424 53.7986 84.8454 55.0456 85.4039 56.4305L85.405 56.4332C85.4375 56.5138 85.4702 56.5949 85.5033 56.6761C84.1973 56.3754 83.3177 56.3321 82.7993 56.8505C81.8424 57.6707 78.0147 63.959 78.0147 65.5994C78.0147 66.4746 79.8045 66.2992 81.7234 66.1112C83.4014 65.9468 85.1781 65.7728 85.9434 66.2829ZM90.4047 68.7433C91.633 65.6044 92.5887 62.1929 93 58.781L93.0511 58.7641C93.3245 56.3035 93.4611 53.8428 93.3244 51.2455C93.051 39.4892 87.3096 29.2366 78.8341 22.4016L78.8099 22.4006C78.7561 22.3552 78.7023 22.31 78.6483 22.2649C71.1298 16.25 61.5607 12.8325 51.1714 13.3793C38.8683 14.1995 28.0689 20.3511 21.2338 29.6468C19.32 32.2441 17.8163 34.9781 16.586 37.8489L16.5855 37.8502L16.5854 37.8503C16.0388 39.2168 15.4922 40.5834 15.0822 42.0866C13.7152 46.461 13.1685 50.9721 13.4419 55.7567C13.503 56.3071 13.5642 56.8849 13.6254 57.4656C13.6629 57.9684 13.7068 58.4591 13.7822 58.9462C13.8055 59.162 13.8287 59.3751 13.852 59.5843L13.852 59.5845C14.2621 61.4982 14.6722 63.412 15.219 65.3258C15.219 65.3941 15.2532 65.4967 15.2873 65.5992C15.3215 65.7017 15.3557 65.8043 15.3557 65.8726C17.4062 72.0242 20.8237 77.6289 25.3348 82.0034C27.3854 84.0539 29.5726 85.831 32.0332 87.3347C38.7316 91.7092 46.9337 94.0331 55.5459 93.4863C69.0793 92.6661 80.6989 85.2842 87.3973 74.4848C88.6276 72.7077 89.5845 70.7938 90.4047 68.7433ZM43.8375 39.3522C44.521 39.2155 44.6577 38.6688 44.2476 37.8485C44.0614 37.4763 44.0443 36.9913 44.0299 36.5855C44.0126 36.0972 43.9994 35.7234 43.7007 35.798C43.3075 35.8963 43.197 36.7018 43.1152 37.2989L43.1152 37.299C43.0832 37.5321 43.0556 37.7334 43.0172 37.8485C42.8805 38.3954 42.7439 39.6256 43.8375 39.3522ZM42.1985 37.8493C42.4719 37.8493 42.4719 38.6695 42.4719 38.9429V39.2163C42.4719 39.4897 41.5149 39.6263 41.3782 39.0795C41.2415 38.6694 41.9251 37.8493 42.1985 37.8493Z" fill="white"/>
</svg>
