<svg width="1500" height="855" viewBox="0 0 1500 855" fill="none" xmlns="http://www.w3.org/2000/svg">
<g clip-path="url(#clip0)">
<rect width="1500" height="855" fill="#2E2B40"/>
<path opacity="0.5" d="M1579.54 221.441C1933.4 346.061 2077.52 151.074 2091.98 71.3918V-432H-12.6895V71.3918C26.8213 82.2837 70.8611 112.064 199.801 144.052C360.975 184.036 597 86.2861 910.19 71.3918C1276.98 53.9487 1359.8 144.052 1579.54 221.441Z" fill="url(#paint0_linear)"/>
<path opacity="0.5" d="M-90.4135 221.441C-444.268 346.061 -588.393 151.074 -602.848 71.3918V-432H1501.82V71.3918C1462.31 82.2837 1418.27 112.064 1289.33 144.052C1128.15 184.036 892.129 86.2861 578.939 71.3918C212.154 53.9487 129.331 144.052 -90.4135 221.441Z" fill="url(#paint1_linear)"/>
<path d="M410.427 194.149L405.725 292.028L497.495 286.252L451.686 189.285L410.427 194.149Z" fill="#322DA9"/>
<path d="M429.538 189.741C430.448 189.133 403.6 199.468 412.094 230.929C420.589 262.086 439.701 258.895 443.948 257.679C448.195 256.463 463.667 245.216 459.42 221.202C455.173 197.036 450.926 187.005 429.538 189.741Z" fill="#F3C6A5"/>
<path d="M429.691 256.464L428.629 266.799C428.629 266.799 446.831 285.189 461.545 262.999C461.545 262.999 457.298 260.111 456.236 245.521C446.376 262.543 429.691 256.464 429.691 256.464Z" fill="#F3C6A5"/>
<path d="M492.487 516.055C456.386 509.216 404.357 516.055 404.357 516.055V496.449H492.487C492.487 496.449 528.589 522.743 492.487 516.055Z" fill="#2B289B"/>
<path d="M365.374 363.158C364.919 360.27 342.772 350.695 341.104 348.263C339.435 345.831 349.143 344.16 353.239 332.913C357.334 321.666 380.239 270.598 396.469 270.598C412.7 270.598 428.779 266.95 428.779 266.95C428.779 266.95 450.47 280.781 460.329 263.759C463.363 258.439 502.346 268.166 502.346 268.166C502.346 268.166 522.521 273.942 528.588 323.641C532.229 353.127 538.751 361.334 538.751 361.334C538.751 361.334 505.684 369.693 501.588 369.693C497.492 369.693 508.111 408.146 511.296 424.256C514.633 440.367 520.549 518.488 520.549 525.327C520.549 532.167 484.903 502.377 452.745 504.049C420.588 505.721 386.61 507.393 386.61 512.56C386.61 517.728 388.278 526.239 388.278 526.239C388.278 526.239 383.273 524.719 378.57 520.464C373.868 516.208 380.391 376.533 380.391 376.533L365.374 363.158Z" fill="url(#paint2_linear)"/>
<path d="M425.748 171.35C425.748 171.35 409.82 169.375 406.332 178.798C402.843 188.221 394.652 191.565 393.59 204.787C392.528 218.01 385.399 221.202 384.944 228.497C384.489 235.793 384.489 245.672 382.972 251.751C381.455 257.831 383.427 259.503 380.697 270.75C377.966 281.997 388.888 283.212 387.674 292.94C386.461 302.667 380.242 306.466 385.399 317.409C385.399 317.409 384.944 305.099 387.826 304.187C390.86 303.123 394.045 315.89 390.101 326.529C386.157 337.168 393.135 349.631 395.259 351.454C393.59 344.311 399.961 340.055 399.202 347.047C398.444 354.038 393.742 361.182 393.742 361.182C393.742 361.182 411.034 345.223 410.124 330.328C409.214 315.434 414.826 324.857 413.916 330.632C417.405 320.753 416.191 316.649 416.191 309.202C416.191 301.755 425.899 301.451 424.686 294.004C423.472 286.556 434.242 278.653 426.506 269.99C418.77 261.174 429.085 248.56 428.63 244.76C428.175 240.96 419.832 228.953 418.467 224.85C413.764 210.867 416.495 194.756 432.573 191.261C432.573 191.261 458.664 192.933 457.147 212.387C455.175 236.705 458.512 230.473 456.237 241.568C454.265 251.903 467.31 253.879 466.551 260.414C464.428 279.261 480.961 279.565 487.484 274.549C493.096 270.294 503.563 269.078 509.327 272.877C515.091 276.677 505.686 262.694 492.186 258.287C486.422 256.463 488.697 249.471 484.754 242.936C480.81 236.401 477.018 237.769 476.866 227.433C476.714 217.098 476.562 215.427 470.95 207.219C465.186 199.012 467.916 180.166 452.293 173.934C436.669 167.703 433.332 168.007 425.748 171.35Z" fill="url(#paint3_linear)"/>
<path d="M504.623 395.833C504.623 395.833 517.516 394.162 529.5 392.642C538.904 391.426 548.46 390.97 549.067 382.459C550.432 364.22 549.37 358.597 548.157 356.925C546.943 355.253 544.061 357.381 544.061 357.381C544.061 357.381 541.331 360.269 542.089 366.5C542.393 368.932 537.387 364.068 534.353 364.372C531.32 364.676 523.129 364.524 524.646 373.188C526.162 381.851 514.634 366.956 514.634 366.956C514.634 366.956 506.595 369.084 501.286 369.54C498.859 369.844 504.623 395.833 504.623 395.833Z" fill="#F3C6A5"/>
<path d="M497.947 424.103C493.851 409.056 468.52 422.583 467.761 409.056C466.851 395.681 481.565 353.277 471.554 348.565C461.542 343.854 447.89 340.206 429.233 363.004C410.576 385.802 377.205 364.524 368.255 375.923C359.306 387.322 334.277 400.393 362.339 452.524C390.401 504.655 412.092 490.977 433.632 466.507C455.171 442.037 458.205 441.581 483.385 439.909C503.256 438.845 497.947 424.103 497.947 424.103Z" fill="#FBFCF7"/>
<path d="M466.244 377.595C466.244 377.595 427.109 368.172 413.458 389.906C399.806 411.64 426.503 414.224 423.924 424.863C417.705 450.7 430.598 458.452 439.699 450.396C448.8 442.341 454.261 430.638 482.627 434.894C494.458 436.718 497.037 423.799 482.627 421.367C468.065 418.935 446.07 418.479 466.244 377.595Z" fill="url(#paint4_linear)"/>
<path d="M654.032 312.85C650.998 315.586 644.931 312.85 639.015 320.601C633.099 328.352 611.712 323.033 602.61 327.897C599.425 329.568 576.52 341.879 548.307 356.926C548.307 356.926 548.307 356.926 548.307 356.774C547.093 355.102 544.211 357.23 544.211 357.23C544.211 357.23 543.453 357.99 542.846 359.814C540.116 361.334 537.385 362.701 534.503 364.221C531.925 364.525 525.857 364.373 524.795 369.389C522.975 370.301 521.155 371.365 519.486 372.277C513.571 375.468 507.807 378.508 502.042 381.7C463.059 402.674 427.564 421.52 427.564 421.52L419.677 400.09C419.677 400.09 598.818 312.242 600.487 311.482C602.155 310.722 602.155 306.922 603.217 305.251C604.279 303.579 650.695 294.004 656.307 298.563C661.768 303.275 656.914 310.266 654.032 312.85Z" fill="white"/>
<path d="M391.615 414.832L399.351 435.198C400.261 437.478 402.688 438.39 404.812 437.326L429.537 424.863C431.357 423.951 432.267 421.671 431.357 419.695L422.711 400.241C421.801 398.113 419.374 397.353 417.402 398.265L393.435 409.816C391.767 410.728 390.857 413.008 391.615 414.832Z" fill="url(#paint5_linear)"/>
<path d="M612.77 303.732C612.77 303.732 612.467 297.197 613.377 297.501C614.287 297.804 615.804 297.653 615.652 300.236C615.501 302.82 614.894 304.796 612.77 303.732Z" fill="#EDF2D3"/>
<path d="M621.721 302.516C621.721 302.516 621.418 295.981 622.328 296.285C623.238 296.589 624.755 296.437 624.603 299.02C624.3 301.452 623.845 303.428 621.721 302.516Z" fill="#EDF2D3"/>
<path d="M629.455 301.299C629.455 301.299 629.151 294.764 630.062 295.068C630.972 295.372 632.489 295.22 632.337 297.804C632.033 300.387 631.578 302.363 629.455 301.299Z" fill="#EDF2D3"/>
<path d="M637.191 300.236C637.191 300.236 636.888 293.7 637.798 294.004C638.708 294.308 640.225 294.156 640.073 296.74C639.921 299.172 639.315 301.148 637.191 300.236Z" fill="#EDF2D3"/>
<path d="M346.111 352.365C346.111 352.365 331.549 379.875 338.83 385.346C346.111 390.818 414.369 401.913 414.369 401.913C414.369 401.913 435.15 418.479 439.549 417.415C443.948 416.351 455.476 404.801 452.746 400.241C450.016 395.681 445.617 392.49 445.617 392.49C445.617 392.49 454.87 395.833 456.387 387.474C453.201 387.93 453.201 390.666 445.617 387.626C438.033 384.738 437.274 384.89 429.235 387.018C421.499 388.994 346.111 352.365 346.111 352.365Z" fill="#F3C6A5"/>
<path d="M386.459 512.407C385.397 520.615 395.711 594.48 395.711 603.295C395.711 612.111 399.2 703.91 399.807 729.9C400.414 755.89 384.183 804.373 393.133 804.981C402.082 805.589 419.83 811.517 421.65 804.981C423.47 798.446 416.947 737.499 416.947 737.499C416.947 737.499 431.661 625.029 429.386 605.575C426.959 586.121 444.099 504.2 444.099 504.2C444.099 504.2 387.672 504.352 386.459 512.407Z" fill="#F3C6A5"/>
<path d="M458.207 504.506C458.207 504.506 480.202 556.181 481.415 565.756C482.629 575.332 514.786 697.833 523.432 722.454C532.078 747.076 531.472 789.784 534.202 793.888C536.932 797.84 569.545 797.992 569.545 789.784C569.545 781.577 546.488 728.23 546.488 728.23C546.488 728.23 541.179 656.036 526.011 598.889C521.46 581.411 518.73 560.437 518.578 526.392C518.578 526.392 495.674 514.689 486.724 511.345C471.404 505.418 458.207 504.506 458.207 504.506Z" fill="#F3C6A5"/>
<path d="M397.684 743.276C396.622 753.611 384.336 799.663 391.313 805.135C393.285 806.655 420.134 809.846 421.802 807.111C425.898 800.727 419.83 746.468 418.92 741.908C418.617 740.389 417.252 742.212 417.1 741.908C415.583 739.477 418.162 734.613 416.038 733.245C413.46 731.725 402.235 729.446 400.718 734.765C400.263 736.133 400.111 738.869 400.111 740.693C400.263 741.3 398.291 737.501 397.684 743.276Z" fill="url(#paint6_linear)"/>
<path d="M397.988 777.472C396.623 777.624 395.712 778.84 395.864 780.36C396.016 781.88 397.229 782.944 398.443 782.792C399.808 782.64 400.718 781.424 400.566 779.904C400.415 778.384 399.201 777.32 397.988 777.472ZM398.291 781.424C397.684 781.424 397.078 780.968 396.926 780.208C396.926 779.448 397.381 778.84 397.988 778.688C398.594 778.688 399.201 779.144 399.353 779.904C399.505 780.664 398.898 781.424 398.291 781.424Z" fill="#FBFCF7"/>
<path d="M402.083 750.419C400.869 750.571 400.111 751.635 400.262 753.003C400.414 754.371 401.476 755.283 402.538 755.131C403.6 754.979 404.51 753.915 404.358 752.547C404.206 751.331 403.144 750.267 402.083 750.419ZM402.386 753.915C401.779 753.915 401.324 753.459 401.173 752.851C401.021 752.243 401.476 751.635 402.083 751.635C402.689 751.635 403.144 752.091 403.296 752.699C403.448 753.307 402.993 753.915 402.386 753.915Z" fill="#FBFCF7"/>
<path d="M415.277 766.227C414.063 766.379 413.305 767.443 413.457 768.811C413.608 770.179 414.67 771.091 415.732 770.939C416.946 770.787 417.704 769.723 417.552 768.355C417.552 766.987 416.49 766.075 415.277 766.227ZM415.732 769.723C415.125 769.723 414.67 769.267 414.519 768.659C414.367 768.051 414.822 767.443 415.429 767.443C416.035 767.443 416.49 767.899 416.642 768.507C416.794 769.115 416.187 769.723 415.732 769.723Z" fill="#FBFCF7"/>
<path d="M416.493 777.777C415.279 777.929 414.521 778.993 414.673 780.361C414.824 781.729 415.886 782.641 416.948 782.489C418.01 782.337 418.92 781.273 418.768 779.905C418.768 778.537 417.706 777.625 416.493 777.777ZM416.796 781.273C416.189 781.273 415.734 780.817 415.583 780.209C415.431 779.601 415.886 778.993 416.493 778.993C417.1 778.993 417.555 779.449 417.706 780.057C417.858 780.665 417.403 781.273 416.796 781.273Z" fill="#FBFCF7"/>
<path d="M399.654 765.922C398.289 766.074 397.378 767.138 397.53 768.506C397.682 769.874 398.744 770.785 400.109 770.633C401.474 770.481 402.384 769.418 402.232 768.05C402.081 766.834 401.019 765.922 399.654 765.922ZM399.957 769.57C399.35 769.57 398.744 769.266 398.744 768.658C398.744 768.05 399.199 767.594 399.805 767.594C400.412 767.594 401.019 767.898 401.019 768.506C401.171 768.962 400.716 769.418 399.957 769.57Z" fill="#FBFCF7"/>
<path d="M416.188 751.788C415.43 751.028 414.216 751.028 413.306 751.788C412.548 752.548 412.548 753.764 413.306 754.675C414.065 755.435 415.278 755.435 416.188 754.675C416.947 753.764 416.947 752.548 416.188 751.788ZM414.065 753.916C413.609 753.46 413.609 753.004 413.913 752.548C414.216 752.244 414.823 752.244 415.278 752.7C415.733 753.156 415.733 753.612 415.43 754.068C414.975 754.372 414.368 754.22 414.065 753.916Z" fill="#FBFCF7"/>
<path d="M389.189 793.128C387.823 792.368 388.734 804.071 390.554 804.983C392.829 806.199 407.694 809.543 421.801 807.871C422.863 807.719 424.076 794.952 423.318 795.256C416.947 797.992 395.104 796.624 389.189 793.128Z" fill="#FBFCF7"/>
<path d="M548.916 731.723C552.101 741.755 574.248 785.223 567.725 791.758C565.753 793.582 537.236 801.029 535.112 798.445C530.562 793.126 525.86 738.411 525.556 733.699C525.404 732.179 527.376 733.699 527.528 733.547C528.59 730.963 524.949 726.556 527.073 724.884C529.5 722.908 541.332 718.957 544.062 723.82C544.82 725.188 545.427 727.772 545.73 729.444C545.73 730.204 547.247 726.1 548.916 731.723Z" fill="url(#paint7_linear)"/>
<path d="M555.289 765.469C556.654 765.317 558.019 766.533 558.171 768.053C558.322 769.573 557.261 770.788 555.895 770.94C554.53 771.092 553.165 769.877 553.013 768.357C552.862 766.837 553.924 765.469 555.289 765.469ZM555.744 769.421C556.502 769.421 556.957 768.813 556.957 768.053C556.957 767.293 556.199 766.685 555.592 766.837C554.834 766.837 554.379 767.445 554.379 768.205C554.379 768.965 554.985 769.421 555.744 769.421Z" fill="#FBFCF7"/>
<path d="M545.579 739.475C546.792 739.323 548.006 740.387 548.157 741.755C548.309 743.123 547.399 744.187 546.034 744.339C544.669 744.491 543.607 743.427 543.455 742.059C543.455 740.691 544.365 739.475 545.579 739.475ZM546.034 742.971C546.641 742.971 547.096 742.363 547.096 741.755C547.096 741.147 546.489 740.539 545.882 740.691C545.275 740.843 544.82 741.299 544.82 741.907C544.82 742.515 545.275 742.971 546.034 742.971Z" fill="#FBFCF7"/>
<path d="M534.203 757.107C535.416 756.955 536.63 758.019 536.781 759.387C536.933 760.755 536.023 761.819 534.658 761.971C533.293 762.123 532.231 761.059 532.079 759.691C532.079 758.323 532.989 757.107 534.203 757.107ZM534.658 760.603C535.265 760.603 535.72 759.995 535.72 759.387C535.72 758.779 535.113 758.171 534.506 758.323C533.899 758.475 533.444 758.931 533.444 759.539C533.444 760.147 533.899 760.755 534.658 760.603Z" fill="#FBFCF7"/>
<path d="M535.263 768.658C536.477 768.506 537.69 769.57 537.842 770.938C537.994 772.306 537.083 773.37 535.718 773.522C534.353 773.674 533.291 772.61 533.14 771.242C532.988 769.874 533.898 768.81 535.263 768.658ZM535.567 772.306C536.173 772.306 536.628 771.698 536.628 771.09C536.628 770.482 536.022 769.874 535.415 770.026C534.808 770.178 534.353 770.634 534.353 771.242C534.353 771.85 534.96 772.306 535.567 772.306Z" fill="#FBFCF7"/>
<path d="M551.191 754.371C552.556 754.219 553.921 755.283 554.073 756.499C554.224 757.867 553.163 758.931 551.646 759.083C550.129 759.234 548.915 758.171 548.764 756.955C548.764 755.587 549.825 754.523 551.191 754.371ZM551.494 758.019C552.252 758.019 552.708 757.563 552.708 756.955C552.708 756.347 552.101 756.043 551.342 756.043C550.584 756.043 550.129 756.499 550.129 757.107C550.129 757.563 550.736 758.019 551.494 758.019Z" fill="#FBFCF7"/>
<path d="M530.563 742.973C531.17 742.061 532.687 741.909 533.597 742.517C534.507 743.125 534.81 744.341 534.203 745.253C533.597 746.165 532.08 746.317 531.17 745.709C530.108 745.101 529.804 743.885 530.563 742.973ZM533.293 744.797C533.597 744.341 533.597 743.733 533.142 743.429C532.686 743.125 532.08 743.277 531.776 743.733C531.473 744.189 531.473 744.797 531.928 745.101C532.383 745.405 532.99 745.253 533.293 744.797Z" fill="#FBFCF7"/>
<path d="M567.877 780.36C568.939 779.297 570.911 794.343 568.939 795.559C566.512 796.927 549.978 800.423 534.355 799.359C533.293 799.359 530.714 786.592 531.776 786.896C538.905 789.176 561.658 786.592 567.877 780.36Z" fill="#FBFCF7"/>
<path opacity="0.15" fill-rule="evenodd" clip-rule="evenodd" d="M406.332 178.798C409.82 169.375 425.747 171.35 425.747 171.35C433.332 168.007 436.669 167.703 452.293 173.934C462.591 178.042 464.915 187.629 466.953 196.039C468.007 200.388 468.985 204.422 470.95 207.219C476.562 215.427 476.714 217.098 476.866 227.433C476.967 234.298 478.673 236 480.964 238.283C482.122 239.438 483.429 240.741 484.753 242.936C486.367 245.611 486.94 248.362 487.448 250.803C488.181 254.328 488.781 257.209 492.186 258.287C505.682 262.693 515.084 276.668 509.332 272.881C515.763 279.079 524.853 293.027 528.59 323.641C529.685 332.507 531.04 339.45 532.401 344.823C568.651 327.055 599.796 311.796 600.487 311.481C601.494 311.023 601.893 309.456 602.285 307.919C602.543 306.909 602.797 305.913 603.217 305.25C603.512 304.786 607.297 303.714 612.733 302.504C612.696 300.627 612.72 297.281 613.377 297.5C613.523 297.549 613.685 297.586 613.852 297.624C614.731 297.826 615.78 298.066 615.653 300.236C615.617 300.839 615.557 301.41 615.458 301.916C617.405 301.507 619.499 301.092 621.675 300.686C621.658 298.778 621.737 296.087 622.328 296.285C622.474 296.333 622.635 296.37 622.803 296.409C623.681 296.61 624.731 296.851 624.603 299.02C624.553 299.425 624.498 299.817 624.432 300.186C626.07 299.897 627.737 299.616 629.407 299.352C629.395 297.453 629.482 294.875 630.062 295.068C630.207 295.117 630.369 295.154 630.536 295.192C631.415 295.394 632.464 295.634 632.337 297.804C632.291 298.195 632.241 298.573 632.183 298.928C633.857 298.682 635.519 298.456 637.143 298.256C637.132 296.36 637.222 293.812 637.798 294.004C637.944 294.053 638.105 294.09 638.273 294.128C639.151 294.33 640.2 294.57 640.073 296.74C640.047 297.155 640.008 297.557 639.95 297.933C647.847 297.095 654.41 297.021 656.308 298.563C661.768 303.274 656.914 310.266 654.032 312.849C652.928 313.845 651.422 314.116 649.667 314.432C646.602 314.983 642.778 315.671 639.015 320.601C635.691 324.956 627.481 325.185 619.311 325.412C612.942 325.589 606.597 325.765 602.611 327.896C601.253 328.608 596.314 331.253 588.91 335.218L588.9 335.223C578.93 340.562 564.492 348.294 548.307 356.925V356.773C547.093 355.102 544.211 357.229 544.211 357.229C544.211 357.229 544.199 357.241 544.177 357.266C544.159 357.286 544.135 357.314 544.104 357.351C544.466 357.096 547.031 355.373 548.157 356.925C549.371 358.597 550.433 364.221 549.067 382.459C548.508 390.303 540.347 391.305 531.71 392.366C530.975 392.456 530.237 392.547 529.5 392.642C518.344 394.057 506.4 395.604 504.803 395.811C505.646 399.514 506.539 403.31 507.401 406.977L507.402 406.981C508.958 413.594 510.414 419.785 511.298 424.256C514.635 440.366 520.551 518.487 520.551 525.327C520.551 526.43 519.624 526.58 517.933 526.063L518.314 526.257C518.487 526.345 518.579 526.392 518.579 526.392C518.73 560.437 521.461 581.411 526.011 598.889C541.18 656.036 546.489 728.23 546.489 728.23C546.489 728.23 546.567 728.411 546.714 728.753C547.3 728.539 548.089 728.938 548.916 731.723C549.746 734.338 551.865 739.224 554.428 745.136L554.429 745.14L554.43 745.141C559.143 756.011 565.358 770.346 567.834 780.402C567.849 780.388 567.863 780.374 567.877 780.36C568.939 779.296 570.911 794.343 568.939 795.559C566.512 796.927 549.978 800.422 534.354 799.358C533.295 799.358 530.725 786.647 531.769 786.894C528.5 769.067 525.784 737.242 525.556 733.699C525.481 732.942 525.931 732.939 526.422 733.108C525.569 729.325 524.583 725.73 523.433 722.454C514.786 697.833 482.629 575.331 481.415 565.756C480.513 558.637 468.123 528.244 461.826 513.122C455.144 512.945 448.519 513.002 442.273 513.195C437.923 535.013 427.454 590.088 429.386 605.575C431.662 625.03 416.948 737.5 416.948 737.5C416.948 737.5 417.12 739.106 417.4 741.826C417.449 741.793 417.503 741.755 417.559 741.714C418.032 741.376 418.716 740.886 418.919 741.908C419.608 745.355 423.243 777.206 423.207 795.303C423.244 795.287 423.281 795.272 423.318 795.256C424.076 794.952 422.863 807.719 421.801 807.871C407.694 809.543 392.829 806.199 390.553 804.983C388.733 804.071 387.823 792.369 389.188 793.129C389.219 793.147 389.25 793.165 389.282 793.183C389.862 783.026 392.798 768.612 395.053 757.541C396.339 751.231 397.403 746.007 397.683 743.276C398.022 740.051 398.787 739.812 399.369 740.123C399.71 736.472 399.88 733.024 399.807 729.9C399.507 717.017 398.498 687.963 397.557 660.861L397.556 660.86C396.599 633.29 395.712 607.741 395.712 603.296C395.712 599.61 393.909 584.552 391.888 567.677L391.888 567.676L391.887 567.674C390.131 553.01 388.211 536.974 387.167 525.833C385.429 525.139 381.924 523.496 378.573 520.463C376.849 518.904 376.634 499.158 377.052 474.764C372.333 469.306 367.442 462.003 362.339 452.524C344.408 419.213 348.154 401.851 355.53 390.682C347.212 388.713 340.796 386.824 338.83 385.346C331.549 379.875 346.111 352.365 346.111 352.365C346.111 352.365 351.771 355.116 360.149 359.068C357.592 357.579 354.422 355.917 351.402 354.334L351.402 354.334C346.411 351.719 341.83 349.318 341.106 348.263C340.438 347.289 341.593 346.438 343.48 345.046C346.309 342.959 350.785 339.658 353.241 332.912C356.211 324.756 369.073 295.659 382.107 280.282C380.603 277.879 379.654 275.046 380.697 270.75C382.261 264.307 382.282 261.006 382.299 258.219C382.313 256.141 382.324 254.348 382.972 251.751C384.107 247.204 384.393 240.53 384.655 234.402C384.743 232.338 384.829 230.335 384.944 228.497C385.14 225.358 386.572 222.978 388.224 220.232C390.411 216.597 392.985 212.32 393.59 204.787C394.239 196.71 397.548 192.319 400.82 187.977C402.904 185.211 404.974 182.465 406.332 178.798ZM542.678 359.906C540.892 360.897 539.104 361.825 537.273 362.776L537.272 362.776L537.272 362.776L537.272 362.776C536.361 363.249 535.44 363.727 534.503 364.221C534.199 364.257 533.846 364.286 533.458 364.319H533.458H533.458H533.458H533.458H533.457H533.457H533.457H533.457C531.222 364.506 527.837 364.789 525.977 366.94C527.94 364.873 531.363 364.609 533.512 364.443L533.513 364.443L533.514 364.443C533.823 364.419 534.106 364.398 534.354 364.373C535.818 364.226 537.741 365.283 539.306 366.143C540.983 367.064 542.247 367.759 542.09 366.501C541.735 363.587 542.143 361.405 542.678 359.906ZM524.647 369.463C523.434 370.076 522.224 370.753 521.06 371.403L521.055 371.406C520.521 371.704 519.997 371.997 519.487 372.276L519.287 372.384C522.289 375.531 525.491 378.013 524.646 373.188C524.386 371.703 524.411 370.477 524.647 369.463ZM501.853 381.801L501.871 381.791C501.947 382.241 502.025 382.692 502.104 383.142C502.018 382.688 501.934 382.24 501.853 381.801Z" fill="#221F2E"/>
<path d="M627.432 508.89C627.432 508.89 629.229 523.47 625.235 535.454C621.44 547.437 621.04 562.017 621.44 566.012C621.839 570.006 652.996 606.157 683.355 728.589C713.713 851.021 740.876 920.126 753.259 922.722C765.642 925.319 788.41 940.897 772.033 955.477C763.644 962.867 758.452 950.284 755.855 958.673C753.259 967.061 761.647 967.461 737.68 969.059C713.713 970.656 714.712 965.463 714.712 965.463C714.712 965.463 723.5 979.444 699.333 979.045C675.166 978.446 614.449 997.619 576.302 977.048C553.333 964.665 555.53 974.451 544.146 974.451C532.762 974.451 539.552 968.26 521.777 968.26C504.001 968.26 445.881 971.855 431.301 967.66C416.721 963.466 416.321 960.47 404.737 957.874C393.353 955.277 401.142 937.502 401.142 937.502C401.142 937.502 414.724 943.294 418.319 940.697C421.914 938.101 419.317 930.911 426.707 928.714C434.097 926.517 497.41 695.634 504.6 676.261C511.79 656.887 543.347 582.789 543.347 572.803C543.347 562.816 530.764 444.179 530.764 444.179C530.764 444.179 538.953 438.587 544.346 437.189C553.932 434.393 628.43 486.721 627.432 508.89Z" fill="url(#paint8_linear)"/>
<path d="M633.022 373.075C641.211 379.866 641.211 416.415 619.641 436.788C610.054 445.775 600.068 435.389 596.073 441.581C592.278 447.772 594.076 456.96 609.854 457.759C625.632 458.558 653.394 455.761 653.794 470.142C654.193 484.522 675.364 538.648 675.364 538.648C675.364 538.648 698.333 528.661 707.919 524.867C719.304 520.672 745.468 509.687 743.071 502.298C740.674 494.908 746.267 487.118 742.472 482.924C738.677 478.73 739.676 473.936 739.676 473.936C739.676 473.936 748.663 477.532 748.663 481.127C748.663 484.921 753.856 493.909 754.456 492.91C755.055 491.712 758.051 485.321 754.456 483.324C750.86 481.326 746.067 478.131 750.86 478.131C755.654 478.131 761.046 481.526 761.046 481.526C761.046 481.526 770.633 478.93 774.228 483.124C776.026 485.121 782.817 493.709 778.822 496.905C774.828 500.101 684.152 566.01 676.962 569.006C668.773 572.401 668.973 574.798 661.184 565.211C653.594 555.624 622.836 498.902 622.836 498.902C622.836 498.902 607.258 501.499 595.274 501.299C583.291 501.099 556.527 483.324 556.527 483.324C556.527 483.324 551.534 448.571 537.354 439.783C536.355 439.184 548.139 434.591 553.531 433.792C558.924 432.993 568.91 423.006 568.91 417.614C568.91 412.221 604.661 349.108 633.022 373.075Z" fill="#CC8162"/>
<path d="M823.762 518.074C821.965 522.069 808.982 520.87 807.185 518.074C805.387 515.278 788.81 502.895 788.81 502.895L756.255 493.907L737.88 488.914L737.081 488.714C737.081 489.114 736.881 489.314 736.682 489.713C731.089 506.889 716.509 512.482 710.917 513.281C704.126 514.08 671.172 507.089 673.768 494.706C674.966 488.515 663.582 484.92 657.59 486.318C655.993 486.717 654.794 487.316 654.195 488.515C651.798 493.308 644.009 502.695 625.834 502.296C623.437 502.296 621.041 502.096 618.244 501.697C615.848 501.297 613.651 500.898 611.653 500.298C596.674 496.304 594.078 487.316 594.477 466.744C594.477 461.751 594.677 456.159 595.076 449.568C595.076 446.972 595.476 444.575 595.875 442.378C596.075 441.979 596.275 441.579 596.474 441.379C600.269 435.188 610.455 445.574 620.042 436.586C624.835 431.992 628.43 426.799 631.227 421.207C637.019 422.006 642.211 423.604 646.006 425.002C660.386 430.594 665.38 431.193 665.38 434.389C665.38 449.568 683.155 449.568 688.748 448.769C694.34 447.97 688.947 445.374 713.314 446.173C734.285 446.972 738.28 465.147 738.879 473.136C741.875 473.935 745.869 475.133 750.263 476.331C751.461 476.731 752.66 476.931 753.858 477.33C770.036 482.123 790.608 488.315 794.802 490.911C801.792 495.305 813.976 508.887 814.575 505.691C815.174 502.495 817.171 502.895 823.562 502.895C830.153 503.294 825.56 514.08 823.762 518.074Z" fill="#FBFCF7"/>
<path d="M787.41 494.906L639.214 455.76L787.41 494.906Z" fill="#AF7366"/>
<path d="M787.212 493.708L639.614 452.564L787.212 493.708Z" fill="#AF7366"/>
<path d="M787.211 493.307L640.213 449.567L787.211 493.307Z" fill="#AF7366"/>
<path d="M736.682 489.714C731.089 506.89 716.509 512.482 710.917 513.281C704.126 514.08 671.172 507.09 673.768 494.707C674.966 488.515 663.582 484.92 657.59 486.318C655.993 486.718 654.794 487.317 654.195 488.515C651.798 493.309 644.009 502.696 625.834 502.296C623.437 502.296 621.041 502.097 618.244 501.697C615.848 501.298 613.651 500.898 611.653 500.299C596.674 496.305 594.078 487.317 594.477 466.745C600.668 477.73 610.854 486.318 626.233 486.119C640.813 485.719 643.809 478.329 648.603 476.731C661.585 472.537 675.566 477.131 679.76 485.12C684.753 495.306 715.111 502.696 736.682 489.714Z" fill="#ECEDE8"/>
<path d="M687.151 460.955L682.357 471.141L788.012 494.908L788.612 492.512L687.151 460.955Z" fill="url(#paint9_linear)"/>
<path d="M639.216 458.956L645.408 448.97H611.454L598.672 446.174L607.06 454.363L614.65 452.565L639.216 458.956Z" fill="url(#paint10_linear)"/>
<path d="M711.118 316.95C710.319 317.949 665.181 471.338 664.981 472.337C664.981 473.335 668.177 473.335 668.377 472.337C668.577 471.338 713.715 319.147 713.715 317.749C713.914 316.351 712.117 315.952 711.118 316.95Z" fill="white"/>
<path d="M709.917 315.554C708.719 316.952 645.605 533.654 645.605 535.053C645.605 536.451 649.999 536.251 650.399 535.053C650.798 533.654 713.512 318.55 713.712 316.752C713.712 314.755 711.115 314.156 709.917 315.554Z" fill="#DBDCD6"/>
<path d="M798.198 509.087C798.198 509.087 792.006 519.073 794.603 519.073C800.195 519.073 800.794 510.685 800.395 509.087C799.995 507.489 798.198 509.087 798.198 509.087Z" fill="#ECEDE8"/>
<path d="M808.383 515.876C808.383 515.876 803.789 526.661 806.186 526.262C811.778 525.463 811.179 517.075 810.38 515.477C809.98 514.079 808.383 515.876 808.383 515.876Z" fill="#ECEDE8"/>
<path d="M808.983 507.488C808.983 507.488 809.183 497.502 810.981 498.9C815.175 501.896 811.58 507.688 810.581 508.487C809.583 509.286 808.983 507.488 808.983 507.488Z" fill="#ECEDE8"/>
<path d="M801.793 501.3C801.793 501.3 803.79 493.91 804.989 495.308C807.585 498.304 803.79 502.099 802.792 502.498C801.793 502.897 801.793 501.3 801.793 501.3Z" fill="#ECEDE8"/>
<path d="M795.202 498.302C795.202 498.302 797.199 490.912 798.398 492.31C800.994 495.306 797.199 499.1 796.201 499.5C795.202 499.899 795.202 498.302 795.202 498.302Z" fill="#ECEDE8"/>
<path d="M790.805 501.897C790.805 501.897 784.014 509.087 786.411 509.487C791.404 510.285 793.002 503.495 792.802 502.097C792.602 500.898 790.805 501.897 790.805 501.897Z" fill="#ECEDE8"/>
<path d="M538.352 442.381C538.352 442.381 536.355 441.183 534.358 441.582C532.361 441.982 518.779 442.381 518.779 462.354C518.779 482.327 517.381 515.281 523.373 527.864C529.365 540.447 534.957 559.221 540.949 558.821C546.941 558.222 612.85 522.471 618.243 515.082C623.835 507.692 653.794 513.284 653.994 516.28C654.193 519.276 655.192 526.266 652.396 529.662C649.6 533.057 651.996 538.649 655.591 534.255C658.987 529.861 672.368 510.088 669.372 501.3C666.177 492.513 664.379 489.916 642.21 491.514C620.04 493.311 569.709 520.474 562.919 520.674C556.128 520.874 551.534 523.47 550.935 514.682C550.336 505.894 557.726 483.125 550.935 462.953C545.343 447.175 538.352 442.381 538.352 442.381Z" fill="#D88968"/>
<path d="M591.68 399.04C591.68 399.04 600.468 402.036 601.666 399.04C603.064 396.044 622.837 368.282 634.821 374.074C634.821 374.074 640.812 368.682 632.624 362.49C624.435 356.299 616.246 347.511 606.26 348.11C596.273 348.709 577.1 346.712 566.514 370.879C564.317 375.872 557.527 369.481 558.126 378.269C558.126 378.269 538.553 372.876 538.553 389.453C538.553 400.239 545.543 401.037 545.543 401.037C545.543 401.037 546.741 406.43 549.338 406.031C551.934 405.631 552.933 418.813 558.326 416.217C563.718 413.62 566.514 406.031 568.312 407.229C570.109 408.627 569.31 409.825 570.509 411.024C571.707 412.022 567.912 419.412 567.912 422.408C568.112 425.404 583.291 422.808 581.094 414.419C578.698 404.433 581.494 385.659 591.68 399.04Z" fill="url(#paint11_linear)"/>
<path d="M775.028 482.925C771.234 478.73 761.847 481.327 761.847 481.327C761.847 481.327 756.654 477.932 751.661 477.932C746.667 477.932 751.661 481.327 755.256 483.124C758.851 485.122 755.855 491.513 755.256 492.711C754.656 493.91 749.464 484.722 749.464 480.927C749.464 477.133 740.476 473.737 740.476 473.737C740.476 473.737 739.477 478.531 743.272 482.725C747.067 486.919 741.475 494.509 743.871 502.098C746.268 509.688 719.904 520.473 708.72 524.667C701.529 527.464 686.949 533.655 679.959 536.651V567.608C694.339 559.02 776.227 499.702 780.022 496.506C783.617 493.51 776.826 485.122 775.028 482.925Z" fill="#CC8162"/>
<path opacity="0.1" fill-rule="evenodd" clip-rule="evenodd" d="M709.918 315.554C709.243 316.341 688.937 385.395 671.322 445.834C667.891 443.654 665.38 440.094 665.38 434.389C665.38 432.06 662.728 431.11 655.722 428.601C653.115 427.668 649.906 426.518 646.007 425.002C642.212 423.604 637.019 422.006 631.227 421.207C628.431 426.799 624.836 431.992 620.042 436.586C618.847 437.706 617.642 438.526 616.442 439.114C617.507 438.544 618.576 437.785 619.64 436.788C640.706 416.893 641.199 381.568 633.583 373.601C634.004 373.722 634.417 373.879 634.821 374.074C634.821 374.074 640.813 368.682 632.624 362.49C631.043 361.295 629.463 360.003 627.87 358.701C621.207 353.256 614.319 347.626 606.26 348.11C605.277 348.169 604.205 348.203 603.061 348.239C592.582 348.569 576.058 349.091 566.515 370.879C565.574 373.016 563.793 373.067 562.109 373.116C559.859 373.181 557.783 373.242 558.126 378.268C558.126 378.268 538.553 372.876 538.553 389.453C538.553 400.238 545.544 401.037 545.544 401.037C545.544 401.037 546.742 406.43 549.338 406.03C550.366 405.872 551.143 407.842 552.042 410.119C553.414 413.594 555.068 417.785 558.326 416.216C561.172 414.846 563.295 412.085 564.929 409.959C566.392 408.057 567.463 406.663 568.312 407.229C569.319 408.012 569.511 408.732 569.696 409.425C569.841 409.969 569.982 410.496 570.509 411.023C570.838 411.298 570.791 412.054 570.549 413.069C569.486 415.316 568.91 416.93 568.91 417.614C568.91 417.847 568.891 418.089 568.855 418.338C568.613 419.074 568.392 419.791 568.225 420.447C565.881 425.922 558.075 433.119 553.531 433.792C548.138 434.591 536.355 439.185 537.353 439.784C537.469 439.856 537.584 439.929 537.699 440.004C536.76 440.504 535.854 441.017 535.024 441.505C534.804 441.513 534.581 441.538 534.358 441.583C534.217 441.611 534.017 441.639 533.768 441.675L533.767 441.675L533.767 441.675C530.502 442.137 518.779 443.798 518.779 462.354C518.779 465.358 518.748 468.655 518.715 472.132L518.715 472.133C518.526 491.779 518.283 517.174 523.373 527.864C524.944 531.163 526.487 534.887 528.018 538.58L528.018 538.58C532.325 548.973 536.528 559.116 540.949 558.822C541.251 558.791 541.706 558.672 542.297 558.471C542.95 565.827 543.347 571.029 543.347 572.803C543.347 579.944 527.207 619.877 515.382 649.133C510.673 660.784 506.648 670.742 504.6 676.261C502.246 682.604 493.874 711.626 483.419 747.871L483.418 747.872C461.943 822.318 431.677 927.236 426.707 928.714C422.241 930.042 421.422 933.194 420.68 936.053C420.194 937.924 419.741 939.67 418.319 940.697C414.724 943.294 401.142 937.502 401.142 937.502C401.142 937.502 393.353 955.277 404.737 957.874C410.621 959.192 413.619 960.614 417.056 962.244C420.385 963.822 424.126 965.596 431.301 967.66C442.058 970.755 476.516 969.609 500.985 968.796C509.681 968.507 517.116 968.26 521.777 968.26C531.65 968.26 533.944 970.17 535.984 971.868C537.616 973.228 539.085 974.451 544.146 974.451C547.81 974.451 550.067 973.437 552.209 972.475C556.723 970.448 560.726 968.65 576.302 977.047C603.615 991.777 642.498 986.131 671.252 981.955L671.253 981.955C682.658 980.299 692.469 978.875 699.333 979.045C718.901 979.368 716.863 970.263 715.379 966.787C716.903 968.203 721.837 970.115 737.68 969.058C755.454 967.874 755.433 967.348 755.295 963.734C755.247 962.475 755.184 960.84 755.855 958.673C757.104 954.637 758.954 955.455 761.471 956.568C764.187 957.768 767.68 959.312 772.033 955.477C788.41 940.897 765.642 925.319 753.259 922.722C740.876 920.126 713.713 851.021 683.355 728.589C658.368 627.82 632.84 585.5 624.366 571.452C622.544 568.432 621.51 566.719 621.44 566.012C621.04 562.017 621.44 547.437 625.235 535.454C628.185 526.601 627.975 516.332 627.664 511.57C628.328 511.514 629.01 511.474 629.705 511.45C639.229 528.736 655.874 558.506 661.183 565.212C667.741 573.282 668.636 572.86 673.641 570.499C674.581 570.055 675.667 569.543 676.962 569.006C677.506 568.779 678.53 568.191 679.959 567.297V567.609C692.772 559.956 759.187 512.023 776.189 499.41L788.81 502.895L788.867 502.937L788.996 503.034C789.107 503.117 789.266 503.236 789.467 503.388C787.624 505.516 784.714 509.204 786.411 509.487C789.465 509.975 791.249 507.626 792.128 505.407C793.729 506.63 795.742 508.183 797.773 509.791C796.42 512.065 792.428 519.074 794.603 519.074C798.546 519.074 800.007 514.903 800.386 511.883C803.645 514.53 806.497 517.004 807.185 518.074C807.217 518.123 807.252 518.172 807.291 518.22C807.324 518.262 807.36 518.304 807.398 518.345C806.202 521.503 804.534 526.538 806.186 526.262C809.448 525.796 810.604 522.747 810.841 519.97C815.383 521.134 822.469 520.949 823.762 518.074C825.56 514.079 830.154 503.294 823.563 502.895C822.876 502.895 822.241 502.89 821.652 502.886C816.759 502.85 815.11 502.838 814.575 505.691C814.433 506.449 813.64 506.263 812.419 505.481C813.221 503.372 813.439 500.655 810.981 498.899C810.033 498.163 809.53 500.588 809.265 503.046C808.073 502.035 806.75 500.853 805.373 499.617C806.018 498.293 806.206 496.713 804.989 495.308C804.42 494.644 803.67 495.962 803.04 497.529C801.777 496.405 800.504 495.289 799.273 494.265C799.207 493.604 798.943 492.939 798.398 492.31C798.086 491.946 797.72 492.177 797.35 492.718C796.45 492.023 795.593 491.408 794.802 490.911C792.446 489.452 784.918 486.858 775.905 484.015C775.555 483.57 775.253 483.199 775.028 482.925C772.695 480.346 768.247 480.334 765.167 480.708C761.333 479.549 757.485 478.404 753.858 477.33C753.259 477.13 752.66 476.98 752.061 476.831L752.061 476.83C751.462 476.681 750.862 476.531 750.263 476.331C748.066 475.732 745.969 475.133 744.047 474.584C742.125 474.034 740.377 473.535 738.879 473.136C738.28 465.147 734.285 446.972 713.314 446.173C695.878 445.601 693.68 446.768 691.791 447.771C691.04 448.169 690.338 448.542 688.748 448.769C686.101 449.147 680.723 449.346 675.793 447.841C680.387 432.052 685.164 415.625 689.716 399.955C701.476 360.091 713.715 318.477 713.715 317.749C713.752 317.489 713.72 317.263 713.637 317.074C713.683 316.894 713.709 316.786 713.713 316.752C713.713 314.755 711.116 314.156 709.918 315.554ZM681.978 535.787C689.519 532.537 701.613 527.363 707.919 524.867C719.303 520.673 745.467 509.688 743.071 502.298C741.93 498.782 742.599 495.176 743.204 491.909C743.296 491.409 743.388 490.916 743.471 490.433L737.88 488.914L737.082 488.714C737.082 489.007 736.974 489.192 736.839 489.427C736.789 489.513 736.736 489.606 736.682 489.713V489.714C731.09 506.89 716.51 512.482 710.917 513.281C704.392 514.049 673.705 507.624 673.623 496.132C673.623 496.068 673.623 496.004 673.625 495.939C673.634 495.534 673.681 495.123 673.768 494.706C673.935 493.847 673.859 493.038 673.589 492.286C672.547 489.383 668.617 487.319 664.552 486.461L662.802 492.469C666.503 494.007 667.76 496.865 669.373 501.301C670.578 504.836 669.133 510.149 666.753 515.524C671.331 528.339 675.364 538.648 675.364 538.648C675.364 538.648 677.16 537.867 679.959 536.658V536.651C680.576 536.387 681.253 536.097 681.978 535.787ZM657.591 486.318C658.219 486.172 658.907 486.08 659.633 486.04C659.204 487.52 658.781 488.979 658.365 490.414C657.955 489.055 657.562 487.722 657.192 486.425C657.322 486.387 657.455 486.352 657.591 486.318ZM595.076 449.568C595.057 449.884 595.039 450.199 595.02 450.51C593.818 447.599 594.406 444.301 596.073 441.581C596.556 440.832 597.127 440.325 597.775 439.998C597.284 440.32 596.848 440.769 596.475 441.379C596.275 441.579 596.075 441.978 595.875 442.378L595.875 442.378C595.476 444.575 595.076 446.972 595.076 449.568Z" fill="#221F2E"/>
<path d="M238.072 344.992C238.072 344.992 208.44 360.757 213.922 415.576C216.527 441.256 245.164 421.832 245.164 421.832C245.164 421.832 251.846 430.179 244.55 445.612C237.254 461.046 289.613 415.713 289.613 415.713C289.613 415.713 290.415 405.743 292.594 391.631C294.774 377.518 278.67 312.253 238.072 344.992Z" fill="#B06F51"/>
<path d="M243.324 345.491C246.7 348.302 243.143 366.557 258.409 365.862C273.67 365.347 276.647 362.518 275.636 373.572C274.624 384.627 291.215 409.942 300.224 391.464C309.232 372.987 310.029 342.126 288.095 333.931C266.161 325.735 227.577 336.728 225.708 352.847C224.809 359.545 238.343 341.547 243.324 345.491Z" fill="url(#paint12_linear)"/>
<path d="M248.096 364.507C248.096 364.507 251.286 367.496 253.658 367.012C249.972 376.181 247.342 386.649 254.331 397.183C259.218 404.757 248.837 427.196 227.738 428.831C217.008 429.644 209.148 424.718 215.057 413.79C218.873 406.622 221.25 405.957 221.11 404.318C220.971 402.68 213.465 398.126 213.465 398.126C213.465 398.126 212.015 391.005 223.762 400.027C235.51 409.05 248.096 364.507 248.096 364.507Z" fill="url(#paint13_linear)"/>
<path d="M227.207 681.312C227.207 681.312 242.712 811.956 253.825 831.498C264.937 851.04 315.972 990.594 323.163 993.323C330.358 995.87 370.272 1010.71 373.805 1000.44C377.155 990.175 319.317 818.838 309.529 804.235C299.736 789.814 321.917 675.946 321.917 675.946C321.917 675.946 325.449 644.612 310.967 636.064C296.484 627.515 224.087 626.373 227.207 681.312Z" fill="url(#paint14_linear)"/>
<path d="M199.649 644.996C199.649 644.996 216.792 796.572 223.432 827.625C229.26 855.023 260.482 939.388 250.94 971.476C248.366 979.765 272.211 991.28 280.599 982.777C288.806 974.27 269.658 823.005 269.658 823.005L264.731 613.071C264.364 613.243 207.804 610.33 199.649 644.996Z" fill="url(#paint15_linear)"/>
<path d="M386.73 516.288C386.73 516.288 393.195 515.928 389.592 507.843C385.989 499.757 352.122 441.306 350.071 436.349C348.021 431.391 292.032 413.416 292.032 413.416C292.032 413.416 242.149 454.271 243.941 448.141C244.55 445.614 245.784 440.014 245.784 440.014C245.784 440.014 210.315 456.9 205.807 462.779C201.117 468.652 155.557 496.722 155.557 496.722C155.557 496.722 174.362 520.64 174.217 526.268C174.076 531.713 167.871 533.006 167.871 533.006C167.871 533.006 173.085 534.958 175.853 533.212C178.62 531.467 199.209 521.463 199.209 521.463C199.209 521.463 198.111 620.253 197.509 629.502C196.907 638.75 190.293 662.921 194.005 659.747C197.718 656.573 226.99 647.701 269.511 652.977C312.032 658.253 320.039 671.538 323.018 661.624C325.996 651.711 327.441 637.942 325.223 632.436C323.006 626.929 325.806 623.913 327.436 617.052C329.065 610.192 327.312 607.785 327.537 599.072C327.762 590.358 324.969 579.024 325.072 575.03C325.175 571.036 327.567 562.742 327.75 555.662C327.933 548.583 335.183 527.88 335.183 527.88L337.783 532.67C337.611 532.302 370.1 499.51 386.73 516.288Z" fill="url(#paint16_linear)"/>
<path d="M344.209 527.124C344.209 527.124 359.145 545.856 358.465 549.835C356.558 562.32 369.809 635.141 366.215 645.947C362.473 656.931 344.408 675.72 343.287 702.394C342.568 719.087 350.786 696.593 350.786 696.593C350.786 696.593 344.388 721.132 346.882 725.011C349.376 728.89 377.107 715.256 380.124 704.434C383.146 693.432 387.086 652.48 387.817 640.874C388.549 629.267 394.797 571.481 390.24 547.022C385.684 522.564 386.434 515.862 386.434 515.862C386.434 515.862 378.22 499.119 344.209 527.124Z" fill="#B06F51"/>
<path d="M161.454 534.25C161.454 534.25 120.322 548.136 119.523 532.157C118.725 516.179 117.475 455.144 119.563 436.816C120.065 432.991 114.026 424.553 114.135 420.314C114.25 415.873 112.665 399.067 115.505 398.534C118.344 398.001 118.282 400.424 122.968 398.727C127.655 397.03 140.824 395.148 141.822 395.577C142.82 396.007 142.103 384.677 142.155 382.658C142.466 378.424 147.935 369.88 151.986 392.81C156.036 415.74 157.697 413.965 158.224 417.008C158.549 420.047 142.445 433.973 141.219 434.547C139.993 435.121 136.79 496.648 158.162 497.603C179.119 498.952 186.064 534.885 161.454 534.25Z" fill="#B06F51"/>
<path d="M175.004 404.127C170.218 409.66 141.243 413.962 141.243 413.962C141.243 413.962 94.2708 427.293 93.0709 426.858C92.0727 426.428 77.1911 432.104 77.1911 432.104C73.5237 433.423 71.0525 427.501 73.913 426.161C75.3407 425.592 89.9841 421.324 91.0865 417.717C91.5369 415.91 103.765 411.378 115.781 407.244C115.936 409.066 116.297 410.692 117.715 410.526C120.963 409.802 146.125 412.472 145.795 409.635C145.635 408.015 146.609 401.576 146.134 396.514C153.277 393.467 165.304 388.929 169.54 389.039C176.796 389.428 179.794 398.393 175.004 404.127Z" fill="url(#paint17_linear)"/>
<path opacity="0.1" fill-rule="evenodd" clip-rule="evenodd" d="M300.222 391.462C297.763 396.507 294.738 398.287 291.661 397.985C290.373 407.253 289.775 413.807 289.641 415.359C291.155 414.129 292.03 413.413 292.03 413.413C292.03 413.413 348.019 431.388 350.069 436.346C351.03 438.669 358.979 452.742 367.526 467.873L367.527 467.873C377.217 485.028 387.675 503.543 389.59 507.84C393.193 515.925 386.728 516.285 386.728 516.285C386.627 516.183 386.525 516.083 386.423 515.985C386.35 517.002 386.037 524.453 390.241 547.02C394.045 567.445 390.317 611.109 388.557 631.716C388.209 635.786 387.938 638.957 387.818 640.871C387.086 652.478 383.147 693.429 380.125 704.432C377.107 715.253 349.376 728.888 346.882 725.009C344.389 721.13 350.786 696.59 350.786 696.59C350.786 696.59 342.568 719.084 343.287 702.391C344.065 683.878 353.005 669.164 359.654 658.221C362.585 653.396 365.071 649.305 366.216 645.945C368.171 640.064 365.138 615.817 362.275 592.924C359.876 573.749 357.596 555.523 358.466 549.833C359.145 545.854 344.21 527.121 344.21 527.121C353.127 519.779 360.271 515.512 365.958 513.214C351.641 518.2 337.668 532.425 337.781 532.667L335.182 527.877C335.182 527.877 327.931 548.58 327.748 555.659C327.644 559.702 326.819 564.141 326.111 567.95L326.111 567.95L326.111 567.95C325.579 570.81 325.114 573.314 325.07 575.027C325.028 576.639 325.459 579.448 325.972 582.797C326.73 587.745 327.669 593.873 327.535 599.068C327.444 602.581 327.675 605.068 327.876 607.236C328.174 610.446 328.406 612.954 327.434 617.049C326.947 619.098 326.356 620.803 325.826 622.335C324.579 625.933 323.666 628.57 325.221 632.433C327.439 637.939 325.995 651.708 323.016 661.621C322.78 662.407 322.512 663.046 322.199 663.556C322.529 670.512 321.917 675.943 321.917 675.943C321.917 675.943 299.736 789.81 309.529 804.232C318.057 816.955 363.059 948.653 372.289 989.143C372.529 989.62 372.749 990.083 372.95 990.532C375.034 994.792 380.062 1005.17 384.157 1014.79C384.188 1014.74 384.219 1014.7 384.25 1014.65L384.336 1014.52C387.571 1022.77 390.463 1030.3 390.388 1033.2C390.172 1041.55 384.218 1047.21 374.765 1054.78C372.25 1056.75 369.617 1059.44 366.784 1062.33C358.763 1070.53 349.13 1080.37 335.987 1080.3C333.749 1080.31 331.316 1080.35 328.767 1080.4C323.628 1080.5 318.019 1080.6 312.596 1080.45C299.247 1080.08 286.984 1078.15 285.593 1070.64C285.345 1069.3 285.092 1068.02 284.851 1066.8C282.926 1057.06 281.707 1050.9 288.831 1043.66C296.969 1035.57 322.585 1001.97 323.163 993.32L323.162 993.319C319.028 991.75 300.397 944.943 283.195 901.725L283.195 901.724L283.195 901.724C281.032 896.289 278.891 890.911 276.805 885.686C280.517 921.713 283.941 962.674 282.156 977.455C283.461 981.946 287.545 998.31 289.21 1009.65C290.52 1007.96 290.495 1006.44 290.414 1005.83C290.38 1005.65 290.361 1005.55 290.361 1005.55C290.361 1005.55 290.39 1005.65 290.414 1005.83C290.818 1008.01 293.282 1022.1 289.897 1023.52C265.485 1033.97 203.063 1019.1 201.296 1017.24C200.206 1016.09 200.653 1008.9 201.155 1003.56C200.984 1001.66 201.132 999.673 201.619 997.629C204.118 987.272 219.592 989.086 228.89 990.175C230.937 990.415 232.685 990.62 233.928 990.652C240.822 990.83 250.858 974.74 250.858 974.74C250.858 974.74 251.057 975.012 251.492 975.476C250.777 974.122 250.541 972.758 250.94 971.473C258.052 947.553 242.513 894.582 231.727 857.816L231.727 857.815L231.726 857.812C228.043 845.259 224.915 834.595 223.432 827.622C217.917 801.832 205.157 692.904 200.991 656.727C197.287 657.879 194.9 658.978 194.003 659.744C191.713 661.702 193.353 653.252 195.087 644.319C196.164 638.773 197.276 633.041 197.507 629.499C198.109 620.25 199.207 521.46 199.207 521.46C199.207 521.46 178.618 531.464 175.851 533.209C173.665 534.587 169.955 533.661 168.49 533.21C166.516 533.939 164.178 534.317 161.454 534.246C161.454 534.246 120.322 548.132 119.523 532.154C118.725 516.176 117.475 455.14 119.563 436.813C119.82 434.855 118.364 431.69 116.895 428.498L116.895 428.497C115.742 425.99 114.581 423.465 114.236 421.497C103.536 424.428 93.6131 427.052 93.0699 426.856C92.0718 426.426 77.1901 432.101 77.1901 432.101C73.5227 433.421 71.0516 427.499 73.9121 426.159C74.1235 426.075 74.6249 425.909 75.3293 425.677C79.3805 424.34 90.1464 420.788 91.0856 417.714C91.5112 416.007 102.455 411.866 113.798 407.927C113.772 403.115 114.088 398.796 115.505 398.53C116.658 398.314 117.332 398.585 118.041 398.87C119.077 399.286 120.185 399.731 122.968 398.723C127.655 397.026 140.823 395.144 141.822 395.574C142.562 395.893 142.359 389.736 142.226 385.714V385.714V385.714C142.179 384.316 142.142 383.175 142.155 382.655C142.466 378.421 147.935 369.876 151.986 392.806C152.06 393.227 152.133 393.639 152.206 394.044C158.801 391.487 166.361 388.954 169.539 389.036C176.795 389.426 179.793 398.391 175.003 404.125C172.58 406.926 163.957 409.411 156.033 411.183C156.681 413.236 157.17 414.266 157.531 415.027C157.86 415.719 158.082 416.189 158.224 417.005C158.549 420.043 142.445 433.969 141.219 434.544C140.037 435.098 137.013 492.381 155.992 497.278C155.859 497.108 155.754 496.974 155.681 496.88C155.598 496.774 155.555 496.719 155.555 496.719C155.555 496.719 201.115 468.649 205.805 462.776C210.313 456.897 245.782 440.011 245.782 440.011C245.782 440.011 245.107 443.078 244.508 445.696C244.521 445.668 244.535 445.639 244.548 445.611C251.845 430.177 245.162 421.83 245.162 421.83C245.162 421.83 244.524 422.263 243.429 422.914C239.198 426.077 233.929 428.349 227.736 428.829C217.789 429.582 210.309 425.404 213.977 416.085C213.957 415.917 213.938 415.747 213.921 415.574C210.497 381.336 220.77 362.332 228.967 352.889C226.796 354.531 225.397 355.149 225.707 352.845C227.575 336.726 266.16 325.733 288.093 333.929C310.027 342.125 309.231 372.985 300.222 391.462ZM372.95 990.532L372.708 990.036L372.555 989.725L372.357 989.322L372.306 989.217C373.608 994.94 374.19 998.828 373.848 1000.28C375.088 998.191 374.974 995.048 372.95 990.532ZM329.445 995.54C336.621 998.159 348.649 1002.15 358.495 1003.43C348.878 1001.97 336.974 998.141 329.445 995.54ZM244.395 448.759C244.013 448.798 243.838 448.647 243.906 448.275C243.985 448.523 244.151 448.681 244.395 448.759Z" fill="#221F2E"/>
<path d="M316.022 803.815C316.022 803.815 356.175 821.027 364.014 816.246C371.854 811.465 319.847 786.986 316.022 803.815Z" fill="#322DA9"/>
<path d="M405.699 695.956C405.699 695.956 353.882 708.387 349.867 717.376C346.043 726.364 314.686 799.611 316.024 803.627C318.892 799.419 360.192 803.627 366.502 805.539C366.693 814.336 365.928 843.597 365.928 843.597L497.094 845.509L518.891 750.843C518.891 750.843 517.17 729.998 542.218 730.763C544.512 730.571 542.409 727.512 530.937 715.654C519.656 703.989 511.052 694.044 505.124 694.044C499.197 694.044 463.251 688.306 457.897 690.793C452.543 693.279 416.597 706.666 405.699 695.956Z" fill="url(#paint18_linear)"/>
<path d="M450.439 690.98C450.439 690.98 463.632 695.57 468.413 689.833C471.281 686.391 477.973 673.96 479.885 656.939C481.988 638.197 484.856 613.909 473.957 610.658C457.323 605.877 412.007 610.849 400.535 633.225C398.05 638.197 404.933 646.038 405.506 652.349C408.183 688.112 396.329 705.897 396.329 705.897C396.329 705.897 391.166 751.222 430.937 750.075C470.707 748.927 479.311 719.667 468.03 715.651C456.94 711.635 450.439 710.487 450.439 690.98Z" fill="#F3C6A5"/>
<path d="M462.869 803.431C462.677 808.404 456.176 820.07 455.603 823.703C455.029 827.337 450.249 826.955 450.249 826.955L452.161 799.224C452.161 799.224 449.867 807.83 450.249 818.54C450.249 820.07 450.058 821.217 449.676 821.982C447.381 827.72 438.012 823.703 434.188 825.042C429.79 826.572 422.716 794.825 420.995 794.06C419.274 793.296 388.299 834.031 383.901 846.653C379.504 859.275 335.336 868.455 328.261 859.849C321.187 851.051 330.747 801.902 330.747 801.902C330.747 801.902 340.116 801.902 350.632 803.24C358.854 804.196 366.311 805.535 366.311 805.535V807.83C366.311 807.83 404.934 780.865 409.905 776.084C414.876 771.302 430.364 773.024 435.335 773.789C440.307 774.554 454.264 779.526 457.706 782.586C460.001 784.498 461.148 788.706 461.721 794.06L462.869 803.431Z" fill="#F3C6A5"/>
<path d="M548.721 861.763H384.094C383.903 861.763 383.712 861.572 383.712 861.381V823.897C383.712 823.706 383.903 823.515 384.094 823.515H548.721C548.912 823.515 549.103 823.706 549.103 823.897V861.381C549.103 861.572 548.912 861.763 548.721 861.763Z" fill="url(#paint19_linear)"/>
<path d="M383.902 861.762L375.681 858.511V820.453L383.902 823.704V861.762Z" fill="#322DA9"/>
<path d="M549.102 823.708L540.307 820.266L375.681 820.457L384.285 823.899L549.102 823.708Z" fill="#322DA9"/>
<path d="M402.067 822.559C402.067 822.559 402.259 813.379 403.406 813.379C404.553 813.379 411.628 812.423 411.628 814.144C411.628 815.865 411.628 822.559 411.628 822.559H402.067Z" fill="url(#paint20_linear)"/>
<path d="M435.526 822.748C435.526 822.748 435.718 813.569 436.865 813.569C438.012 813.569 445.086 812.612 445.086 814.334C445.086 816.055 445.086 822.748 445.086 822.748H435.526Z" fill="url(#paint21_linear)"/>
<path d="M458.855 822.748C458.855 822.748 459.047 813.569 460.194 813.569C461.341 813.569 468.416 812.612 468.416 814.334C468.416 816.055 468.416 822.748 468.416 822.748H458.855Z" fill="url(#paint22_linear)"/>
<path d="M482.369 822.559C482.369 822.559 482.56 813.379 483.708 813.379C484.855 813.379 491.929 812.423 491.929 814.144C491.929 815.865 491.929 822.559 491.929 822.559H482.369Z" fill="url(#paint23_linear)"/>
<path d="M504.743 822.559C504.743 822.559 504.934 813.379 506.082 813.379C507.229 813.379 514.303 812.423 514.303 814.144C514.303 815.865 514.303 822.559 514.303 822.559H504.743Z" fill="url(#paint24_linear)"/>
<path d="M528.835 822.559C528.835 822.559 529.026 813.379 530.173 813.379C531.321 813.379 538.395 812.423 538.395 814.144C538.395 815.865 538.395 822.559 538.395 822.559H528.835Z" fill="url(#paint25_linear)"/>
<path d="M420.615 821.984C420.615 821.984 420.806 814.717 421.571 814.717C422.336 814.717 427.881 813.952 427.881 815.29C427.881 816.629 427.881 821.984 427.881 821.984H420.615Z" fill="url(#paint26_linear)"/>
<path d="M383.902 821.984C383.902 821.984 384.094 814.717 384.858 814.717C385.623 814.717 391.168 813.952 391.168 815.29C391.168 816.629 391.168 821.984 391.168 821.984H383.902Z" fill="url(#paint27_linear)"/>
<path d="M448.338 821.794C448.338 821.794 448.529 814.527 449.294 814.527C450.059 814.527 455.604 813.762 455.604 815.101C455.604 816.44 455.604 821.794 455.604 821.794H448.338Z" fill="url(#paint28_linear)"/>
<path d="M473.575 821.604C473.575 821.604 473.766 814.337 474.531 814.337C475.296 814.337 480.841 813.572 480.841 814.91C480.841 816.249 480.841 821.604 480.841 821.604H473.575Z" fill="url(#paint29_linear)"/>
<path d="M498.814 821.604C498.814 821.604 499.006 814.337 499.77 814.337C500.535 814.337 506.08 813.572 506.08 814.91C506.08 816.249 506.08 821.604 506.08 821.604H498.814Z" fill="url(#paint30_linear)"/>
<path d="M524.246 821.413C524.246 821.413 524.437 814.145 525.202 814.145C525.967 814.145 531.512 813.38 531.512 814.719C531.512 816.058 531.512 821.413 531.512 821.413H524.246Z" fill="url(#paint31_linear)"/>
<path d="M542.218 730.952C542.218 730.952 562.294 747.781 564.015 748.929C565.736 750.076 576.634 770.157 573.193 773.025C559.235 783.353 527.495 780.293 516.596 776.085C513.728 774.938 511.434 796.548 511.434 797.696C511.434 798.843 501.874 809.362 499.006 810.127C496.138 810.892 497.858 823.514 493.843 823.705C489.828 823.896 483.709 822.94 481.988 818.159C480.268 813.378 468.604 795.592 469.943 792.15C471.281 788.707 472.428 783.353 472.811 779.91C473.002 776.468 483.518 754.857 490.21 754.857C496.902 754.857 518.317 750.076 518.317 750.076C518.317 750.076 519.273 729.23 542.218 730.952Z" fill="#F3C6A5"/>
<path d="M397.478 643.17C397.478 643.17 371.474 644.318 367.268 640.493L398.816 631.122L397.478 643.17Z" fill="#AA8BC0"/>
<path d="M412.007 657.323C412.007 657.323 420.42 668.415 414.302 670.901C408.183 673.387 401.682 670.901 401.682 670.901C402.447 672.431 404.359 673.579 404.359 673.579C404.359 673.579 400.726 675.874 399.005 672.622C397.284 669.371 393.269 643.745 394.225 633.609C395.181 623.473 428.833 613.146 428.833 613.146C428.833 613.146 447.954 629.019 423.288 643.745C421.95 644.51 425.965 640.111 425.583 637.051C425.391 633.991 421.376 639.92 419.273 640.111C419.082 638.963 420.803 637.434 420.611 635.521C420.229 633.8 418.126 637.816 416.787 637.816C415.449 637.816 410.478 628.828 407.418 629.401C404.359 629.975 394.225 633.417 412.007 657.323Z" fill="url(#paint32_linear)"/>
<path d="M482.755 623.281C482.755 623.281 412.2 626.533 395.374 635.33C378.549 644.127 365.355 641.45 365.355 640.302C365.355 639.346 392.889 631.505 392.889 631.505C393.845 629.784 391.933 611.998 394.227 605.496C396.522 598.993 400.728 578.339 424.055 578.339C428.644 578.339 427.879 575.088 429.409 575.088C430.938 575.088 430.747 577 433.806 577C436.674 577 485.049 571.454 482.755 623.281Z" fill="url(#paint33_linear)"/>
<path d="M442.41 738.604C442.41 738.604 444.704 743.959 449.676 742.429C454.647 740.899 454.264 734.205 452.926 727.894C451.588 721.392 448.337 705.71 444.131 704.562C439.924 703.415 436.291 704.562 435.335 706.475C434.188 708.387 442.41 738.604 442.41 738.604Z" fill="#322DA9"/>
<path d="M403.977 677.978L402.639 687.157C402.639 687.157 399.58 702.648 403.404 706.664C412.582 716.418 425.201 716.226 425.201 716.226C425.201 716.226 428.26 703.987 437.629 704.56C439.35 704.752 455.794 735.16 445.278 741.662C434.761 747.973 427.113 722.537 427.113 722.537C427.113 722.537 410.67 717.948 408.566 716.8C406.463 715.653 402.065 711.254 402.065 711.254C402.065 711.254 397.477 706.09 397.094 700.544C396.521 694.616 400.536 679.507 403.977 677.978Z" fill="url(#paint34_linear)"/>
<path d="M471.282 728.462C471.282 728.462 471.473 734.008 466.693 734.964C461.722 735.92 459.045 730.565 457.324 724.445C455.794 718.517 451.588 704.174 454.838 701.114C458.089 698.245 461.722 697.289 463.443 698.436C465.163 699.584 471.282 728.462 471.282 728.462Z" fill="#322DA9"/>
<path d="M467.458 735.158C467.266 735.158 467.075 735.158 466.884 734.967C456.177 732.481 457.515 702.838 459.045 698.631C459.045 698.439 459.236 698.248 459.236 698.057C467.649 693.658 471.282 701.882 471.282 701.882V690.216L468.796 688.877L472.047 683.522C474.341 686.965 474.532 690.407 476.062 693.658C477.018 695.953 476.253 710.297 476.253 710.297C476.253 710.297 479.695 736.688 467.458 735.158Z" fill="url(#paint35_linear)"/>
<path opacity="0.8" d="M1317.54 531.697H1279.16L1258.02 451.553H1256.19L1230.87 531.697H1195.62L1170.04 451.553H1168.21L1147.33 531.697H1109.48L1150.46 403.78H1187.27L1212.85 484.446H1214.68L1240.27 403.78H1276.55L1317.54 531.697Z" fill="#26FFFF"/>
<path d="M1150.58 402.084H1112.21L1091.06 482.227H1089.24L1063.91 402.084H1028.67L1003.09 482.227H1001.26L980.377 402.084H942.524L983.509 530H1020.32L1045.9 449.334H1047.73L1073.31 530H1109.6L1150.58 402.084Z" fill="#4A44DD"/>
<path d="M910.751 402.003H949.126L970.271 482.146H972.099L997.421 402.003H1032.66L1058.25 482.146H1060.07L1080.96 402.003H1118.81L1077.83 529.919H1041.02L1015.43 449.253H1013.61L988.023 529.919H951.737L910.751 402.003Z" fill="#7E79FF"/>
<path d="M956.706 550.62H963.431L967.137 564.664H967.457L971.894 550.62H978.07L982.554 564.664H982.874L986.534 550.62H993.167L985.985 573.036H979.534L975.051 558.9H974.731L970.248 573.036H963.889L956.706 550.62ZM1006.06 549.888C1007.8 549.888 1009.39 550.193 1010.82 550.803C1012.29 551.382 1013.54 552.206 1014.57 553.273C1015.64 554.31 1016.46 555.561 1017.04 557.025C1017.65 558.489 1017.96 560.09 1017.96 561.828C1017.96 563.566 1017.65 565.168 1017.04 566.632C1016.46 568.095 1015.64 569.361 1014.57 570.429C1013.54 571.465 1012.29 572.289 1010.82 572.899C1009.39 573.478 1007.8 573.768 1006.06 573.768C1004.33 573.768 1002.72 573.478 1001.26 572.899C999.827 572.289 998.577 571.465 997.509 570.429C996.472 569.361 995.649 568.095 995.039 566.632C994.46 565.168 994.17 563.566 994.17 561.828C994.17 560.09 994.46 558.489 995.039 557.025C995.649 555.561 996.472 554.31 997.509 553.273C998.577 552.206 999.827 551.382 1001.26 550.803C1002.72 550.193 1004.33 549.888 1006.06 549.888ZM1006.06 568.233C1006.83 568.233 1007.56 568.095 1008.26 567.821C1008.99 567.516 1009.63 567.089 1010.18 566.54C1010.73 565.991 1011.16 565.32 1011.46 564.527C1011.8 563.734 1011.97 562.835 1011.97 561.828C1011.97 560.822 1011.8 559.922 1011.46 559.129C1011.16 558.336 1010.73 557.665 1010.18 557.116C1009.63 556.567 1008.99 556.155 1008.26 555.881C1007.56 555.576 1006.83 555.423 1006.06 555.423C1005.27 555.423 1004.52 555.576 1003.82 555.881C1003.12 556.155 1002.5 556.567 1001.95 557.116C1001.4 557.665 1000.96 558.336 1000.62 559.129C1000.32 559.922 1000.16 560.822 1000.16 561.828C1000.16 562.835 1000.32 563.734 1000.62 564.527C1000.96 565.32 1001.4 565.991 1001.95 566.54C1002.5 567.089 1003.12 567.516 1003.82 567.821C1004.52 568.095 1005.27 568.233 1006.06 568.233ZM1021.36 550.62H1026.99V553.731H1027.36C1027.63 553.182 1028 552.679 1028.45 552.221C1028.91 551.764 1029.41 551.367 1029.96 551.032C1030.54 550.696 1031.15 550.437 1031.79 550.254C1032.46 550.071 1033.12 549.98 1033.76 549.98C1034.55 549.98 1035.22 550.056 1035.77 550.208C1036.35 550.361 1036.84 550.559 1037.24 550.803L1035.64 556.247C1035.27 556.064 1034.86 555.927 1034.4 555.835C1033.97 555.713 1033.44 555.652 1032.8 555.652C1031.98 555.652 1031.23 555.82 1030.56 556.155C1029.89 556.46 1029.31 556.903 1028.82 557.482C1028.36 558.062 1028 558.748 1027.72 559.541C1027.48 560.303 1027.36 561.142 1027.36 562.057V573.036H1021.36V550.62ZM1040.22 573.036V540.281H1046.21V573.036H1040.22ZM1067.81 570.337H1067.45C1066.9 571.282 1066.04 572.091 1064.89 572.762C1063.73 573.433 1062.29 573.768 1060.59 573.768C1059.15 573.768 1057.78 573.478 1056.47 572.899C1055.19 572.289 1054.04 571.465 1053.04 570.429C1052.06 569.361 1051.28 568.095 1050.7 566.632C1050.12 565.168 1049.83 563.566 1049.83 561.828C1049.83 560.09 1050.12 558.489 1050.7 557.025C1051.28 555.561 1052.06 554.31 1053.04 553.273C1054.04 552.206 1055.19 551.382 1056.47 550.803C1057.78 550.193 1059.15 549.888 1060.59 549.888C1062.29 549.888 1063.73 550.224 1064.89 550.894C1066.04 551.565 1066.9 552.374 1067.45 553.319H1067.81L1067.45 550.117V540.281H1073.44V573.036H1067.81V570.337ZM1061.82 568.233C1062.61 568.233 1063.36 568.095 1064.06 567.821C1064.79 567.516 1065.43 567.089 1065.98 566.54C1066.53 565.991 1066.97 565.32 1067.31 564.527C1067.65 563.734 1067.81 562.835 1067.81 561.828C1067.81 560.822 1067.65 559.922 1067.31 559.129C1066.97 558.336 1066.53 557.665 1065.98 557.116C1065.43 556.567 1064.79 556.155 1064.06 555.881C1063.36 555.576 1062.61 555.423 1061.82 555.423C1061.03 555.423 1060.27 555.576 1059.53 555.881C1058.83 556.186 1058.21 556.613 1057.66 557.162C1057.11 557.711 1056.67 558.382 1056.33 559.175C1056 559.968 1055.83 560.852 1055.83 561.828C1055.83 562.804 1056 563.688 1056.33 564.481C1056.67 565.274 1057.11 565.945 1057.66 566.494C1058.21 567.043 1058.83 567.47 1059.53 567.775C1060.27 568.08 1061.03 568.233 1061.82 568.233ZM1076.17 550.62H1082.89L1086.6 564.664H1086.92L1091.36 550.62H1097.53L1102.01 564.664H1102.33L1105.99 550.62H1112.63L1105.45 573.036H1099L1094.51 558.9H1094.19L1089.71 573.036H1083.35L1076.17 550.62ZM1118.7 547.372C1118.18 547.372 1117.68 547.28 1117.19 547.097C1116.73 546.884 1116.32 546.609 1115.95 546.274C1115.62 545.908 1115.34 545.496 1115.13 545.039C1114.95 544.581 1114.86 544.078 1114.86 543.529C1114.86 542.98 1114.95 542.477 1115.13 542.02C1115.34 541.562 1115.62 541.166 1115.95 540.83C1116.32 540.464 1116.73 540.19 1117.19 540.007C1117.68 539.793 1118.18 539.686 1118.7 539.686C1119.77 539.686 1120.68 540.068 1121.44 540.83C1122.21 541.562 1122.59 542.462 1122.59 543.529C1122.59 544.597 1122.21 545.512 1121.44 546.274C1120.68 547.006 1119.77 547.372 1118.7 547.372ZM1115.72 573.036V550.62H1121.72V573.036H1115.72ZM1143.67 570.337H1143.31C1142.76 571.282 1141.9 572.091 1140.74 572.762C1139.58 573.433 1138.15 573.768 1136.44 573.768C1135.01 573.768 1133.64 573.478 1132.33 572.899C1131.05 572.289 1129.9 571.465 1128.9 570.429C1127.92 569.361 1127.14 568.095 1126.56 566.632C1125.98 565.168 1125.69 563.566 1125.69 561.828C1125.69 560.09 1125.98 558.489 1126.56 557.025C1127.14 555.561 1127.92 554.31 1128.9 553.273C1129.9 552.206 1131.05 551.382 1132.33 550.803C1133.64 550.193 1135.01 549.888 1136.44 549.888C1138.15 549.888 1139.58 550.224 1140.74 550.894C1141.9 551.565 1142.76 552.374 1143.31 553.319H1143.67L1143.31 550.117V540.281H1149.3V573.036H1143.67V570.337ZM1137.68 568.233C1138.47 568.233 1139.22 568.095 1139.92 567.821C1140.65 567.516 1141.29 567.089 1141.84 566.54C1142.39 565.991 1142.83 565.32 1143.17 564.527C1143.5 563.734 1143.67 562.835 1143.67 561.828C1143.67 560.822 1143.5 559.922 1143.17 559.129C1142.83 558.336 1142.39 557.665 1141.84 557.116C1141.29 556.567 1140.65 556.155 1139.92 555.881C1139.22 555.576 1138.47 555.423 1137.68 555.423C1136.89 555.423 1136.12 555.576 1135.39 555.881C1134.69 556.186 1134.06 556.613 1133.52 557.162C1132.97 557.711 1132.52 558.382 1132.19 559.175C1131.85 559.968 1131.69 560.852 1131.69 561.828C1131.69 562.804 1131.85 563.688 1132.19 564.481C1132.52 565.274 1132.97 565.945 1133.52 566.494C1134.06 567.043 1134.69 567.47 1135.39 567.775C1136.12 568.08 1136.89 568.233 1137.68 568.233ZM1175.41 567.638C1174.37 569.468 1172.97 570.947 1171.2 572.075C1169.46 573.204 1167.33 573.768 1164.79 573.768C1163.09 573.768 1161.5 573.478 1160.04 572.899C1158.6 572.289 1157.35 571.45 1156.29 570.383C1155.22 569.315 1154.38 568.065 1153.77 566.632C1153.19 565.168 1152.9 563.566 1152.9 561.828C1152.9 560.212 1153.19 558.687 1153.77 557.253C1154.35 555.789 1155.16 554.524 1156.19 553.456C1157.23 552.358 1158.45 551.489 1159.85 550.849C1161.29 550.208 1162.86 549.888 1164.57 549.888C1166.37 549.888 1167.97 550.193 1169.37 550.803C1170.77 551.382 1171.95 552.206 1172.89 553.273C1173.84 554.31 1174.55 555.545 1175.04 556.979C1175.53 558.412 1175.77 559.968 1175.77 561.645C1175.77 561.859 1175.77 562.042 1175.77 562.194C1175.74 562.377 1175.73 562.545 1175.73 562.697C1175.7 562.85 1175.68 563.017 1175.68 563.2H1158.8C1158.92 564.115 1159.17 564.908 1159.53 565.579C1159.93 566.22 1160.4 566.769 1160.95 567.226C1161.53 567.653 1162.16 567.973 1162.83 568.187C1163.5 568.37 1164.18 568.461 1164.89 568.461C1166.26 568.461 1167.39 568.156 1168.27 567.546C1169.19 566.906 1169.9 566.113 1170.42 565.168L1175.41 567.638ZM1169.96 558.946C1169.93 558.55 1169.8 558.107 1169.55 557.619C1169.34 557.131 1169 556.674 1168.55 556.247C1168.12 555.82 1167.57 555.469 1166.9 555.195C1166.26 554.92 1165.48 554.783 1164.57 554.783C1163.28 554.783 1162.16 555.149 1161.18 555.881C1160.2 556.613 1159.52 557.635 1159.12 558.946H1169.96ZM1189.65 550.62H1195.28V553.548H1195.65C1196.35 552.45 1197.29 551.565 1198.48 550.894C1199.7 550.224 1201.04 549.888 1202.51 549.888C1204.22 549.888 1205.65 550.285 1206.81 551.077C1207.97 551.87 1208.79 552.846 1209.28 554.005C1209.98 552.877 1210.97 551.916 1212.25 551.123C1213.53 550.3 1215.09 549.888 1216.92 549.888C1218.29 549.888 1219.48 550.117 1220.49 550.574C1221.49 551.001 1222.32 551.611 1222.96 552.404C1223.63 553.197 1224.13 554.158 1224.47 555.286C1224.8 556.384 1224.97 557.589 1224.97 558.9V573.036H1218.98V559.998C1218.98 556.948 1217.73 555.423 1215.23 555.423C1214.43 555.423 1213.73 555.606 1213.12 555.972C1212.51 556.308 1211.99 556.781 1211.57 557.391C1211.17 557.97 1210.85 558.672 1210.61 559.495C1210.39 560.318 1210.28 561.203 1210.28 562.148V573.036H1204.29V559.998C1204.29 556.948 1202.98 555.423 1200.36 555.423C1199.6 555.423 1198.92 555.606 1198.34 555.972C1197.77 556.308 1197.28 556.781 1196.88 557.391C1196.48 557.97 1196.18 558.672 1195.97 559.495C1195.75 560.318 1195.65 561.203 1195.65 562.148V573.036H1189.65V550.62ZM1245.41 570.108H1245.05C1244.35 571.237 1243.4 572.136 1242.21 572.807C1241.02 573.448 1239.66 573.768 1238.14 573.768C1235.3 573.768 1233.18 572.899 1231.78 571.16C1230.41 569.422 1229.72 567.104 1229.72 564.207V550.62H1235.72V563.475C1235.72 565.091 1236.07 566.296 1236.77 567.089C1237.5 567.851 1238.55 568.233 1239.92 568.233C1240.75 568.233 1241.46 568.065 1242.07 567.729C1242.71 567.363 1243.25 566.891 1243.68 566.311C1244.13 565.701 1244.47 565 1244.68 564.207C1244.93 563.383 1245.05 562.514 1245.05 561.599V550.62H1251.04V573.036H1245.41V570.108ZM1264.83 573.768C1263.36 573.768 1262.05 573.585 1260.89 573.219C1259.76 572.853 1258.77 572.38 1257.92 571.801C1257.09 571.191 1256.39 570.505 1255.81 569.742C1255.23 568.949 1254.79 568.156 1254.49 567.363L1259.84 565.076C1260.36 566.235 1261.04 567.104 1261.9 567.684C1262.78 568.233 1263.76 568.507 1264.83 568.507C1265.92 568.507 1266.79 568.309 1267.43 567.912C1268.07 567.516 1268.39 567.043 1268.39 566.494C1268.39 565.884 1268.12 565.396 1267.57 565.03C1267.05 564.634 1266.14 564.283 1264.83 563.978L1261.67 563.292C1260.97 563.139 1260.24 562.896 1259.47 562.56C1258.74 562.225 1258.07 561.798 1257.46 561.279C1256.85 560.761 1256.35 560.135 1255.95 559.403C1255.55 558.672 1255.36 557.818 1255.36 556.842C1255.36 555.744 1255.58 554.768 1256.04 553.914C1256.53 553.06 1257.19 552.343 1258.01 551.764C1258.83 551.154 1259.79 550.696 1260.89 550.391C1262.02 550.056 1263.22 549.888 1264.51 549.888C1266.64 549.888 1268.55 550.315 1270.22 551.169C1271.9 551.992 1273.14 553.319 1273.93 555.149L1268.76 557.253C1268.33 556.369 1267.71 555.728 1266.88 555.332C1266.06 554.935 1265.24 554.737 1264.41 554.737C1263.56 554.737 1262.81 554.92 1262.17 555.286C1261.53 555.622 1261.21 556.064 1261.21 556.613C1261.21 557.131 1261.47 557.543 1261.99 557.848C1262.54 558.153 1263.27 558.428 1264.19 558.672L1267.62 559.495C1269.9 560.044 1271.6 560.928 1272.69 562.148C1273.82 563.338 1274.39 564.756 1274.39 566.403C1274.39 567.379 1274.16 568.309 1273.7 569.193C1273.24 570.078 1272.59 570.871 1271.73 571.572C1270.91 572.243 1269.9 572.777 1268.71 573.173C1267.56 573.57 1266.26 573.768 1264.83 573.768ZM1281.18 547.372C1280.66 547.372 1280.16 547.28 1279.67 547.097C1279.21 546.884 1278.8 546.609 1278.44 546.274C1278.1 545.908 1277.83 545.496 1277.61 545.039C1277.43 544.581 1277.34 544.078 1277.34 543.529C1277.34 542.98 1277.43 542.477 1277.61 542.02C1277.83 541.562 1278.1 541.166 1278.44 540.83C1278.8 540.464 1279.21 540.19 1279.67 540.007C1280.16 539.793 1280.66 539.686 1281.18 539.686C1282.25 539.686 1283.16 540.068 1283.93 540.83C1284.69 541.562 1285.07 542.462 1285.07 543.529C1285.07 544.597 1284.69 545.512 1283.93 546.274C1283.16 547.006 1282.25 547.372 1281.18 547.372ZM1278.21 573.036V550.62H1284.2V573.036H1278.21ZM1310.73 567.318C1309.75 569.209 1308.38 570.764 1306.61 571.984C1304.87 573.173 1302.69 573.768 1300.07 573.768C1298.33 573.768 1296.73 573.478 1295.27 572.899C1293.83 572.289 1292.58 571.45 1291.52 570.383C1290.48 569.315 1289.66 568.065 1289.05 566.632C1288.47 565.168 1288.18 563.566 1288.18 561.828C1288.18 560.09 1288.47 558.489 1289.05 557.025C1289.66 555.561 1290.48 554.31 1291.52 553.273C1292.58 552.206 1293.83 551.382 1295.27 550.803C1296.73 550.193 1298.33 549.888 1300.07 549.888C1302.66 549.888 1304.84 550.483 1306.61 551.672C1308.38 552.862 1309.68 554.402 1310.5 556.293L1305.01 558.58C1304.49 557.543 1303.82 556.765 1303 556.247C1302.21 555.698 1301.2 555.423 1299.98 555.423C1299.19 555.423 1298.44 555.576 1297.74 555.881C1297.04 556.186 1296.41 556.613 1295.86 557.162C1295.34 557.711 1294.93 558.382 1294.63 559.175C1294.32 559.968 1294.17 560.852 1294.17 561.828C1294.17 562.804 1294.32 563.688 1294.63 564.481C1294.93 565.274 1295.34 565.945 1295.86 566.494C1296.41 567.043 1297.04 567.47 1297.74 567.775C1298.44 568.08 1299.19 568.233 1299.98 568.233C1301.23 568.233 1302.28 567.958 1303.14 567.409C1304.02 566.83 1304.72 566.006 1305.24 564.939L1310.73 567.318Z" fill="white"/>
</g>
<defs>
<linearGradient id="paint0_linear" x1="1039.64" y1="240.867" x2="1039.64" y2="-228.707" gradientUnits="userSpaceOnUse">
<stop stop-color="#2E2BBF"/>
<stop offset="1" stop-color="#A47AFF"/>
</linearGradient>
<linearGradient id="paint1_linear" x1="449.485" y1="240.867" x2="449.485" y2="-228.707" gradientUnits="userSpaceOnUse">
<stop stop-color="#2E2BBF"/>
<stop offset="1" stop-color="#A47AFF"/>
</linearGradient>
<linearGradient id="paint2_linear" x1="439.832" y1="262.168" x2="439.832" y2="526.349" gradientUnits="userSpaceOnUse">
<stop stop-color="#7571E2"/>
<stop offset="1" stop-color="#523FC8"/>
</linearGradient>
<linearGradient id="paint3_linear" x1="437.421" y1="190.307" x2="437.421" y2="663.756" gradientUnits="userSpaceOnUse">
<stop stop-color="#2E2BBF"/>
<stop offset="1" stop-color="#A47AFF"/>
</linearGradient>
<linearGradient id="paint4_linear" x1="445.798" y1="384.196" x2="445.798" y2="576.048" gradientUnits="userSpaceOnUse">
<stop stop-color="#2E2BBF"/>
<stop offset="1" stop-color="#A47AFF"/>
</linearGradient>
<linearGradient id="paint5_linear" x1="408.988" y1="402.307" x2="408.988" y2="500.56" gradientUnits="userSpaceOnUse">
<stop stop-color="#2E2BBF"/>
<stop offset="1" stop-color="#A47AFF"/>
</linearGradient>
<linearGradient id="paint6_linear" x1="406.194" y1="731.433" x2="406.194" y2="808.181" gradientUnits="userSpaceOnUse">
<stop stop-color="#7571E2"/>
<stop offset="1" stop-color="#523FC8"/>
</linearGradient>
<linearGradient id="paint7_linear" x1="547.234" y1="721.49" x2="547.234" y2="798.984" gradientUnits="userSpaceOnUse">
<stop stop-color="#7571E2"/>
<stop offset="1" stop-color="#523FC8"/>
</linearGradient>
<linearGradient id="paint8_linear" x1="588.146" y1="437.081" x2="588.146" y2="986.593" gradientUnits="userSpaceOnUse">
<stop stop-color="#7571E2"/>
<stop offset="1" stop-color="#523FC8"/>
</linearGradient>
<linearGradient id="paint9_linear" x1="728.795" y1="464.719" x2="728.795" y2="548.365" gradientUnits="userSpaceOnUse">
<stop stop-color="#2E2BBF"/>
<stop offset="1" stop-color="#A47AFF"/>
</linearGradient>
<linearGradient id="paint10_linear" x1="619.097" y1="447.591" x2="619.097" y2="479.081" gradientUnits="userSpaceOnUse">
<stop stop-color="#2E2BBF"/>
<stop offset="1" stop-color="#A47AFF"/>
</linearGradient>
<linearGradient id="paint11_linear" x1="581.55" y1="356.455" x2="581.55" y2="542.519" gradientUnits="userSpaceOnUse">
<stop stop-color="#2E2BBF"/>
<stop offset="1" stop-color="#A47AFF"/>
</linearGradient>
<linearGradient id="paint12_linear" x1="261.38" y1="338.241" x2="257.164" y2="501.555" gradientUnits="userSpaceOnUse">
<stop stop-color="#2E2BBF"/>
<stop offset="1" stop-color="#A47AFF"/>
</linearGradient>
<linearGradient id="paint13_linear" x1="232.541" y1="371.312" x2="228.41" y2="531.342" gradientUnits="userSpaceOnUse">
<stop stop-color="#2E2BBF"/>
<stop offset="1" stop-color="#A47AFF"/>
</linearGradient>
<linearGradient id="paint14_linear" x1="295.026" y1="672.927" x2="271.488" y2="1584.69" gradientUnits="userSpaceOnUse">
<stop stop-color="#2E2BBF"/>
<stop offset="1" stop-color="#A47AFF"/>
</linearGradient>
<linearGradient id="paint15_linear" x1="239.348" y1="653.715" x2="215.672" y2="1570.8" gradientUnits="userSpaceOnUse">
<stop stop-color="#2E2BBF"/>
<stop offset="1" stop-color="#A47AFF"/>
</linearGradient>
<linearGradient id="paint16_linear" x1="275.482" y1="412.988" x2="269.004" y2="663.907" gradientUnits="userSpaceOnUse">
<stop stop-color="#7571E2"/>
<stop offset="1" stop-color="#523FC8"/>
</linearGradient>
<linearGradient id="paint17_linear" x1="118.981" y1="392.796" x2="116.079" y2="505.226" gradientUnits="userSpaceOnUse">
<stop stop-color="#2E2BBF"/>
<stop offset="1" stop-color="#A47AFF"/>
</linearGradient>
<linearGradient id="paint18_linear" x1="429.513" y1="690.168" x2="429.513" y2="845.509" gradientUnits="userSpaceOnUse">
<stop stop-color="#7571E2"/>
<stop offset="1" stop-color="#523FC8"/>
</linearGradient>
<linearGradient id="paint19_linear" x1="455.994" y1="827.755" x2="455.994" y2="921.983" gradientUnits="userSpaceOnUse">
<stop stop-color="#2E2BBF"/>
<stop offset="1" stop-color="#A47AFF"/>
</linearGradient>
<linearGradient id="paint20_linear" x1="406.246" y1="814.161" x2="406.246" y2="837.429" gradientUnits="userSpaceOnUse">
<stop stop-color="#2E2BBF"/>
<stop offset="1" stop-color="#A47AFF"/>
</linearGradient>
<linearGradient id="paint21_linear" x1="439.705" y1="814.351" x2="439.705" y2="837.618" gradientUnits="userSpaceOnUse">
<stop stop-color="#2E2BBF"/>
<stop offset="1" stop-color="#A47AFF"/>
</linearGradient>
<linearGradient id="paint22_linear" x1="463.034" y1="814.351" x2="463.034" y2="837.618" gradientUnits="userSpaceOnUse">
<stop stop-color="#2E2BBF"/>
<stop offset="1" stop-color="#A47AFF"/>
</linearGradient>
<linearGradient id="paint23_linear" x1="486.547" y1="814.161" x2="486.547" y2="837.429" gradientUnits="userSpaceOnUse">
<stop stop-color="#2E2BBF"/>
<stop offset="1" stop-color="#A47AFF"/>
</linearGradient>
<linearGradient id="paint24_linear" x1="508.921" y1="814.161" x2="508.921" y2="837.429" gradientUnits="userSpaceOnUse">
<stop stop-color="#2E2BBF"/>
<stop offset="1" stop-color="#A47AFF"/>
</linearGradient>
<linearGradient id="paint25_linear" x1="533.013" y1="814.161" x2="533.013" y2="837.429" gradientUnits="userSpaceOnUse">
<stop stop-color="#2E2BBF"/>
<stop offset="1" stop-color="#A47AFF"/>
</linearGradient>
<linearGradient id="paint26_linear" x1="423.791" y1="815.329" x2="423.791" y2="833.768" gradientUnits="userSpaceOnUse">
<stop stop-color="#2E2BBF"/>
<stop offset="1" stop-color="#A47AFF"/>
</linearGradient>
<linearGradient id="paint27_linear" x1="387.078" y1="815.329" x2="387.078" y2="833.768" gradientUnits="userSpaceOnUse">
<stop stop-color="#2E2BBF"/>
<stop offset="1" stop-color="#A47AFF"/>
</linearGradient>
<linearGradient id="paint28_linear" x1="451.513" y1="815.139" x2="451.513" y2="833.579" gradientUnits="userSpaceOnUse">
<stop stop-color="#2E2BBF"/>
<stop offset="1" stop-color="#A47AFF"/>
</linearGradient>
<linearGradient id="paint29_linear" x1="476.751" y1="814.949" x2="476.751" y2="833.388" gradientUnits="userSpaceOnUse">
<stop stop-color="#2E2BBF"/>
<stop offset="1" stop-color="#A47AFF"/>
</linearGradient>
<linearGradient id="paint30_linear" x1="501.99" y1="814.949" x2="501.99" y2="833.388" gradientUnits="userSpaceOnUse">
<stop stop-color="#2E2BBF"/>
<stop offset="1" stop-color="#A47AFF"/>
</linearGradient>
<linearGradient id="paint31_linear" x1="527.422" y1="814.758" x2="527.422" y2="833.197" gradientUnits="userSpaceOnUse">
<stop stop-color="#2E2BBF"/>
<stop offset="1" stop-color="#A47AFF"/>
</linearGradient>
<linearGradient id="paint32_linear" x1="412.357" y1="619.933" x2="412.357" y2="770.75" gradientUnits="userSpaceOnUse">
<stop stop-color="#2E2BBF"/>
<stop offset="1" stop-color="#A47AFF"/>
</linearGradient>
<linearGradient id="paint33_linear" x1="424.095" y1="575.088" x2="424.095" y2="641.598" gradientUnits="userSpaceOnUse">
<stop stop-color="#7571E2"/>
<stop offset="1" stop-color="#523FC8"/>
</linearGradient>
<linearGradient id="paint34_linear" x1="419.646" y1="685.15" x2="419.646" y2="844.519" gradientUnits="userSpaceOnUse">
<stop stop-color="#2E2BBF"/>
<stop offset="1" stop-color="#A47AFF"/>
</linearGradient>
<linearGradient id="paint35_linear" x1="466.182" y1="689.254" x2="466.182" y2="816.62" gradientUnits="userSpaceOnUse">
<stop stop-color="#2E2BBF"/>
<stop offset="1" stop-color="#A47AFF"/>
</linearGradient>
<clipPath id="clip0">
<rect width="1500" height="855" fill="white"/>
</clipPath>
</defs>
</svg>
